<svg xmlns="http://www.w3.org/2000/svg" viewBox="0 0 760 329"><title>image-01</title><path d="M604.9,24.732h1.344l3.74,6.472,1.093,2.115h.069c-.069-1.037-.168-2.186-.168-3.25V24.732h1.233V35h-1.331l-3.74-6.485L606.038,26.4h-.056c.056,1.037.154,2.129.154,3.208V35H604.9Z" style="fill:#323333"/><path d="M614.325,31.2c0-2.536,1.667-4.006,3.53-4.006s3.529,1.471,3.529,4.006-1.666,3.978-3.529,3.978S614.325,33.725,614.325,31.2Zm5.743,0c0-1.751-.9-2.942-2.213-2.942s-2.2,1.191-2.2,2.942.883,2.914,2.2,2.914S620.068,32.955,620.068,31.2Z" style="fill:#323333"/><path d="M622.837,31.2c0-2.465,1.556-4.006,3.292-4.006a3.093,3.093,0,0,1,2.143.9l-.069-1.317V23.85h1.274V35h-1.037l-.125-.9h-.028a3.394,3.394,0,0,1-2.312,1.079C624.07,35.182,622.837,33.739,622.837,31.2Zm5.365,1.863V29.075a2.671,2.671,0,0,0-1.849-.8c-1.233,0-2.2,1.177-2.2,2.914,0,1.835.756,2.928,2.1,2.928A2.613,2.613,0,0,0,628.2,33.067Z" style="fill:#323333"/><path d="M631.488,31.2c0-2.465,1.668-4.006,3.433-4.006,1.933,0,3.025,1.4,3.025,3.572a5.079,5.079,0,0,1-.056.729h-5.127a2.52,2.52,0,0,0,2.521,2.662,3.276,3.276,0,0,0,1.9-.6l.463.84a4.522,4.522,0,0,1-2.521.785A3.635,3.635,0,0,1,631.488,31.2Zm5.338-.617c0-1.541-.7-2.367-1.892-2.367a2.339,2.339,0,0,0-2.185,2.367Z" style="fill:#323333"/><path d="M647.773,31.862H644.02L643.025,35h-1.317L645.2,24.732h1.443L650.127,35h-1.373Zm-.322-1.037-.49-1.569c-.379-1.163-.7-2.283-1.037-3.474h-.056c-.322,1.2-.658,2.311-1.022,3.474l-.5,1.569Z" style="fill:#323333"/><path d="M588.441,41.825h-3.11V40.732h7.522v1.093h-3.109V51h-1.3Z" style="fill:#323333"/><path d="M594,47.2c0-2.536,1.666-4.006,3.529-4.006s3.53,1.471,3.53,4.006-1.667,3.978-3.53,3.978S594,49.725,594,47.2Zm5.742,0c0-1.751-.9-2.942-2.213-2.942s-2.2,1.191-2.2,2.942.883,2.914,2.2,2.914S599.74,48.955,599.74,47.2Z" style="fill:#323333"/><path d="M603.056,39.85h1.261v7.564h.028l3.264-4.02h1.415l-2.55,3.054L609.359,51h-1.387l-2.228-3.67L604.316,49v2h-1.261Z" style="fill:#323333"/><path d="M610.209,47.2c0-2.465,1.668-4.006,3.433-4.006,1.933,0,3.025,1.4,3.025,3.572a5.079,5.079,0,0,1-.056.729h-5.127a2.52,2.52,0,0,0,2.521,2.662,3.276,3.276,0,0,0,1.9-.6l.463.84a4.522,4.522,0,0,1-2.521.785A3.635,3.635,0,0,1,610.209,47.2Zm5.338-.617c0-1.541-.7-2.367-1.892-2.367a2.339,2.339,0,0,0-2.185,2.367Z" style="fill:#323333"/><path d="M618.539,43.394h1.051l.112,1.092h.042a3.65,3.65,0,0,1,2.55-1.289c1.6,0,2.325,1.037,2.325,2.984V51h-1.275V46.35c0-1.429-.434-2.031-1.442-2.031a2.893,2.893,0,0,0-2.087,1.163V51h-1.275Z" style="fill:#323333"/><path d="M626.827,44.57a.925.925,0,1,1,.925.967A.942.942,0,0,1,626.827,44.57Zm0,5.646a.927.927,0,1,1,1.849,0,.925.925,0,1,1-1.849,0Z" style="fill:#323333"/><path d="M633.52,45.831c0-3.572,1.246-5.295,3.207-5.295s3.194,1.737,3.194,5.295-1.247,5.351-3.194,5.351S633.52,49.4,633.52,45.831Zm5.154,0c0-3-.784-4.258-1.947-4.258s-1.961,1.261-1.961,4.258c0,3.026.785,4.329,1.961,4.329S638.674,48.857,638.674,45.831Z" style="fill:#323333"/><path d="M641.248,46.587h3.586v.981h-3.586Z" style="fill:#323333"/><path d="M646.693,49.936h2.283V42.273h-1.82v-.812a6.5,6.5,0,0,0,2.129-.729h.98v9.2h2.059V51h-5.631Z" style="fill:#323333"/><path d="M654.744,49.333a2.316,2.316,0,0,0,1.723.785c1.33,0,2.479-1.093,2.577-4.287a3.165,3.165,0,0,1-2.367,1.275c-1.709,0-2.829-1.106-2.829-3.236a3.082,3.082,0,0,1,2.941-3.334c1.975,0,3.445,1.625,3.445,4.889,0,4.161-1.793,5.757-3.726,5.757a3.268,3.268,0,0,1-2.466-1.051Zm4.286-4.552c-.14-2.115-.925-3.236-2.241-3.236-.98,0-1.737.924-1.737,2.325s.616,2.283,1.835,2.283A2.714,2.714,0,0,0,659.03,44.781Z" style="fill:#323333"/><path d="M662.514,49.333a2.318,2.318,0,0,0,1.723.785c1.331,0,2.479-1.093,2.578-4.287a3.167,3.167,0,0,1-2.367,1.275c-1.709,0-2.83-1.106-2.83-3.236a3.083,3.083,0,0,1,2.941-3.334c1.976,0,3.446,1.625,3.446,4.889,0,4.161-1.793,5.757-3.726,5.757a3.266,3.266,0,0,1-2.466-1.051Zm4.287-4.552c-.141-2.115-.926-3.236-2.242-3.236-.98,0-1.736.924-1.736,2.325s.616,2.283,1.834,2.283A2.715,2.715,0,0,0,666.8,44.781Z" style="fill:#323333"/><path d="M307.344,175.732h1.345l3.74,6.472,1.093,2.115h.07c-.07-1.037-.168-2.186-.168-3.25v-5.337h1.233V186h-1.331l-3.74-6.485-1.107-2.115h-.056c.056,1.037.154,2.129.154,3.208V186h-1.232Z" style="fill:#323333"/><path d="M316.765,182.2c0-2.536,1.667-4.006,3.53-4.006s3.53,1.471,3.53,4.006-1.667,3.978-3.53,3.978S316.765,184.725,316.765,182.2Zm5.743,0c0-1.751-.9-2.942-2.213-2.942s-2.2,1.191-2.2,2.942.883,2.914,2.2,2.914S322.508,183.955,322.508,182.2Z" style="fill:#323333"/><path d="M325.277,182.2c0-2.465,1.555-4.006,3.292-4.006a3.1,3.1,0,0,1,2.143.9l-.07-1.317V174.85h1.274V186H330.88l-.126-.9h-.028a3.393,3.393,0,0,1-2.312,1.079C326.51,186.182,325.277,184.739,325.277,182.2Zm5.365,1.863v-3.992a2.671,2.671,0,0,0-1.849-.8c-1.232,0-2.2,1.177-2.2,2.914,0,1.835.756,2.928,2.1,2.928A2.613,2.613,0,0,0,330.642,184.067Z" style="fill:#323333"/><path d="M333.929,182.2c0-2.465,1.667-4.006,3.432-4.006,1.933,0,3.025,1.4,3.025,3.572a4.933,4.933,0,0,1-.056.729H335.2a2.52,2.52,0,0,0,2.521,2.662,3.278,3.278,0,0,0,1.905-.6l.462.84a4.525,4.525,0,0,1-2.521.785A3.635,3.635,0,0,1,333.929,182.2Zm5.337-.617c0-1.541-.7-2.367-1.891-2.367a2.34,2.34,0,0,0-2.185,2.367Z" style="fill:#323333"/><path d="M345.507,175.732h2.577c3.152,0,4.847,1.835,4.847,5.1S351.236,186,348.141,186h-2.633Zm2.465,9.2c2.423,0,3.614-1.513,3.614-4.1s-1.19-4.048-3.614-4.048H346.81v8.152Z" style="fill:#323333"/><path d="M283.671,192.825h-3.11v-1.093h7.522v1.093h-3.11V202h-1.3Z" style="fill:#323333"/><path d="M289.228,198.2c0-2.536,1.667-4.006,3.53-4.006s3.53,1.471,3.53,4.006-1.667,3.978-3.53,3.978S289.228,200.725,289.228,198.2Zm5.743,0c0-1.751-.9-2.942-2.213-2.942s-2.2,1.191-2.2,2.942.883,2.914,2.2,2.914S294.971,199.955,294.971,198.2Z" style="fill:#323333"/><path d="M298.286,190.85h1.261v7.564h.028l3.264-4.02h1.415l-2.549,3.054L304.59,202H303.2l-2.228-3.67L299.547,200v2h-1.261Z" style="fill:#323333"/><path d="M305.44,198.2c0-2.465,1.667-4.006,3.432-4.006,1.933,0,3.025,1.4,3.025,3.572a4.933,4.933,0,0,1-.056.729h-5.126a2.52,2.52,0,0,0,2.521,2.662,3.278,3.278,0,0,0,1.905-.6l.462.84a4.525,4.525,0,0,1-2.521.785A3.635,3.635,0,0,1,305.44,198.2Zm5.337-.617c0-1.541-.7-2.367-1.891-2.367a2.34,2.34,0,0,0-2.185,2.367Z" style="fill:#323333"/><path d="M313.77,194.394h1.051l.112,1.092h.042a3.649,3.649,0,0,1,2.55-1.289c1.6,0,2.325,1.037,2.325,2.984V202h-1.275v-4.65c0-1.429-.434-2.031-1.443-2.031a2.893,2.893,0,0,0-2.087,1.163V202H313.77Z" style="fill:#323333"/><path d="M322.058,195.57a.925.925,0,1,1,.925.967A.941.941,0,0,1,322.058,195.57Zm0,5.646a.927.927,0,1,1,1.849,0,.925.925,0,1,1-1.849,0Z" style="fill:#323333"/><path d="M334.339,193.385a2.171,2.171,0,0,0-1.653-.784c-1.4,0-2.591,1.079-2.647,4.272a3.2,3.2,0,0,1,2.339-1.247c1.737,0,2.843,1.079,2.843,3.222a3.083,3.083,0,0,1-2.941,3.334c-1.975,0-3.432-1.695-3.432-5.085,0-4.02,1.807-5.561,3.8-5.561a3.153,3.153,0,0,1,2.4,1.051Zm-.322,5.463c0-1.387-.6-2.269-1.849-2.269a2.677,2.677,0,0,0-2.1,1.317c.154,2.129.925,3.292,2.213,3.292C333.26,201.188,334.017,200.249,334.017,198.848Z" style="fill:#323333"/><path d="M336.52,196.831c0-3.572,1.247-5.295,3.208-5.295s3.194,1.737,3.194,5.295-1.247,5.351-3.194,5.351S336.52,200.4,336.52,196.831Zm5.155,0c0-3-.785-4.258-1.947-4.258s-1.961,1.261-1.961,4.258c0,3.026.784,4.329,1.961,4.329S341.675,199.857,341.675,196.831Z" style="fill:#323333"/><path d="M344.29,196.831c0-3.572,1.247-5.295,3.208-5.295s3.194,1.737,3.194,5.295-1.247,5.351-3.194,5.351S344.29,200.4,344.29,196.831Zm5.155,0c0-3-.785-4.258-1.947-4.258s-1.961,1.261-1.961,4.258c0,3.026.784,4.329,1.961,4.329S349.445,199.857,349.445,196.831Z" style="fill:#323333"/><path d="M352.018,197.587H355.6v.981h-3.586Z" style="fill:#323333"/><path d="M361.891,192.825h-4.973v-1.093h6.429v.771c-2.409,3.1-2.857,5.477-3.012,9.5H359C359.173,198.106,359.887,195.626,361.891,192.825Z" style="fill:#323333"/><path d="M365.514,200.333a2.319,2.319,0,0,0,1.723.785c1.331,0,2.479-1.093,2.577-4.287a3.165,3.165,0,0,1-2.367,1.275c-1.709,0-2.83-1.106-2.83-3.236a3.083,3.083,0,0,1,2.942-3.334c1.975,0,3.446,1.625,3.446,4.889,0,4.161-1.793,5.757-3.726,5.757a3.266,3.266,0,0,1-2.465-1.051Zm4.287-4.552c-.14-2.115-.925-3.236-2.241-3.236-.98,0-1.737.924-1.737,2.325s.617,2.283,1.835,2.283A2.714,2.714,0,0,0,369.8,195.781Z" style="fill:#323333"/><path d="M373.284,200.333a2.318,2.318,0,0,0,1.723.785c1.331,0,2.479-1.093,2.577-4.287a3.165,3.165,0,0,1-2.367,1.275c-1.709,0-2.83-1.106-2.83-3.236a3.083,3.083,0,0,1,2.942-3.334c1.975,0,3.446,1.625,3.446,4.889,0,4.161-1.793,5.757-3.726,5.757a3.266,3.266,0,0,1-2.465-1.051Zm4.287-4.552c-.14-2.115-.925-3.236-2.241-3.236-.981,0-1.737.924-1.737,2.325s.617,2.283,1.835,2.283A2.714,2.714,0,0,0,377.571,195.781Z" style="fill:#323333"/><path d="M367.037,24.732h1.345l3.74,6.472,1.093,2.115h.07c-.07-1.037-.168-2.186-.168-3.25V24.732h1.233V35h-1.331l-3.74-6.485L368.171,26.4h-.056c.056,1.037.154,2.129.154,3.208V35h-1.232Z" style="fill:#323333"/><path d="M376.458,31.2c0-2.536,1.667-4.006,3.53-4.006s3.53,1.471,3.53,4.006-1.667,3.978-3.53,3.978S376.458,33.725,376.458,31.2Zm5.743,0c0-1.751-.9-2.942-2.213-2.942s-2.2,1.191-2.2,2.942.883,2.914,2.2,2.914S382.2,32.955,382.2,31.2Z" style="fill:#323333"/><path d="M384.97,31.2c0-2.465,1.555-4.006,3.292-4.006a3.1,3.1,0,0,1,2.143.9l-.07-1.317V23.85h1.274V35h-1.037l-.126-.9h-.028a3.393,3.393,0,0,1-2.312,1.079C386.2,35.182,384.97,33.739,384.97,31.2Zm5.365,1.863V29.075a2.671,2.671,0,0,0-1.849-.8c-1.233,0-2.2,1.177-2.2,2.914,0,1.835.756,2.928,2.1,2.928A2.613,2.613,0,0,0,390.335,33.067Z" style="fill:#323333"/><path d="M393.622,31.2c0-2.465,1.667-4.006,3.432-4.006,1.933,0,3.025,1.4,3.025,3.572a4.933,4.933,0,0,1-.056.729H394.9a2.52,2.52,0,0,0,2.521,2.662,3.278,3.278,0,0,0,1.905-.6l.462.84a4.525,4.525,0,0,1-2.521.785A3.635,3.635,0,0,1,393.622,31.2Zm5.337-.617c0-1.541-.7-2.367-1.891-2.367a2.34,2.34,0,0,0-2.185,2.367Z" style="fill:#323333"/><path d="M405.2,24.732h5.925v1.093H406.5v3.222H410.4v1.106H406.5v3.74h4.776V35H405.2Z" style="fill:#323333"/><path d="M342.671,41.825h-3.11V40.732h7.522v1.093h-3.11V51h-1.3Z" style="fill:#323333"/><path d="M348.228,47.2c0-2.536,1.667-4.006,3.53-4.006s3.53,1.471,3.53,4.006-1.667,3.978-3.53,3.978S348.228,49.725,348.228,47.2Zm5.743,0c0-1.751-.9-2.942-2.213-2.942s-2.2,1.191-2.2,2.942.883,2.914,2.2,2.914S353.971,48.955,353.971,47.2Z" style="fill:#323333"/><path d="M357.286,39.85h1.261v7.564h.028l3.264-4.02h1.415L360.7,46.448,363.59,51H362.2l-2.228-3.67L358.547,49v2h-1.261Z" style="fill:#323333"/><path d="M364.44,47.2c0-2.465,1.667-4.006,3.432-4.006,1.933,0,3.025,1.4,3.025,3.572a4.933,4.933,0,0,1-.056.729h-5.126a2.52,2.52,0,0,0,2.521,2.662,3.278,3.278,0,0,0,1.905-.6l.462.84a4.525,4.525,0,0,1-2.521.785A3.635,3.635,0,0,1,364.44,47.2Zm5.337-.617c0-1.541-.7-2.367-1.891-2.367a2.34,2.34,0,0,0-2.185,2.367Z" style="fill:#323333"/><path d="M372.77,43.394h1.051l.112,1.092h.042a3.649,3.649,0,0,1,2.55-1.289c1.6,0,2.325,1.037,2.325,2.984V51h-1.275V46.35c0-1.429-.434-2.031-1.443-2.031a2.893,2.893,0,0,0-2.087,1.163V51H372.77Z" style="fill:#323333"/><path d="M381.058,44.57a.925.925,0,1,1,.925.967A.941.941,0,0,1,381.058,44.57Zm0,5.646a.927.927,0,1,1,1.849,0,.925.925,0,1,1-1.849,0Z" style="fill:#323333"/><path d="M387.694,48.451a3.289,3.289,0,0,1,1.891-2.83v-.07a2.856,2.856,0,0,1-1.387-2.368,2.821,2.821,0,0,1,5.631.1,3.367,3.367,0,0,1-1.373,2.479v.07a3,3,0,0,1,1.737,2.689c0,1.5-1.289,2.662-3.222,2.662C389.081,51.182,387.694,50.034,387.694,48.451Zm5.281.042c0-1.373-1.261-1.891-2.717-2.479a2.791,2.791,0,0,0-1.4,2.325A1.969,1.969,0,0,0,391,50.229,1.779,1.779,0,0,0,392.975,48.493Zm-.238-5.141a1.713,1.713,0,0,0-1.751-1.835,1.578,1.578,0,0,0-1.625,1.667c0,1.233,1.106,1.765,2.311,2.241A2.753,2.753,0,0,0,392.736,43.352Z" style="fill:#323333"/><path d="M395.52,45.831c0-3.572,1.247-5.295,3.208-5.295s3.194,1.737,3.194,5.295-1.247,5.351-3.194,5.351S395.52,49.4,395.52,45.831Zm5.155,0c0-3-.785-4.258-1.947-4.258s-1.961,1.261-1.961,4.258c0,3.026.784,4.329,1.961,4.329S400.675,48.857,400.675,45.831Z" style="fill:#323333"/><path d="M403.29,45.831c0-3.572,1.247-5.295,3.208-5.295s3.194,1.737,3.194,5.295-1.247,5.351-3.194,5.351S403.29,49.4,403.29,45.831Zm5.155,0c0-3-.785-4.258-1.947-4.258s-1.961,1.261-1.961,4.258c0,3.026.784,4.329,1.961,4.329S408.445,48.857,408.445,45.831Z" style="fill:#323333"/><path d="M411.018,46.587H414.6v.981h-3.586Z" style="fill:#323333"/><path d="M416.744,49.333a2.318,2.318,0,0,0,1.723.785c1.331,0,2.479-1.093,2.577-4.287a3.165,3.165,0,0,1-2.367,1.275c-1.709,0-2.83-1.106-2.83-3.236a3.083,3.083,0,0,1,2.942-3.334c1.975,0,3.446,1.625,3.446,4.889,0,4.161-1.793,5.757-3.726,5.757a3.266,3.266,0,0,1-2.465-1.051Zm4.287-4.552c-.14-2.115-.925-3.236-2.241-3.236-.981,0-1.737.924-1.737,2.325s.617,2.283,1.835,2.283A2.714,2.714,0,0,0,421.031,44.781Z" style="fill:#323333"/><path d="M424.514,49.333a2.319,2.319,0,0,0,1.723.785c1.331,0,2.479-1.093,2.577-4.287a3.165,3.165,0,0,1-2.367,1.275c-1.709,0-2.83-1.106-2.83-3.236a3.083,3.083,0,0,1,2.942-3.334c1.975,0,3.446,1.625,3.446,4.889,0,4.161-1.793,5.757-3.726,5.757a3.266,3.266,0,0,1-2.465-1.051Zm4.287-4.552c-.14-2.115-.925-3.236-2.241-3.236-.98,0-1.737.924-1.737,2.325s.617,2.283,1.835,2.283A2.714,2.714,0,0,0,428.8,44.781Z" style="fill:#323333"/><path d="M432.284,49.333a2.318,2.318,0,0,0,1.723.785c1.331,0,2.479-1.093,2.577-4.287a3.165,3.165,0,0,1-2.367,1.275c-1.709,0-2.83-1.106-2.83-3.236a3.083,3.083,0,0,1,2.942-3.334c1.975,0,3.446,1.625,3.446,4.889,0,4.161-1.793,5.757-3.726,5.757a3.266,3.266,0,0,1-2.465-1.051Zm4.287-4.552c-.14-2.115-.925-3.236-2.241-3.236-.981,0-1.737.924-1.737,2.325s.617,2.283,1.835,2.283A2.714,2.714,0,0,0,436.571,44.781Z" style="fill:#323333"/><path d="M663.554,175.732H664.9l3.74,6.472,1.092,2.115h.07c-.07-1.037-.168-2.186-.168-3.25v-5.337h1.232V186h-1.33l-3.74-6.485-1.107-2.115h-.055c.055,1.037.153,2.129.153,3.208V186h-1.232Z" style="fill:#323333"/><path d="M672.975,182.2c0-2.536,1.668-4.006,3.53-4.006s3.53,1.471,3.53,4.006-1.667,3.978-3.53,3.978S672.975,184.725,672.975,182.2Zm5.744,0c0-1.751-.9-2.942-2.214-2.942s-2.2,1.191-2.2,2.942.883,2.914,2.2,2.914S678.719,183.955,678.719,182.2Z" style="fill:#323333"/><path d="M681.486,182.2c0-2.465,1.556-4.006,3.293-4.006a3.093,3.093,0,0,1,2.143.9l-.07-1.317V174.85h1.275V186H687.09l-.126-.9h-.028a3.39,3.39,0,0,1-2.311,1.079C682.72,186.182,681.486,184.739,681.486,182.2Zm5.365,1.863v-3.992a2.671,2.671,0,0,0-1.849-.8c-1.232,0-2.2,1.177-2.2,2.914,0,1.835.757,2.928,2.1,2.928A2.612,2.612,0,0,0,686.852,184.067Z" style="fill:#323333"/><path d="M690.139,182.2c0-2.465,1.668-4.006,3.433-4.006,1.933,0,3.025,1.4,3.025,3.572a5.079,5.079,0,0,1-.056.729h-5.127a2.52,2.52,0,0,0,2.521,2.662,3.276,3.276,0,0,0,1.9-.6l.463.84a4.522,4.522,0,0,1-2.521.785A3.635,3.635,0,0,1,690.139,182.2Zm5.338-.617c0-1.541-.7-2.367-1.892-2.367a2.339,2.339,0,0,0-2.185,2.367Z" style="fill:#323333"/><path d="M701.717,175.732h3.055c2.086,0,3.529.7,3.529,2.507a2.238,2.238,0,0,1-1.513,2.227v.07a2.369,2.369,0,0,1,2.1,2.451c0,2.017-1.6,3.012-3.894,3.012h-3.278Zm2.83,4.371c1.765,0,2.479-.659,2.479-1.7,0-1.2-.826-1.653-2.423-1.653H703.02V180.1Zm.266,4.86c1.766,0,2.8-.63,2.8-2.017,0-1.274-1.009-1.849-2.8-1.849H703.02v3.866Z" style="fill:#323333"/><path d="M639.672,192.825h-3.11v-1.093h7.522v1.093h-3.109V202h-1.3Z" style="fill:#323333"/><path d="M645.229,198.2c0-2.536,1.666-4.006,3.529-4.006s3.53,1.471,3.53,4.006-1.667,3.978-3.53,3.978S645.229,200.725,645.229,198.2Zm5.742,0c0-1.751-.9-2.942-2.213-2.942s-2.2,1.191-2.2,2.942.883,2.914,2.2,2.914S650.971,199.955,650.971,198.2Z" style="fill:#323333"/><path d="M654.286,190.85h1.261v7.564h.028l3.264-4.02h1.415l-2.55,3.054L660.59,202H659.2l-2.228-3.67L655.547,200v2h-1.261Z" style="fill:#323333"/><path d="M661.439,198.2c0-2.465,1.668-4.006,3.433-4.006,1.933,0,3.025,1.4,3.025,3.572a5.079,5.079,0,0,1-.056.729h-5.127a2.52,2.52,0,0,0,2.521,2.662,3.276,3.276,0,0,0,1.9-.6l.463.84a4.522,4.522,0,0,1-2.521.785A3.635,3.635,0,0,1,661.439,198.2Zm5.338-.617c0-1.541-.7-2.367-1.892-2.367a2.339,2.339,0,0,0-2.185,2.367Z" style="fill:#323333"/><path d="M669.77,194.394h1.051l.112,1.092h.042a3.65,3.65,0,0,1,2.55-1.289c1.6,0,2.325,1.037,2.325,2.984V202h-1.275v-4.65c0-1.429-.434-2.031-1.442-2.031a2.893,2.893,0,0,0-2.087,1.163V202H669.77Z" style="fill:#323333"/><path d="M678.058,195.57a.925.925,0,1,1,.925.967A.942.942,0,0,1,678.058,195.57Zm0,5.646a.927.927,0,1,1,1.849,0,.925.925,0,1,1-1.849,0Z" style="fill:#323333"/><path d="M684.68,201.244c3.222-2.815,4.707-4.861,4.707-6.625a1.806,1.806,0,0,0-1.892-2.031,2.873,2.873,0,0,0-2.129,1.19l-.742-.728a3.927,3.927,0,0,1,3.025-1.513,2.817,2.817,0,0,1,2.983,3.04c0,2.045-1.611,4.132-4.02,6.415.531-.042,1.162-.1,1.681-.1h2.843V202H684.68Z" style="fill:#323333"/><path d="M692.52,196.831c0-3.572,1.247-5.295,3.208-5.295s3.194,1.737,3.194,5.295-1.247,5.351-3.194,5.351S692.52,200.4,692.52,196.831Zm5.155,0c0-3-.784-4.258-1.947-4.258s-1.961,1.261-1.961,4.258c0,3.026.784,4.329,1.961,4.329S697.675,199.857,697.675,196.831Z" style="fill:#323333"/><path d="M700.29,196.831c0-3.572,1.247-5.295,3.208-5.295s3.193,1.737,3.193,5.295-1.246,5.351-3.193,5.351S700.29,200.4,700.29,196.831Zm5.155,0c0-3-.785-4.258-1.947-4.258-1.178,0-1.961,1.261-1.961,4.258,0,3.026.783,4.329,1.961,4.329C704.66,201.16,705.445,199.857,705.445,196.831Z" style="fill:#323333"/><path d="M708.018,197.587H711.6v.981h-3.586Z" style="fill:#323333"/><path d="M712.638,200.781l.645-.84a3.4,3.4,0,0,0,2.55,1.177,1.89,1.89,0,0,0,2.086-1.905c0-1.232-.826-2.059-3.193-2.059v-.98c2.115,0,2.844-.854,2.844-1.961a1.6,1.6,0,0,0-1.736-1.653,3.2,3.2,0,0,0-2.13,1.022l-.687-.812a4.112,4.112,0,0,1,2.871-1.233c1.724,0,2.984.925,2.984,2.578a2.56,2.56,0,0,1-1.835,2.479v.056a2.64,2.64,0,0,1,2.185,2.605,2.989,2.989,0,0,1-3.291,2.928A4.251,4.251,0,0,1,712.638,200.781Z" style="fill:#323333"/><path d="M721.514,200.333a2.321,2.321,0,0,0,1.724.785c1.331,0,2.479-1.093,2.577-4.287a3.164,3.164,0,0,1-2.367,1.275c-1.709,0-2.83-1.106-2.83-3.236a3.084,3.084,0,0,1,2.942-3.334c1.976,0,3.446,1.625,3.446,4.889,0,4.161-1.793,5.757-3.727,5.757a3.265,3.265,0,0,1-2.465-1.051Zm4.287-4.552c-.141-2.115-.925-3.236-2.241-3.236-.98,0-1.737.924-1.737,2.325s.617,2.283,1.835,2.283A2.714,2.714,0,0,0,725.8,195.781Z" style="fill:#323333"/><path d="M729.284,200.333a2.318,2.318,0,0,0,1.724.785c1.33,0,2.479-1.093,2.576-4.287a3.162,3.162,0,0,1-2.367,1.275c-1.709,0-2.829-1.106-2.829-3.236a3.083,3.083,0,0,1,2.942-3.334c1.975,0,3.445,1.625,3.445,4.889,0,4.161-1.793,5.757-3.727,5.757a3.267,3.267,0,0,1-2.465-1.051Zm4.286-4.552c-.14-2.115-.924-3.236-2.24-3.236-.981,0-1.738.924-1.738,2.325s.617,2.283,1.836,2.283A2.713,2.713,0,0,0,733.57,195.781Z" style="fill:#323333"/><path d="M483.687,290.732h1.345l3.74,6.472,1.093,2.115h.07c-.07-1.037-.168-2.186-.168-3.25v-5.337H491V301h-1.331l-3.74-6.485-1.107-2.115h-.056c.056,1.037.154,2.129.154,3.208V301h-1.232Z" style="fill:#323333"/><path d="M493.108,297.2c0-2.536,1.667-4.006,3.53-4.006s3.53,1.471,3.53,4.006-1.667,3.978-3.53,3.978S493.108,299.725,493.108,297.2Zm5.743,0c0-1.751-.9-2.942-2.213-2.942s-2.2,1.191-2.2,2.942.883,2.914,2.2,2.914S498.852,298.955,498.852,297.2Z" style="fill:#323333"/><path d="M501.62,297.2c0-2.465,1.555-4.006,3.292-4.006a3.1,3.1,0,0,1,2.143.9l-.07-1.317V289.85h1.274V301h-1.037l-.126-.9h-.028a3.393,3.393,0,0,1-2.312,1.079C502.853,301.182,501.62,299.739,501.62,297.2Zm5.365,1.863v-3.992a2.671,2.671,0,0,0-1.849-.8c-1.233,0-2.2,1.177-2.2,2.914,0,1.835.756,2.928,2.1,2.928A2.613,2.613,0,0,0,506.985,299.067Z" style="fill:#323333"/><path d="M510.272,297.2c0-2.465,1.667-4.006,3.432-4.006,1.933,0,3.025,1.4,3.025,3.572a4.933,4.933,0,0,1-.056.729h-5.126a2.52,2.52,0,0,0,2.521,2.662,3.278,3.278,0,0,0,1.905-.6l.462.84a4.525,4.525,0,0,1-2.521.785A3.635,3.635,0,0,1,510.272,297.2Zm5.337-.617c0-1.541-.7-2.367-1.891-2.367a2.34,2.34,0,0,0-2.185,2.367Z" style="fill:#323333"/><path d="M521.262,295.873c0-3.32,1.947-5.337,4.552-5.337a3.8,3.8,0,0,1,2.816,1.275l-.7.84a2.8,2.8,0,0,0-2.1-.98c-1.947,0-3.236,1.6-3.236,4.16,0,2.592,1.233,4.216,3.194,4.216a3.122,3.122,0,0,0,2.381-1.148l.714.813a3.97,3.97,0,0,1-3.152,1.471C523.181,301.182,521.262,299.207,521.262,295.873Z" style="fill:#323333"/><path d="M459.671,307.825h-3.11v-1.093h7.522v1.093h-3.11V317h-1.3Z" style="fill:#323333"/><path d="M465.228,313.2c0-2.536,1.667-4.006,3.53-4.006s3.53,1.471,3.53,4.006-1.667,3.978-3.53,3.978S465.228,315.725,465.228,313.2Zm5.743,0c0-1.751-.9-2.942-2.213-2.942s-2.2,1.191-2.2,2.942.883,2.914,2.2,2.914S470.971,314.955,470.971,313.2Z" style="fill:#323333"/><path d="M474.286,305.85h1.261v7.564h.028l3.264-4.02h1.415l-2.549,3.054L480.59,317H479.2l-2.228-3.67L475.547,315v2h-1.261Z" style="fill:#323333"/><path d="M481.44,313.2c0-2.465,1.667-4.006,3.432-4.006,1.933,0,3.025,1.4,3.025,3.572a4.933,4.933,0,0,1-.056.729h-5.126a2.52,2.52,0,0,0,2.521,2.662,3.278,3.278,0,0,0,1.905-.6l.462.84a4.525,4.525,0,0,1-2.521.785A3.635,3.635,0,0,1,481.44,313.2Zm5.337-.617c0-1.541-.7-2.367-1.891-2.367a2.34,2.34,0,0,0-2.185,2.367Z" style="fill:#323333"/><path d="M489.77,309.394h1.051l.112,1.092h.042a3.649,3.649,0,0,1,2.55-1.289c1.6,0,2.325,1.037,2.325,2.984V317h-1.275v-4.65c0-1.429-.434-2.031-1.443-2.031a2.893,2.893,0,0,0-2.087,1.163V317H489.77Z" style="fill:#323333"/><path d="M498.058,310.57a.925.925,0,1,1,.925.967A.941.941,0,0,1,498.058,310.57Zm0,5.646a.927.927,0,1,1,1.849,0,.925.925,0,1,1-1.849,0Z" style="fill:#323333"/><path d="M511.39,314.17h-1.359V317h-1.219v-2.83h-4.468v-.84l4.272-6.6h1.415v6.416h1.359Zm-2.578-1.022V310c0-.5.056-1.331.084-1.863h-.056c-.252.5-.532,1.008-.826,1.513l-2.339,3.5Z" style="fill:#323333"/><path d="M512.52,311.831c0-3.572,1.247-5.295,3.208-5.295s3.194,1.737,3.194,5.295-1.247,5.351-3.194,5.351S512.52,315.4,512.52,311.831Zm5.155,0c0-3-.785-4.258-1.947-4.258s-1.961,1.261-1.961,4.258c0,3.026.784,4.329,1.961,4.329S517.675,314.857,517.675,311.831Z" style="fill:#323333"/><path d="M520.29,311.831c0-3.572,1.247-5.295,3.208-5.295s3.194,1.737,3.194,5.295-1.247,5.351-3.194,5.351S520.29,315.4,520.29,311.831Zm5.155,0c0-3-.785-4.258-1.947-4.258s-1.961,1.261-1.961,4.258c0,3.026.784,4.329,1.961,4.329S525.445,314.857,525.445,311.831Z" style="fill:#323333"/><path d="M528.018,312.587H531.6v.981h-3.586Z" style="fill:#323333"/><path d="M532.624,315.823l.63-.84a3.378,3.378,0,0,0,2.521,1.135,2.219,2.219,0,0,0,2.185-2.423,2.078,2.078,0,0,0-2.129-2.339,2.794,2.794,0,0,0-1.709.6l-.687-.42.322-4.8h5v1.093h-3.88l-.252,2.969a3.095,3.095,0,0,1,4.622,2.858,3.334,3.334,0,0,1-3.362,3.53A4.362,4.362,0,0,1,532.624,315.823Z" style="fill:#323333"/><path d="M541.514,315.333a2.321,2.321,0,0,0,1.724.785c1.331,0,2.479-1.093,2.577-4.287a3.164,3.164,0,0,1-2.367,1.275c-1.709,0-2.83-1.106-2.83-3.236a3.083,3.083,0,0,1,2.942-3.334c1.976,0,3.446,1.625,3.446,4.889,0,4.161-1.793,5.757-3.727,5.757a3.267,3.267,0,0,1-2.465-1.051Zm4.287-4.552c-.141-2.115-.925-3.236-2.241-3.236-.98,0-1.737.924-1.737,2.325s.617,2.283,1.835,2.283A2.714,2.714,0,0,0,545.8,310.781Z" style="fill:#323333"/><path d="M549.284,315.333a2.318,2.318,0,0,0,1.724.785c1.33,0,2.479-1.093,2.576-4.287a3.162,3.162,0,0,1-2.367,1.275c-1.709,0-2.829-1.106-2.829-3.236a3.083,3.083,0,0,1,2.942-3.334c1.975,0,3.445,1.625,3.445,4.889,0,4.161-1.793,5.757-3.727,5.757a3.267,3.267,0,0,1-2.465-1.051Zm4.286-4.552c-.14-2.115-.924-3.236-2.24-3.236-.981,0-1.738.924-1.738,2.325s.617,2.283,1.836,2.283A2.713,2.713,0,0,0,553.57,310.781Z" style="fill:#323333"/><path d="M41.289,106.85h1.261v7.564h.028l3.264-4.02h1.415l-2.549,3.054L47.592,118H46.206l-2.228-3.67L42.549,116v2H41.289Z" style="fill:#231815"/><path d="M48.442,114.2c0-2.465,1.667-4.006,3.432-4.006,1.933,0,3.026,1.4,3.026,3.572a4.933,4.933,0,0,1-.056.729H49.717a2.52,2.52,0,0,0,2.521,2.662,3.278,3.278,0,0,0,1.905-.6l.462.84a4.525,4.525,0,0,1-2.521.785A3.635,3.635,0,0,1,48.442,114.2Zm5.337-.617c0-1.541-.7-2.367-1.891-2.367a2.34,2.34,0,0,0-2.185,2.367Z" style="fill:#231815"/><path d="M56,121.124l.252-1.022a1.811,1.811,0,0,0,.574.126c.869,0,1.415-.7,1.723-1.639l.168-.574-3.054-7.62H57l1.555,4.23c.224.659.49,1.443.728,2.129h.07c.21-.687.434-1.457.644-2.129l1.359-4.23H62.6l-2.872,8.236c-.532,1.5-1.316,2.647-2.83,2.647A2.342,2.342,0,0,1,56,121.124Z" style="fill:#231815"/><path d="M63.8,111.57a.925.925,0,1,1,.925.967A.941.941,0,0,1,63.8,111.57Zm0,5.646a.927.927,0,1,1,1.849,0,.925.925,0,1,1-1.849,0Z" style="fill:#231815"/><path d="M70.506,119.457a2.153,2.153,0,0,1,1.135-1.723v-.056a1.375,1.375,0,0,1-.7-1.247,1.854,1.854,0,0,1,.854-1.415v-.056a2.67,2.67,0,0,1-.995-2.045,2.709,2.709,0,0,1,2.857-2.717,3.134,3.134,0,0,1,1.064.2H77.37v.98H75.815a2.172,2.172,0,0,1,.616,1.569,2.608,2.608,0,0,1-2.773,2.647,2.648,2.648,0,0,1-1.135-.266,1.133,1.133,0,0,0-.49.91c0,.49.308.827,1.331.827h1.485c1.765,0,2.647.56,2.647,1.807,0,1.415-1.484,2.633-3.838,2.633C71.795,121.5,70.506,120.773,70.506,119.457Zm5.757-.393c0-.7-.546-.938-1.555-.938H73.392a4.278,4.278,0,0,1-.98-.126,1.6,1.6,0,0,0-.785,1.289c0,.813.827,1.345,2.213,1.345C75.3,120.633,76.263,119.863,76.263,119.064Zm-.995-6.149a1.625,1.625,0,1,0-3.236,0,1.628,1.628,0,1,0,3.236,0Z" style="fill:#231815"/><path d="M78.4,114.2c0-2.536,1.667-4.006,3.53-4.006s3.53,1.471,3.53,4.006-1.667,3.978-3.53,3.978S78.4,116.725,78.4,114.2Zm5.743,0c0-1.751-.9-2.942-2.213-2.942s-2.2,1.191-2.2,2.942.883,2.914,2.2,2.914S84.145,115.955,84.145,114.2Z" style="fill:#231815"/><path d="M86.886,114.2a3.7,3.7,0,0,1,3.67-4.006,3.254,3.254,0,0,1,2.228.9l-.659.854a2.208,2.208,0,0,0-1.527-.687c-1.373,0-2.381,1.191-2.381,2.942s.953,2.914,2.354,2.914a2.682,2.682,0,0,0,1.793-.756l.546.854a3.628,3.628,0,0,1-2.452.966C88.44,118.182,86.886,116.725,86.886,114.2Z" style="fill:#231815"/><path d="M94.586,106.85h1.275V109.9l-.042,1.569A3.57,3.57,0,0,1,98.34,110.2c1.6,0,2.326,1.037,2.326,2.984V118H99.391v-4.65c0-1.429-.434-2.031-1.443-2.031a2.893,2.893,0,0,0-2.087,1.163V118H94.586Z" style="fill:#231815"/><path d="M102.846,108a.885.885,0,0,1,1.766,0,.885.885,0,0,1-1.766,0Zm.238,2.4h1.274V118h-1.274Z" style="fill:#231815"/><path d="M106.836,115.212v-4.818h1.275v4.665c0,1.415.42,2.017,1.429,2.017.784,0,1.33-.378,2.059-1.289v-5.393h1.274V118h-1.064l-.1-1.19h-.042a3.264,3.264,0,0,1-2.521,1.373C107.551,118.182,106.836,117.146,106.836,115.212Z" style="fill:#231815"/><path d="M114.578,117.131l.63-.84a3.45,3.45,0,0,0,2.255.9c1.009,0,1.5-.532,1.5-1.19,0-.771-.9-1.121-1.736-1.443-1.065-.392-2.27-.911-2.27-2.2,0-1.2.967-2.157,2.619-2.157a3.938,3.938,0,0,1,2.367.854l-.616.827a2.859,2.859,0,0,0-1.751-.672c-.952,0-1.387.5-1.387,1.092,0,.729.826.995,1.681,1.317,1.107.42,2.326.868,2.326,2.311,0,1.233-.981,2.255-2.774,2.255A4.586,4.586,0,0,1,114.578,117.131Z" style="fill:#231815"/><path d="M121.508,116.025c0-1.653,1.442-2.479,4.679-2.843,0-.981-.322-1.919-1.569-1.919a4.193,4.193,0,0,0-2.283.813l-.5-.882a5.721,5.721,0,0,1,3-.995c1.85,0,2.634,1.247,2.634,3.124V118H126.41l-.111-.911h-.043a4.07,4.07,0,0,1-2.521,1.093A2.062,2.062,0,0,1,121.508,116.025Zm4.679.126v-2.129c-2.563.308-3.432.938-3.432,1.919,0,.869.588,1.219,1.345,1.219A3.107,3.107,0,0,0,126.187,116.151Z" style="fill:#231815"/><path d="M40.182,134.894h1.331l1.429,4.328c.238.743.477,1.527.714,2.241h.056c.224-.714.477-1.5.7-2.241l1.442-4.328h1.261l-2.7,7.606H42.928Z" style="fill:#231815"/><path d="M48.106,140.525c0-1.653,1.443-2.479,4.679-2.843,0-.981-.322-1.919-1.569-1.919a4.191,4.191,0,0,0-2.283.813l-.5-.882a5.72,5.72,0,0,1,3-.995c1.849,0,2.633,1.247,2.633,3.124V142.5H53.009l-.112-.911h-.042a4.075,4.075,0,0,1-2.521,1.093A2.062,2.062,0,0,1,48.106,140.525Zm4.679.126v-2.129c-2.563.308-3.432.938-3.432,1.919,0,.869.588,1.219,1.345,1.219A3.108,3.108,0,0,0,52.785,140.651Z" style="fill:#231815"/><path d="M56.479,140.987V131.35h1.275v9.721c0,.392.168.546.364.546a1.108,1.108,0,0,0,.266-.028l.182.98a2.008,2.008,0,0,1-.743.112C56.871,142.682,56.479,142.066,56.479,140.987Z" style="fill:#231815"/><path d="M60.37,139.712v-4.818h1.275v4.665c0,1.415.42,2.017,1.429,2.017.785,0,1.331-.378,2.059-1.289v-5.393h1.275V142.5H65.343l-.1-1.19H65.2a3.264,3.264,0,0,1-2.521,1.373C61.085,142.682,60.37,141.646,60.37,139.712Z" style="fill:#231815"/><path d="M68.392,138.7c0-2.465,1.667-4.006,3.432-4.006,1.933,0,3.025,1.4,3.025,3.572a4.933,4.933,0,0,1-.056.729H69.667a2.52,2.52,0,0,0,2.521,2.662,3.278,3.278,0,0,0,1.905-.6l.462.84a4.525,4.525,0,0,1-2.521.785A3.635,3.635,0,0,1,68.392,138.7Zm5.337-.617c0-1.541-.7-2.367-1.891-2.367a2.34,2.34,0,0,0-2.185,2.367Z" style="fill:#231815"/><path d="M76.456,136.07a.925.925,0,1,1,.925.967A.941.941,0,0,1,76.456,136.07Zm0,5.646a.927.927,0,1,1,1.849,0,.925.925,0,1,1-1.849,0Z" style="fill:#231815"/><path d="M93.906,142.332a10.3,10.3,0,0,0-3.348-2.087c.014.35.028.659.028.869,0,.953-.645,1.947-2.452,1.947-1.989,0-3.1-.715-3.1-2.06,0-1.26,1.219-2.115,3.222-2.115a7.816,7.816,0,0,1,1.163.084c-.028-.617-.056-1.275-.07-1.849h-.771c-.952,0-2.493-.084-3.488-.2V135.86a24.7,24.7,0,0,0,3.488.266h.743v-1.989h-.687c-.966,0-2.437-.112-3.264-.21v-1.037a22.083,22.083,0,0,0,3.25.266h.715v-.91a7.82,7.82,0,0,0-.042-.827h1.19a7.174,7.174,0,0,0-.07.925c-.014.168-.014.434-.014.77a30.818,30.818,0,0,0,3.558-.336l.014,1.022c-1.092.112-2.283.224-3.586.294v1.989a37.448,37.448,0,0,0,3.852-.364l.014,1.051c-1.3.168-2.536.266-3.852.322.028.714.07,1.442.1,2.1a11.383,11.383,0,0,1,4.034,2.157Zm-4.44-2.4a7.072,7.072,0,0,0-1.345-.126c-1.317,0-2.031.5-2.031,1.135s.546,1.121,1.919,1.121c.8,0,1.471-.238,1.471-1.191C89.479,140.637,89.466,140.315,89.466,139.937Z" style="fill:#231815"/><path d="M103.773,132.639c-.616.953-1.96,3.4-2.675,4.749a3.007,3.007,0,0,1,2.031-.84,1.588,1.588,0,0,1,1.639,1.695c.028.827,0,1.891.056,2.563a.989.989,0,0,0,1.106.98c1.541,0,2.452-1.905,2.815-3.376l.925.743c-.729,2.241-1.905,3.8-3.922,3.8a1.8,1.8,0,0,1-2-1.765c-.057-.812-.028-1.891-.07-2.633a.916.916,0,0,0-1.009-.966c-1.12,0-2.143,1.121-2.689,2.213a21.81,21.81,0,0,0-1.191,3.152l-1.219-.406a100.507,100.507,0,0,1,4.9-10c.154-.336.337-.672.5-1.079l1.246.5A5.609,5.609,0,0,0,103.773,132.639Z" style="fill:#231815"/><path d="M116.429,131.658c-.056.266-.126.546-.168.826-.084.406-.21,1.219-.364,1.961.645-.056,1.219-.1,1.556-.1,1.246,0,2.255.49,2.255,2.367a13.346,13.346,0,0,1-.8,5,1.962,1.962,0,0,1-2.031,1.148,8.462,8.462,0,0,1-1.639-.2l-.182-1.19a6.329,6.329,0,0,0,1.709.308,1.159,1.159,0,0,0,1.2-.714,11.516,11.516,0,0,0,.658-4.23c0-1.261-.574-1.485-1.471-1.485-.336,0-.882.042-1.484.1a27.88,27.88,0,0,1-2.914,7.438l-1.134-.462a22.019,22.019,0,0,0,2.913-6.864c-.729.07-1.387.14-1.751.182-.336.042-.9.1-1.247.168l-.111-1.219c.434.014.784.014,1.232,0s1.261-.084,2.1-.154a15.268,15.268,0,0,0,.35-3.012Zm4.763,1.583a23.462,23.462,0,0,1,2.536,4.931l-1.079.532a16.777,16.777,0,0,0-2.479-4.987Zm.574.224a17.029,17.029,0,0,0-1.134-1.947l.742-.308a20.037,20.037,0,0,1,1.162,1.919Zm1.583-.575a15.722,15.722,0,0,0-1.162-1.933l.742-.309a18.479,18.479,0,0,1,1.177,1.905Z" style="fill:#231815"/><path d="M136.677,133.521a6.1,6.1,0,0,0-.322.756,14.264,14.264,0,0,1-2.045,4.161c.532.336,1.008.658,1.358.91l-.771,1.009c-.336-.266-.8-.6-1.331-.967a13.263,13.263,0,0,1-5.49,3.726l-1.009-.868a12.281,12.281,0,0,0,5.533-3.488c-1.106-.714-2.283-1.415-3.068-1.849l.715-.827c.813.42,1.989,1.093,3.082,1.751a11.719,11.719,0,0,0,1.807-3.74h-4.763a15.2,15.2,0,0,1-3.712,3.684l-.938-.728a12.489,12.489,0,0,0,4.5-4.861,5.948,5.948,0,0,0,.448-1.121l1.261.406c-.224.364-.476.84-.616,1.106-.084.168-.182.336-.294.519h3.824a2.462,2.462,0,0,0,.924-.14Z" style="fill:#231815"/><path d="M150.522,132.4a22.009,22.009,0,0,1-3.754,3.04v6a10.62,10.62,0,0,0,.084,1.5h-1.373a13,13,0,0,0,.084-1.5v-5.295a28.044,28.044,0,0,1-5.267,2.185l-.645-1.092a22.115,22.115,0,0,0,6.262-2.578,15.443,15.443,0,0,0,3.684-3.1Z" style="fill:#231815"/><path d="M164.368,142.976c-.182-.5-.462-1.148-.771-1.835-2.171.28-6.85.8-8.727.967-.35.028-.756.1-1.162.154l-.211-1.3c.421.014.9,0,1.3-.014.211-.014.448-.028.7-.042.784-1.933,2.213-6.416,2.605-7.789a11.549,11.549,0,0,0,.279-1.345l1.387.28c-.14.35-.294.714-.476,1.3-.421,1.317-1.793,5.617-2.493,7.438,2.059-.2,4.748-.5,6.275-.7a19.937,19.937,0,0,0-1.7-2.872l1.051-.477a38.065,38.065,0,0,1,3.1,5.7Z" style="fill:#231815"/><path d="M178.467,135.958a18.55,18.55,0,0,1-2.354.588c.406.882.854,1.821,1.246,2.549l-.546.687c-.7-.126-1.821-.28-2.7-.393l.1-.854c.673.084,1.331.154,1.765.2-.266-.546-.588-1.275-.91-2a33.37,33.37,0,0,1-6.205.126l-.042-1.022a27.689,27.689,0,0,0,5.827-.028l-.49-1.134c-.112-.238-.21-.49-.309-.714a28.427,28.427,0,0,1-4.874-.028l-.07-1.022a25.255,25.255,0,0,0,4.538.112c-.07-.154-.126-.294-.182-.42a10.05,10.05,0,0,0-.519-.98L174,131.35a14.27,14.27,0,0,0,.519,1.541,15.617,15.617,0,0,0,2.759-.658l.2.995a19.183,19.183,0,0,1-2.577.588l.252.574c.112.294.309.729.547,1.247a14.42,14.42,0,0,0,2.563-.687Zm-7.971,2.886a4.746,4.746,0,0,0-.322,1.415c0,1.064.841,1.737,2.815,1.737a16.657,16.657,0,0,0,3.418-.322l-.028,1.135a21.453,21.453,0,0,1-3.348.266c-2.479,0-3.936-.854-3.936-2.591a6.252,6.252,0,0,1,.322-1.737Z" style="fill:#231815"/><path d="M184.328,137.948a6.566,6.566,0,0,1,4.482-1.667c2.129,0,3.544,1.274,3.544,2.9,0,2.493-2.2,4.174-7.354,3.74l-.336-1.149c4.37.532,6.514-.729,6.514-2.619,0-1.107-1.022-1.877-2.437-1.877a5.388,5.388,0,0,0-4.286,1.835,2.87,2.87,0,0,0-.42.7l-1.051-.252a49.028,49.028,0,0,0,.7-5.631l1.19.154C184.692,135.034,184.454,137.051,184.328,137.948Zm.854-6.388a37.019,37.019,0,0,0,5.364,1.064l-.266,1.093c-1.316-.182-4.328-.8-5.393-1.093Z" style="fill:#231815"/><path d="M198.328,137.948a6.566,6.566,0,0,1,4.482-1.667c2.129,0,3.544,1.274,3.544,2.9,0,2.493-2.2,4.174-7.354,3.74l-.336-1.149c4.37.532,6.514-.729,6.514-2.619,0-1.107-1.022-1.877-2.437-1.877a5.388,5.388,0,0,0-4.286,1.835,2.87,2.87,0,0,0-.42.7l-1.051-.252a49.028,49.028,0,0,0,.7-5.631l1.19.154C198.692,135.034,198.454,137.051,198.328,137.948Zm.854-6.388a37.019,37.019,0,0,0,5.364,1.064l-.266,1.093c-1.316-.182-4.328-.8-5.393-1.093Z" style="fill:#231815"/><path d="M213.362,132.232h1.569l1.975,5.491c.238.714.477,1.429.729,2.143h.07c.238-.714.462-1.429.7-2.143l1.961-5.491h1.569V142.5h-1.219v-5.687c0-.882.1-2.129.168-3.026h-.056l-.812,2.339-1.947,5.337H217.2l-1.947-5.337-.812-2.339h-.057c.057.9.154,2.144.154,3.026V142.5h-1.177Z" style="fill:#231815"/><path d="M229.438,139.362h-3.754l-1,3.138h-1.316l3.488-10.268H228.3l3.488,10.268h-1.373Zm-.322-1.037-.49-1.569c-.378-1.163-.7-2.283-1.037-3.474h-.056c-.322,1.2-.658,2.311-1.022,3.474l-.5,1.569Z" style="fill:#231815"/><path d="M235.063,137.191l-2.8-4.958h1.429l1.4,2.62c.267.476.477.91.813,1.5h.056c.28-.588.477-1.022.729-1.5l1.373-2.62h1.358l-2.8,5.029,3,5.239h-1.429l-1.513-2.773c-.267-.5-.546-1.037-.883-1.653h-.056c-.294.616-.561,1.148-.826,1.653l-1.485,2.773h-1.358Z" style="fill:#231815"/><path d="M41.289,155.85h1.275V158.9l-.042,1.569a3.57,3.57,0,0,1,2.521-1.275c1.6,0,2.325,1.037,2.325,2.984V167H46.093v-4.65c0-1.429-.434-2.031-1.443-2.031a2.893,2.893,0,0,0-2.087,1.163V167H41.289Z" style="fill:#231815"/><path d="M49.311,165.025c0-1.653,1.443-2.479,4.679-2.843,0-.981-.322-1.919-1.569-1.919a4.191,4.191,0,0,0-2.283.813l-.5-.882a5.72,5.72,0,0,1,3-.995c1.849,0,2.633,1.247,2.633,3.124V167H54.213l-.112-.911h-.042a4.075,4.075,0,0,1-2.521,1.093A2.062,2.062,0,0,1,49.311,165.025Zm4.679.126v-2.129c-2.563.308-3.432.938-3.432,1.919,0,.869.588,1.219,1.345,1.219A3.108,3.108,0,0,0,53.989,165.151Z" style="fill:#231815"/><path d="M56.828,166.131l.63-.84a3.451,3.451,0,0,0,2.255.9c1.008,0,1.5-.532,1.5-1.19,0-.771-.9-1.121-1.737-1.443-1.064-.392-2.269-.911-2.269-2.2,0-1.2.966-2.157,2.619-2.157a3.941,3.941,0,0,1,2.368.854l-.617.827a2.859,2.859,0,0,0-1.751-.672c-.952,0-1.387.5-1.387,1.092,0,.729.827.995,1.681,1.317,1.106.42,2.325.868,2.325,2.311,0,1.233-.98,2.255-2.773,2.255A4.588,4.588,0,0,1,56.828,166.131Z" style="fill:#231815"/><path d="M64.234,155.85h1.275V158.9l-.042,1.569a3.57,3.57,0,0,1,2.521-1.275c1.6,0,2.326,1.037,2.326,2.984V167H69.039v-4.65c0-1.429-.434-2.031-1.443-2.031a2.893,2.893,0,0,0-2.087,1.163V167H64.234Z" style="fill:#231815"/><path d="M72.732,162.644a13.081,13.081,0,0,1,2.059-7.1l.8.364a13.556,13.556,0,0,0,0,13.475l-.8.378A13.13,13.13,0,0,1,72.732,162.644Z" style="fill:#231815"/><path d="M76.876,168.457a2.153,2.153,0,0,1,1.135-1.723v-.056a1.375,1.375,0,0,1-.7-1.247,1.854,1.854,0,0,1,.854-1.415v-.056a2.67,2.67,0,0,1-.995-2.045,2.709,2.709,0,0,1,2.857-2.717,3.134,3.134,0,0,1,1.064.2H83.74v.98H82.185a2.172,2.172,0,0,1,.616,1.569,2.608,2.608,0,0,1-2.773,2.647,2.648,2.648,0,0,1-1.135-.266,1.133,1.133,0,0,0-.49.91c0,.49.308.827,1.331.827h1.485c1.765,0,2.647.56,2.647,1.807,0,1.415-1.484,2.633-3.838,2.633C78.165,170.5,76.876,169.773,76.876,168.457Zm5.757-.393c0-.7-.546-.938-1.555-.938H79.762a4.278,4.278,0,0,1-.98-.126A1.6,1.6,0,0,0,78,168.289c0,.813.827,1.345,2.213,1.345C81.667,169.633,82.633,168.863,82.633,168.064Zm-.995-6.149a1.625,1.625,0,1,0-3.236,0,1.628,1.628,0,1,0,3.236,0Z" style="fill:#231815"/><path d="M84.772,163.2c0-2.536,1.667-4.006,3.53-4.006s3.53,1.471,3.53,4.006-1.667,3.978-3.53,3.978S84.772,165.725,84.772,163.2Zm5.743,0c0-1.751-.9-2.942-2.213-2.942s-2.2,1.191-2.2,2.942.883,2.914,2.2,2.914S90.515,164.955,90.515,163.2Z" style="fill:#231815"/><path d="M93.256,163.2a3.7,3.7,0,0,1,3.67-4.006,3.254,3.254,0,0,1,2.228.9l-.659.854a2.208,2.208,0,0,0-1.527-.687c-1.373,0-2.381,1.191-2.381,2.942s.953,2.914,2.354,2.914a2.682,2.682,0,0,0,1.793-.756l.546.854a3.628,3.628,0,0,1-2.452.966C94.811,167.182,93.256,165.725,93.256,163.2Z" style="fill:#231815"/><path d="M100.956,155.85h1.274V158.9l-.042,1.569a3.573,3.573,0,0,1,2.521-1.275c1.6,0,2.325,1.037,2.325,2.984V167h-1.274v-4.65c0-1.429-.435-2.031-1.442-2.031a2.893,2.893,0,0,0-2.088,1.163V167h-1.274Z" style="fill:#231815"/><path d="M109.216,157a.884.884,0,0,1,1.765,0,.884.884,0,0,1-1.765,0Zm.238,2.4h1.274V167h-1.274Z" style="fill:#231815"/><path d="M113.205,164.212v-4.818h1.275v4.665c0,1.415.42,2.017,1.429,2.017.784,0,1.33-.378,2.059-1.289v-5.393h1.274V167h-1.064l-.1-1.19h-.042a3.264,3.264,0,0,1-2.521,1.373C113.92,167.182,113.205,166.146,113.205,164.212Z" style="fill:#231815"/><path d="M120.947,166.131l.63-.84a3.45,3.45,0,0,0,2.255.9c1.009,0,1.5-.532,1.5-1.19,0-.771-.9-1.121-1.736-1.443-1.065-.392-2.27-.911-2.27-2.2,0-1.2.967-2.157,2.619-2.157a3.938,3.938,0,0,1,2.367.854l-.616.827a2.859,2.859,0,0,0-1.751-.672c-.952,0-1.387.5-1.387,1.092,0,.729.826.995,1.681,1.317,1.107.42,2.326.868,2.326,2.311,0,1.233-.981,2.255-2.774,2.255A4.586,4.586,0,0,1,120.947,166.131Z" style="fill:#231815"/><path d="M127.877,165.025c0-1.653,1.442-2.479,4.679-2.843,0-.981-.322-1.919-1.569-1.919a4.193,4.193,0,0,0-2.283.813l-.5-.882a5.721,5.721,0,0,1,3-.995c1.85,0,2.634,1.247,2.634,3.124V167h-1.051l-.111-.911h-.043a4.07,4.07,0,0,1-2.521,1.093A2.062,2.062,0,0,1,127.877,165.025Zm4.679.126v-2.129c-2.563.308-3.432.938-3.432,1.919,0,.869.588,1.219,1.345,1.219A3.107,3.107,0,0,0,132.556,165.151Z" style="fill:#231815"/><path d="M135.563,169.381a13.556,13.556,0,0,0,0-13.475l.784-.364a13.224,13.224,0,0,1,0,14.217Z" style="fill:#231815"/><path d="M143.36,159.688h6.71v.953h-6.71Zm0,3.348h6.71v.953h-6.71Z" style="fill:#231815"/><path d="M155.246,165.333a2.318,2.318,0,0,0,1.723.785c1.331,0,2.479-1.093,2.578-4.287a3.165,3.165,0,0,1-2.367,1.275c-1.709,0-2.83-1.106-2.83-3.236a3.083,3.083,0,0,1,2.941-3.334c1.976,0,3.446,1.625,3.446,4.889,0,4.161-1.793,5.757-3.727,5.757a3.265,3.265,0,0,1-2.465-1.051Zm4.286-4.552c-.14-2.115-.924-3.236-2.241-3.236-.98,0-1.736.924-1.736,2.325s.616,2.283,1.835,2.283A2.713,2.713,0,0,0,159.532,160.781Z" style="fill:#231815"/><path d="M162.735,165.936h2.283v-7.662H163.2v-.812a6.5,6.5,0,0,0,2.129-.729h.98v9.2h2.059V167h-5.631Z" style="fill:#231815"/><path d="M176.6,164.17h-1.359V167h-1.218v-2.83h-4.469v-.84l4.272-6.6h1.414v6.416H176.6Zm-2.577-1.022V160c0-.5.056-1.331.084-1.863h-.057c-.252.5-.532,1.008-.826,1.513l-2.339,3.5Z" style="fill:#231815"/><path d="M224,112q1.458-.9,3.015-1.77" style="fill:none;stroke:#71c7d5;stroke-miterlimit:10;stroke-width:4px"/><path d="M233.215,107.066C265.656,91.9,321.2,85.5,366.577,93.675" style="fill:none;stroke:#71c7d5;stroke-miterlimit:10;stroke-width:4px;stroke-dasharray:6.963405609130859,6.963405609130859"/><path d="M370.008,94.325q1.724.343,3.426.715" style="fill:none;stroke:#71c7d5;stroke-miterlimit:10;stroke-width:4px"/><polygon points="366.185 101.014 371.004 94.57 369.711 86.627 385 98 366.185 101.014" style="fill:#71c7d5"/><path d="M507.5,35a125,125,0,1,1-125,125A124.928,124.928,0,0,1,507.5,35Z" style="fill:#666;stroke:#fff;stroke-miterlimit:10;stroke-width:5px"/><path d="M418.214,160A89.286,89.286,0,1,0,507.5,70.714,89.234,89.234,0,0,0,418.214,160Z" style="fill:#fff;stroke:#fff;stroke-miterlimit:10;stroke-width:5px"/><line x1="507.5" y1="160" x2="507.5" y2="35" style="fill:#666;stroke:#fff;stroke-miterlimit:10;stroke-width:5px"/><line x1="507.5" y1="160" x2="388.618" y2="121.373" style="fill:#666;stroke:#fff;stroke-miterlimit:10;stroke-width:5px"/><line x1="507.5" y1="160" x2="434.027" y2="261.127" style="fill:#666;stroke:#fff;stroke-miterlimit:10;stroke-width:5px"/><line x1="507.5" y1="160" x2="580.973" y2="261.127" style="fill:#666;stroke:#fff;stroke-miterlimit:10;stroke-width:5px"/><line x1="507.5" y1="160" x2="626.382" y2="121.373" style="fill:#666;stroke:#fff;stroke-miterlimit:10;stroke-width:5px"/><path d="M109.289,218.85h1.261v7.564h.028l3.264-4.02h1.415l-2.549,3.054L115.592,230h-1.387l-2.228-3.67L110.549,228v2h-1.261Z" style="fill:#231815"/><path d="M116.442,226.2c0-2.465,1.667-4.006,3.432-4.006,1.933,0,3.026,1.4,3.026,3.572a4.933,4.933,0,0,1-.056.729h-5.126a2.52,2.52,0,0,0,2.521,2.662,3.278,3.278,0,0,0,1.905-.6l.462.84a4.525,4.525,0,0,1-2.521.785A3.635,3.635,0,0,1,116.442,226.2Zm5.337-.617c0-1.541-.7-2.367-1.891-2.367a2.34,2.34,0,0,0-2.185,2.367Z" style="fill:#231815"/><path d="M124,233.124l.252-1.022a1.811,1.811,0,0,0,.574.126c.869,0,1.415-.7,1.723-1.639l.168-.574-3.054-7.62H125l1.555,4.23c.224.659.49,1.443.728,2.129h.07c.21-.687.434-1.457.644-2.129l1.359-4.23H130.6l-2.872,8.236c-.532,1.5-1.316,2.647-2.83,2.647A2.342,2.342,0,0,1,124,233.124Z" style="fill:#231815"/><path d="M131.8,223.57a.925.925,0,1,1,.925.967A.941.941,0,0,1,131.8,223.57Zm0,5.646a.927.927,0,1,1,1.849,0,.925.925,0,1,1-1.849,0Z" style="fill:#231815"/><path d="M138.324,233.124l.252-1.022a1.811,1.811,0,0,0,.574.126c.869,0,1.415-.7,1.723-1.639l.168-.574-3.054-7.62h1.331l1.555,4.23c.224.659.49,1.443.728,2.129h.07c.21-.687.434-1.457.644-2.129l1.359-4.23h1.247l-2.872,8.236c-.532,1.5-1.316,2.647-2.83,2.647A2.342,2.342,0,0,1,138.324,233.124Z" style="fill:#231815"/><path d="M146.29,227.212v-4.818h1.275v4.665c0,1.415.42,2.017,1.429,2.017.785,0,1.331-.378,2.059-1.289v-5.393h1.275V230h-1.065l-.1-1.19h-.042a3.264,3.264,0,0,1-2.521,1.373C147,230.182,146.29,229.146,146.29,227.212Z" style="fill:#231815"/><path d="M154.116,233.124l.252-1.022a1.811,1.811,0,0,0,.574.126c.869,0,1.415-.7,1.723-1.639l.168-.574-3.054-7.62h1.331l1.555,4.23c.224.659.49,1.443.728,2.129h.07c.21-.687.434-1.457.644-2.129l1.359-4.23h1.247l-2.872,8.236c-.532,1.5-1.316,2.647-2.83,2.647A2.342,2.342,0,0,1,154.116,233.124Z" style="fill:#231815"/><path d="M162.082,227.212v-4.818h1.275v4.665c0,1.415.42,2.017,1.429,2.017.785,0,1.331-.378,2.059-1.289v-5.393h1.275V230h-1.065l-.1-1.19h-.042a3.264,3.264,0,0,1-2.521,1.373C162.8,230.182,162.082,229.146,162.082,227.212Z" style="fill:#231815"/><path d="M169.824,229.131l.63-.84a3.45,3.45,0,0,0,2.255.9c1.009,0,1.5-.532,1.5-1.19,0-.771-.9-1.121-1.736-1.443-1.065-.392-2.27-.911-2.27-2.2,0-1.2.967-2.157,2.619-2.157a3.938,3.938,0,0,1,2.367.854l-.616.827a2.859,2.859,0,0,0-1.751-.672c-.952,0-1.387.5-1.387,1.092,0,.729.826.995,1.681,1.317,1.107.42,2.326.868,2.326,2.311,0,1.233-.981,2.255-2.774,2.255A4.588,4.588,0,0,1,169.824,229.131Z" style="fill:#231815"/><path d="M177.23,218.85H178.5V221.9l-.042,1.569a3.569,3.569,0,0,1,2.521-1.275c1.6,0,2.325,1.037,2.325,2.984V230h-1.274v-4.65c0-1.429-.435-2.031-1.443-2.031a2.893,2.893,0,0,0-2.087,1.163V230H177.23Z" style="fill:#231815"/><path d="M185.49,220a.884.884,0,0,1,1.765,0,.884.884,0,0,1-1.765,0Zm.238,2.4H187V230h-1.274Z" style="fill:#231815"/><path d="M189.578,218.85h1.261v7.564h.027l3.264-4.02h1.415L193,225.448,195.881,230h-1.387l-2.227-3.67L190.839,228v2h-1.261Z" style="fill:#231815"/><path d="M197.067,220a.884.884,0,0,1,1.765,0,.884.884,0,0,1-1.765,0Zm.238,2.4h1.274V230h-1.274Z" style="fill:#231815"/><path d="M108.182,246.894h1.331l1.429,4.328c.238.743.477,1.527.714,2.241h.056c.224-.714.477-1.5.7-2.241l1.442-4.328h1.261l-2.7,7.606h-1.485Z" style="fill:#231815"/><path d="M116.106,252.525c0-1.653,1.443-2.479,4.679-2.843,0-.981-.322-1.919-1.569-1.919a4.191,4.191,0,0,0-2.283.813l-.5-.882a5.72,5.72,0,0,1,3-.995c1.849,0,2.633,1.247,2.633,3.124V254.5h-1.051l-.112-.911h-.042a4.075,4.075,0,0,1-2.521,1.093A2.062,2.062,0,0,1,116.106,252.525Zm4.679.126v-2.129c-2.563.308-3.432.938-3.432,1.919,0,.869.588,1.219,1.345,1.219A3.108,3.108,0,0,0,120.785,252.651Z" style="fill:#231815"/><path d="M124.479,252.987V243.35h1.275v9.721c0,.392.168.546.364.546a1.108,1.108,0,0,0,.266-.028l.182.98a2.008,2.008,0,0,1-.743.112C124.871,254.682,124.479,254.066,124.479,252.987Z" style="fill:#231815"/><path d="M128.37,251.712v-4.818h1.275v4.665c0,1.415.42,2.017,1.429,2.017.785,0,1.331-.378,2.059-1.289v-5.393h1.275V254.5h-1.065l-.1-1.19H133.2a3.264,3.264,0,0,1-2.521,1.373C129.085,254.682,128.37,253.646,128.37,251.712Z" style="fill:#231815"/><path d="M136.392,250.7c0-2.465,1.667-4.006,3.432-4.006,1.933,0,3.025,1.4,3.025,3.572a4.933,4.933,0,0,1-.056.729h-5.126a2.52,2.52,0,0,0,2.521,2.662,3.278,3.278,0,0,0,1.905-.6l.462.84a4.525,4.525,0,0,1-2.521.785A3.635,3.635,0,0,1,136.392,250.7Zm5.337-.617c0-1.541-.7-2.367-1.891-2.367a2.34,2.34,0,0,0-2.185,2.367Z" style="fill:#231815"/><path d="M144.456,248.07a.925.925,0,1,1,.925.967A.941.941,0,0,1,144.456,248.07Zm0,5.646a.927.927,0,1,1,1.849,0,.925.925,0,1,1-1.849,0Z" style="fill:#231815"/><path d="M161.906,254.332a10.3,10.3,0,0,0-3.348-2.087c.014.35.028.659.028.869,0,.953-.645,1.947-2.452,1.947-1.989,0-3.1-.715-3.1-2.06,0-1.26,1.219-2.115,3.222-2.115a7.816,7.816,0,0,1,1.163.084c-.028-.617-.056-1.275-.07-1.849h-.771c-.952,0-2.493-.084-3.488-.2V247.86a24.7,24.7,0,0,0,3.488.266h.743v-1.989h-.687c-.966,0-2.437-.112-3.264-.21v-1.037a22.083,22.083,0,0,0,3.25.266h.715v-.91a7.82,7.82,0,0,0-.042-.827h1.19a7.174,7.174,0,0,0-.07.925c-.014.168-.014.434-.014.77a30.818,30.818,0,0,0,3.558-.336l.014,1.022c-1.092.112-2.283.224-3.586.294v1.989a37.448,37.448,0,0,0,3.852-.364l.014,1.051c-1.3.168-2.536.266-3.852.322.028.714.07,1.442.1,2.1a11.383,11.383,0,0,1,4.034,2.157Zm-4.44-2.4a7.072,7.072,0,0,0-1.345-.126c-1.317,0-2.031.5-2.031,1.135s.546,1.121,1.919,1.121c.8,0,1.471-.238,1.471-1.191C157.479,252.637,157.466,252.315,157.466,251.937Z" style="fill:#231815"/><path d="M171.773,244.639c-.616.953-1.96,3.4-2.675,4.749a3.007,3.007,0,0,1,2.031-.84,1.588,1.588,0,0,1,1.639,1.695c.028.827,0,1.891.056,2.563a.989.989,0,0,0,1.106.98c1.541,0,2.452-1.905,2.815-3.376l.925.743c-.729,2.241-1.905,3.8-3.922,3.8a1.8,1.8,0,0,1-2-1.765c-.057-.812-.028-1.891-.07-2.633a.916.916,0,0,0-1.009-.966c-1.12,0-2.143,1.121-2.689,2.213a21.81,21.81,0,0,0-1.191,3.152l-1.219-.406a100.507,100.507,0,0,1,4.9-10c.154-.336.337-.672.5-1.079l1.246.5A5.609,5.609,0,0,0,171.773,244.639Z" style="fill:#231815"/><path d="M184.429,243.658c-.056.266-.126.546-.168.826-.084.406-.21,1.219-.364,1.961.645-.056,1.219-.1,1.556-.1,1.246,0,2.255.49,2.255,2.367a13.346,13.346,0,0,1-.8,5,1.962,1.962,0,0,1-2.031,1.148,8.462,8.462,0,0,1-1.639-.2l-.182-1.19a6.329,6.329,0,0,0,1.709.308,1.159,1.159,0,0,0,1.2-.714,11.516,11.516,0,0,0,.658-4.23c0-1.261-.574-1.485-1.471-1.485-.336,0-.882.042-1.484.1a27.88,27.88,0,0,1-2.914,7.438l-1.134-.462a22.019,22.019,0,0,0,2.913-6.864c-.729.07-1.387.14-1.751.182-.336.042-.9.1-1.247.168l-.111-1.219c.434.014.784.014,1.232,0s1.261-.084,2.1-.154a15.268,15.268,0,0,0,.35-3.012Zm4.763,1.583a23.462,23.462,0,0,1,2.536,4.931l-1.079.532a16.777,16.777,0,0,0-2.479-4.987Zm.574.224a17.029,17.029,0,0,0-1.134-1.947l.742-.308a20.037,20.037,0,0,1,1.162,1.919Zm1.583-.575a15.722,15.722,0,0,0-1.162-1.933l.742-.309a18.479,18.479,0,0,1,1.177,1.905Z" style="fill:#231815"/><path d="M204.677,245.521a6.1,6.1,0,0,0-.322.756,14.264,14.264,0,0,1-2.045,4.161c.532.336,1.008.658,1.358.91l-.771,1.009c-.336-.266-.8-.6-1.331-.967a13.263,13.263,0,0,1-5.49,3.726l-1.009-.868a12.281,12.281,0,0,0,5.533-3.488c-1.106-.714-2.283-1.415-3.068-1.849l.715-.827c.813.42,1.989,1.093,3.082,1.751a11.719,11.719,0,0,0,1.807-3.74h-4.763a15.2,15.2,0,0,1-3.712,3.684l-.938-.728a12.489,12.489,0,0,0,4.5-4.861,5.948,5.948,0,0,0,.448-1.121l1.261.406c-.224.364-.476.84-.616,1.106-.084.168-.182.336-.294.519h3.824a2.462,2.462,0,0,0,.924-.14Z" style="fill:#231815"/><path d="M218.522,244.4a22.009,22.009,0,0,1-3.754,3.04v6a10.62,10.62,0,0,0,.084,1.5h-1.373a13,13,0,0,0,.084-1.5v-5.295a28.044,28.044,0,0,1-5.267,2.185l-.645-1.092a22.115,22.115,0,0,0,6.262-2.578,15.443,15.443,0,0,0,3.684-3.1Z" style="fill:#231815"/><path d="M232.368,254.976c-.182-.5-.462-1.148-.771-1.835-2.171.28-6.85.8-8.727.967-.35.028-.756.1-1.162.154l-.211-1.3c.421.014.9,0,1.3-.014.211-.014.448-.028.7-.042.784-1.933,2.213-6.416,2.605-7.789a11.549,11.549,0,0,0,.279-1.345l1.387.28c-.14.35-.294.714-.476,1.3-.421,1.317-1.793,5.617-2.493,7.438,2.059-.2,4.748-.5,6.275-.7a19.937,19.937,0,0,0-1.7-2.872l1.051-.477a38.065,38.065,0,0,1,3.1,5.7Z" style="fill:#231815"/><path d="M246.467,247.958a18.55,18.55,0,0,1-2.354.588c.406.882.854,1.821,1.246,2.549l-.546.687c-.7-.126-1.821-.28-2.7-.393l.1-.854c.673.084,1.331.154,1.765.2-.266-.546-.588-1.275-.91-2a33.37,33.37,0,0,1-6.205.126l-.042-1.022a27.689,27.689,0,0,0,5.827-.028l-.49-1.134c-.112-.238-.21-.49-.309-.714a28.427,28.427,0,0,1-4.874-.028l-.07-1.022a25.255,25.255,0,0,0,4.538.112c-.07-.154-.126-.294-.182-.42a10.05,10.05,0,0,0-.519-.98L242,243.35a14.27,14.27,0,0,0,.519,1.541,15.617,15.617,0,0,0,2.759-.658l.2.995a19.183,19.183,0,0,1-2.577.588l.252.574c.112.294.309.729.547,1.247a14.42,14.42,0,0,0,2.563-.687Zm-7.971,2.886a4.746,4.746,0,0,0-.322,1.415c0,1.064.841,1.737,2.815,1.737a16.657,16.657,0,0,0,3.418-.322l-.028,1.135a21.453,21.453,0,0,1-3.348.266c-2.479,0-3.936-.854-3.936-2.591a6.252,6.252,0,0,1,.322-1.737Z" style="fill:#231815"/><path d="M252.328,249.948a6.566,6.566,0,0,1,4.482-1.667c2.129,0,3.544,1.274,3.544,2.9,0,2.493-2.2,4.174-7.354,3.74l-.336-1.149c4.37.532,6.514-.729,6.514-2.619,0-1.107-1.022-1.877-2.437-1.877a5.388,5.388,0,0,0-4.286,1.835,2.87,2.87,0,0,0-.42.7l-1.051-.252a49.028,49.028,0,0,0,.7-5.631l1.19.154C252.692,247.034,252.454,249.051,252.328,249.948Zm.854-6.388a37.019,37.019,0,0,0,5.364,1.064l-.266,1.093c-1.316-.182-4.328-.8-5.393-1.093Z" style="fill:#231815"/><path d="M266.328,249.948a6.566,6.566,0,0,1,4.482-1.667c2.129,0,3.544,1.274,3.544,2.9,0,2.493-2.2,4.174-7.354,3.74l-.336-1.149c4.37.532,6.514-.729,6.514-2.619,0-1.107-1.022-1.877-2.437-1.877a5.388,5.388,0,0,0-4.286,1.835,2.87,2.87,0,0,0-.42.7l-1.051-.252a49.028,49.028,0,0,0,.7-5.631l1.19.154C266.692,247.034,266.454,249.051,266.328,249.948Zm.854-6.388a37.019,37.019,0,0,0,5.364,1.064l-.266,1.093c-1.316-.182-4.328-.8-5.393-1.093Z" style="fill:#231815"/><path d="M109.289,267.85h1.275V270.9l-.042,1.569a3.57,3.57,0,0,1,2.521-1.275c1.6,0,2.325,1.037,2.325,2.984V279h-1.275v-4.65c0-1.429-.434-2.031-1.443-2.031a2.893,2.893,0,0,0-2.087,1.163V279h-1.275Z" style="fill:#231815"/><path d="M117.311,277.025c0-1.653,1.443-2.479,4.679-2.843,0-.981-.322-1.919-1.569-1.919a4.191,4.191,0,0,0-2.283.813l-.5-.882a5.72,5.72,0,0,1,3-.995c1.849,0,2.633,1.247,2.633,3.124V279h-1.051l-.112-.911h-.042a4.075,4.075,0,0,1-2.521,1.093A2.062,2.062,0,0,1,117.311,277.025Zm4.679.126v-2.129c-2.563.308-3.432.938-3.432,1.919,0,.869.588,1.219,1.345,1.219A3.108,3.108,0,0,0,121.989,277.151Z" style="fill:#231815"/><path d="M124.828,278.131l.63-.84a3.451,3.451,0,0,0,2.255.9c1.008,0,1.5-.532,1.5-1.19,0-.771-.9-1.121-1.737-1.443-1.064-.392-2.269-.911-2.269-2.2,0-1.2.966-2.157,2.619-2.157a3.941,3.941,0,0,1,2.368.854l-.617.827a2.859,2.859,0,0,0-1.751-.672c-.952,0-1.387.5-1.387,1.092,0,.729.827.995,1.681,1.317,1.106.42,2.325.868,2.325,2.311,0,1.233-.98,2.255-2.773,2.255A4.588,4.588,0,0,1,124.828,278.131Z" style="fill:#231815"/><path d="M132.234,267.85h1.275V270.9l-.042,1.569a3.57,3.57,0,0,1,2.521-1.275c1.6,0,2.326,1.037,2.326,2.984V279h-1.275v-4.65c0-1.429-.434-2.031-1.443-2.031a2.893,2.893,0,0,0-2.087,1.163V279h-1.275Z" style="fill:#231815"/><path d="M140.732,274.644a13.081,13.081,0,0,1,2.059-7.1l.8.364a13.556,13.556,0,0,0,0,13.475l-.8.378A13.13,13.13,0,0,1,140.732,274.644Z" style="fill:#231815"/><path d="M144.694,282.124l.252-1.022a1.811,1.811,0,0,0,.574.126c.869,0,1.415-.7,1.723-1.639l.168-.574-3.054-7.62h1.331l1.555,4.23c.224.659.49,1.443.728,2.129h.07c.21-.687.434-1.457.644-2.129l1.359-4.23h1.247l-2.872,8.236c-.532,1.5-1.316,2.647-2.83,2.647A2.342,2.342,0,0,1,144.694,282.124Z" style="fill:#231815"/><path d="M152.66,276.212v-4.818h1.275v4.665c0,1.415.42,2.017,1.429,2.017.785,0,1.331-.378,2.059-1.289v-5.393H158.7V279h-1.065l-.1-1.19h-.042a3.264,3.264,0,0,1-2.521,1.373C153.375,279.182,152.66,278.146,152.66,276.212Z" style="fill:#231815"/><path d="M160.486,282.124l.252-1.022a1.811,1.811,0,0,0,.574.126c.869,0,1.415-.7,1.723-1.639l.168-.574-3.054-7.62h1.331l1.555,4.23c.224.659.49,1.443.728,2.129h.07c.21-.687.434-1.457.644-2.129l1.359-4.23h1.247l-2.872,8.236c-.532,1.5-1.316,2.647-2.83,2.647A2.342,2.342,0,0,1,160.486,282.124Z" style="fill:#231815"/><path d="M168.452,276.212v-4.818h1.275v4.665c0,1.415.42,2.017,1.429,2.017.784,0,1.33-.378,2.059-1.289v-5.393h1.274V279h-1.064l-.1-1.19h-.042a3.264,3.264,0,0,1-2.521,1.373C169.167,279.182,168.452,278.146,168.452,276.212Z" style="fill:#231815"/><path d="M176.194,278.131l.63-.84a3.45,3.45,0,0,0,2.255.9c1.009,0,1.5-.532,1.5-1.19,0-.771-.9-1.121-1.736-1.443-1.064-.392-2.27-.911-2.27-2.2,0-1.2.967-2.157,2.619-2.157a3.938,3.938,0,0,1,2.367.854l-.616.827a2.859,2.859,0,0,0-1.751-.672c-.952,0-1.387.5-1.387,1.092,0,.729.826.995,1.681,1.317,1.107.42,2.325.868,2.325,2.311,0,1.233-.98,2.255-2.773,2.255A4.586,4.586,0,0,1,176.194,278.131Z" style="fill:#231815"/><path d="M183.6,267.85h1.274V270.9l-.042,1.569a3.569,3.569,0,0,1,2.521-1.275c1.6,0,2.325,1.037,2.325,2.984V279h-1.274v-4.65c0-1.429-.435-2.031-1.443-2.031a2.893,2.893,0,0,0-2.087,1.163V279H183.6Z" style="fill:#231815"/><path d="M191.86,269a.884.884,0,0,1,1.765,0,.884.884,0,0,1-1.765,0Zm.238,2.4h1.274V279H192.1Z" style="fill:#231815"/><path d="M195.948,267.85h1.261v7.564h.027l3.264-4.02h1.415l-2.55,3.054L202.251,279h-1.387l-2.227-3.67L197.209,277v2h-1.261Z" style="fill:#231815"/><path d="M203.438,269a.884.884,0,0,1,1.765,0,.884.884,0,0,1-1.765,0Zm.238,2.4h1.274V279h-1.274Z" style="fill:#231815"/><path d="M206.839,281.381a13.556,13.556,0,0,0,0-13.475l.784-.364a13.224,13.224,0,0,1,0,14.217Z" style="fill:#231815"/><path d="M214.637,271.688h6.71v.953h-6.71Zm0,3.348h6.71v.953h-6.71Z" style="fill:#231815"/><path d="M225.416,277.781l.645-.84a3.4,3.4,0,0,0,2.549,1.177,1.891,1.891,0,0,0,2.088-1.905c0-1.232-.827-2.059-3.194-2.059v-.98c2.115,0,2.844-.854,2.844-1.961a1.6,1.6,0,0,0-1.737-1.653,3.2,3.2,0,0,0-2.129,1.022l-.687-.812a4.111,4.111,0,0,1,2.872-1.233c1.723,0,2.983.925,2.983,2.578a2.56,2.56,0,0,1-1.835,2.479v.056A2.64,2.64,0,0,1,232,276.254a2.99,2.99,0,0,1-3.292,2.928A4.249,4.249,0,0,1,225.416,277.781Z" style="fill:#231815"/><path d="M233.4,278.244c3.222-2.815,4.707-4.861,4.707-6.625a1.805,1.805,0,0,0-1.892-2.031,2.876,2.876,0,0,0-2.129,1.19l-.742-.728a3.925,3.925,0,0,1,3.025-1.513,2.817,2.817,0,0,1,2.983,3.04c0,2.045-1.61,4.132-4.02,6.415.532-.042,1.162-.1,1.681-.1h2.844V279H233.4Z" style="fill:#231815"/><path d="M247.875,276.17h-1.359V279H245.3v-2.83h-4.469v-.84l4.272-6.6h1.414v6.416h1.359Zm-2.577-1.022V272c0-.5.056-1.331.084-1.863h-.057c-.252.5-.532,1.008-.826,1.513l-2.339,3.5Z" style="fill:#231815"/><path d="M303,249q1.56-.768,3.149-1.523" style="fill:none;stroke:#71c7d5;stroke-miterlimit:10;stroke-width:4px"/><path d="M312.478,244.581c64.517-28.468,161.224-40.227,242.763-31.1" style="fill:none;stroke:#71c7d5;stroke-miterlimit:10;stroke-width:4px;stroke-dasharray:6.963573932647705,6.963573932647705"/><path d="M558.707,213.886q1.742.209,3.473.431" style="fill:none;stroke:#71c7d5;stroke-miterlimit:10;stroke-width:4px"/><polygon points="555.604 220.968 559.722 214.054 557.604 206.291 574 216 555.604 220.968" style="fill:#71c7d5"/><path d="M492.9,166l-4.272-7.465h-3.168V166h-2.232V148.406h5.521c3.576,0,6.145,1.272,6.145,4.945a4.772,4.772,0,0,1-3.984,4.944l4.512,7.7Zm-7.441-9.265h2.952c2.76,0,4.272-1.1,4.272-3.384,0-2.329-1.512-3.145-4.272-3.145h-2.952Z" style="fill:#4d4d4d"/><path d="M497.866,148.862a1.515,1.515,0,0,1,3.024,0,1.515,1.515,0,0,1-3.024,0Zm.408,4.1h2.185V166h-2.185Z" style="fill:#4d4d4d"/><path d="M504.873,152.967h1.8l.192,1.872h.072a6.25,6.25,0,0,1,4.368-2.208c2.736,0,3.984,1.776,3.984,5.112V166h-2.184v-7.969c0-2.448-.744-3.48-2.472-3.48-1.344,0-2.256.672-3.576,1.992V166h-2.185Z" style="fill:#4d4d4d"/><path d="M518.529,168.5a3.688,3.688,0,0,1,1.944-2.952v-.1a2.357,2.357,0,0,1-1.2-2.136,3.179,3.179,0,0,1,1.464-2.424v-.1a4.576,4.576,0,0,1-1.7-3.5,4.642,4.642,0,0,1,4.9-4.656,5.378,5.378,0,0,1,1.824.336h4.536v1.68h-2.664a3.723,3.723,0,0,1,1.056,2.688,4.469,4.469,0,0,1-4.752,4.536,4.534,4.534,0,0,1-1.944-.456,1.941,1.941,0,0,0-.84,1.56c0,.84.528,1.417,2.28,1.417h2.544c3.024,0,4.537.96,4.537,3.1,0,2.424-2.544,4.512-6.577,4.512C520.737,172,518.529,170.752,518.529,168.5Zm9.865-.672c0-1.2-.936-1.608-2.664-1.608h-2.256a7.329,7.329,0,0,1-1.68-.216,2.749,2.749,0,0,0-1.344,2.208c0,1.392,1.417,2.3,3.792,2.3C526.738,170.512,528.394,169.192,528.394,167.824Zm-1.7-10.537a2.785,2.785,0,1,0-5.544,0,2.789,2.789,0,1,0,5.544,0Z" style="fill:#4d4d4d"/></svg>