<svg xmlns="http://www.w3.org/2000/svg" viewBox="0 0 1080 278"><title>image-04</title><path d="M112.652,61.535H111.1v3.233h-1.393V61.535H104.6v-.961l4.882-7.539H111.1v7.332h1.553Zm-2.945-1.168v-3.6c0-.576.064-1.521.1-2.129h-.064c-.288.576-.608,1.152-.944,1.729l-2.673,4Z" style="fill:#231815"/><path d="M113.609,63.424l.72-.96a3.861,3.861,0,0,0,2.881,1.3,2.536,2.536,0,0,0,2.5-2.769,2.374,2.374,0,0,0-2.433-2.673,3.2,3.2,0,0,0-1.953.688l-.784-.48.368-5.49h5.714v1.249h-4.434l-.288,3.394a3.368,3.368,0,0,1,1.745-.465c1.953,0,3.537,1.153,3.537,3.73a3.81,3.81,0,0,1-3.841,4.033A4.981,4.981,0,0,1,113.609,63.424Z" style="fill:#231815"/><path d="M129.211,54.925a2.48,2.48,0,0,0-1.889-.9c-1.6,0-2.961,1.232-3.025,4.882a3.647,3.647,0,0,1,2.673-1.424c1.984,0,3.249,1.232,3.249,3.681a3.523,3.523,0,0,1-3.361,3.81c-2.257,0-3.921-1.937-3.921-5.811,0-4.594,2.065-6.354,4.337-6.354a3.607,3.607,0,0,1,2.737,1.2Zm-.368,6.242c0-1.585-.688-2.593-2.113-2.593a3.058,3.058,0,0,0-2.4,1.5c.176,2.434,1.056,3.762,2.529,3.762C127.979,63.84,128.843,62.768,128.843,61.167Z" style="fill:#231815"/><path d="M131.7,58.862c0-4.082,1.425-6.051,3.666-6.051,2.225,0,3.649,1.985,3.649,6.051,0,4.081-1.424,6.114-3.649,6.114C133.129,64.977,131.7,62.943,131.7,58.862Zm5.891,0c0-3.425-.9-4.866-2.225-4.866-1.344,0-2.241,1.441-2.241,4.866,0,3.457.9,4.946,2.241,4.946C136.7,63.809,137.6,62.319,137.6,58.862Z" style="fill:#231815"/><path d="M148.172,61.535h-1.553v3.233h-1.393V61.535h-5.106v-.961L145,53.035h1.617v7.332h1.553Zm-2.945-1.168v-3.6c0-.576.064-1.521.1-2.129h-.064c-.288.576-.608,1.152-.944,1.729l-2.673,4Z" style="fill:#231815"/><path d="M155.147,54.284h-5.683V53.035h7.347v.881c-2.753,3.537-3.266,6.259-3.441,10.853H151.85C152.042,60.318,152.858,57.486,155.147,54.284Z" style="fill:#231815"/><path d="M165.932,61.535h-1.553v3.233h-1.393V61.535H157.88v-.961l4.881-7.539h1.617v7.332h1.553Zm-2.945-1.168v-3.6c0-.576.063-1.521.1-2.129h-.063c-.288.576-.608,1.152-.944,1.729l-2.673,4Z" style="fill:#231815"/><path d="M166.9,63.376l.736-.96a3.881,3.881,0,0,0,2.913,1.344,2.161,2.161,0,0,0,2.386-2.176c0-1.409-.944-2.354-3.649-2.354V58.109c2.417,0,3.249-.977,3.249-2.24a1.833,1.833,0,0,0-1.985-1.889,3.656,3.656,0,0,0-2.433,1.168l-.784-.928a4.7,4.7,0,0,1,3.281-1.409c1.969,0,3.409,1.057,3.409,2.945a2.924,2.924,0,0,1-2.1,2.833v.064a3.017,3.017,0,0,1,2.5,2.977c0,2.1-1.681,3.346-3.762,3.346A4.856,4.856,0,0,1,166.9,63.376Z" style="fill:#231815"/><path d="M176.729,63.553h2.609V54.8h-2.081v-.929a7.42,7.42,0,0,0,2.434-.833h1.12V63.553h2.353v1.216h-6.435Z" style="fill:#231815"/><path d="M184.983,58.862c0-4.082,1.425-6.051,3.666-6.051,2.225,0,3.649,1.985,3.649,6.051,0,4.081-1.425,6.114-3.649,6.114C186.408,64.977,184.983,62.943,184.983,58.862Zm5.891,0c0-3.425-.9-4.866-2.225-4.866-1.345,0-2.241,1.441-2.241,4.866,0,3.457.9,4.946,2.241,4.946C189.978,63.809,190.874,62.319,190.874,58.862Z" style="fill:#231815"/><path d="M193.784,63.9c3.682-3.217,5.378-5.555,5.378-7.571A2.063,2.063,0,0,0,197,54.012a3.287,3.287,0,0,0-2.434,1.361l-.848-.832a4.485,4.485,0,0,1,3.457-1.729,3.219,3.219,0,0,1,3.409,3.474c0,2.337-1.841,4.722-4.594,7.331.608-.048,1.329-.112,1.921-.112h3.249v1.265h-7.379Z" style="fill:#231815"/><path d="M202.743,58.862c0-4.082,1.425-6.051,3.666-6.051,2.225,0,3.649,1.985,3.649,6.051,0,4.081-1.425,6.114-3.649,6.114C204.168,64.977,202.743,62.943,202.743,58.862Zm5.891,0c0-3.425-.9-4.866-2.225-4.866-1.345,0-2.241,1.441-2.241,4.866,0,3.457.9,4.946,2.241,4.946C207.737,63.809,208.634,62.319,208.634,58.862Z" style="fill:#231815"/><path d="M219.211,61.535h-1.553v3.233h-1.393V61.535H211.16v-.961l4.882-7.539h1.616v7.332h1.553Zm-2.945-1.168v-3.6c0-.576.064-1.521.1-2.129H216.3c-.288.576-.608,1.152-.944,1.729l-2.673,4Z" style="fill:#231815"/><path d="M106.514,26.166a4.19,4.19,0,0,1-.854,3.082,3.259,3.259,0,0,1-2.171.826l-.126-.925c1.863-.126,1.989-1.288,1.989-3.487V19.135h1.163Zm-.588-8.377a.754.754,0,0,1-.756-.8.765.765,0,0,1,.784-.784.792.792,0,0,1-.028,1.582Z" style="fill:#231815"/><path d="M113.782,24.947a10.726,10.726,0,0,0,.112,1.821h-1.064l-.112-.98h-.042a2.652,2.652,0,0,1-2.255,1.148,2.116,2.116,0,0,1-2.228-2.171c0-1.835,1.6-2.83,4.427-2.815,0-.645,0-2.1-1.737-2.1a3.309,3.309,0,0,0-1.863.546l-.28-.8a4.346,4.346,0,0,1,2.325-.645c2.157,0,2.718,1.526,2.718,3.04ZM112.633,22.8c-1.442,0-3.25.21-3.25,1.82A1.27,1.27,0,0,0,110.7,26.04a1.866,1.866,0,0,0,1.933-1.793Z" style="fill:#231815"/><path d="M122.126,26.769h-1.163V22.258c0-1.246-.448-2.339-1.779-2.339a2.08,2.08,0,0,0-2,2.171v4.679h-1.163V21.1c0-.785-.028-1.359-.056-1.975H117l.07,1.246h.028a2.726,2.726,0,0,1,2.452-1.415c.952,0,2.577.575,2.577,3.166Z" style="fill:#231815"/><path d="M129.585,28.688a10.211,10.211,0,0,1-2.073-6.43,10.309,10.309,0,0,1,2.073-6.485h.953a10.441,10.441,0,0,0-2,6.5,10.566,10.566,0,0,0,2,6.416Z" style="fill:#231815"/><path d="M132.287,17.748l1.148-.393v1.779h1.975v.91h-1.975v4.412c0,.967.294,1.5,1.037,1.5a2.263,2.263,0,0,0,.784-.112l.07.9a2.932,2.932,0,0,1-1.135.183c-1.849,0-1.9-1.681-1.9-2.493V20.045H131.11v-.91h1.177Z" style="fill:#231815"/><path d="M142.341,26.446a5.541,5.541,0,0,1-2.4.477c-2.227,0-3.558-1.569-3.558-3.853,0-2.395,1.345-4.118,3.4-4.118,2.353,0,2.956,2.157,2.956,3.488,0,.267-.014.462-.028.644h-5.2C137.537,25.2,138.741,26,140.114,26a4.807,4.807,0,0,0,2-.393Zm-.743-4.229c.014-1.037-.42-2.382-1.919-2.382-1.4,0-2.017,1.331-2.129,2.382Z" style="fill:#231815"/><path d="M149.957,19.135l-2.521,3.7,2.592,3.937H148.7l-1.148-1.778c-.28-.463-.532-.883-.812-1.373h-.028c-.238.477-.519.9-.812,1.373l-1.121,1.778h-1.289l2.619-3.894-2.493-3.74h1.3l1.106,1.694c.28.435.518.827.771,1.274h.042c.238-.447.5-.868.771-1.274l1.079-1.694Z" style="fill:#231815"/><path d="M151.676,17.748l1.149-.393v1.779H154.8v.91h-1.975v4.412c0,.967.294,1.5,1.037,1.5a2.263,2.263,0,0,0,.784-.112l.07.9a2.932,2.932,0,0,1-1.135.183c-1.849,0-1.905-1.681-1.905-2.493V20.045H150.5v-.91h1.176Z" style="fill:#231815"/><path d="M157.753,24.934a20.777,20.777,0,0,1-1.415,3.712l-.854.1a22.433,22.433,0,0,0,.911-3.655Z" style="fill:#231815"/><path d="M163.758,20.424a2.827,2.827,0,0,1,2.605-1.472c1.807,0,3.109,1.556,3.109,3.895,0,2.8-1.639,4.09-3.319,4.09a2.593,2.593,0,0,1-2.3-1.219h-.027v4.175h-1.163V21.586c0-.994-.028-1.766-.056-2.465h1.051l.069,1.3Zm.07,3.3A2.154,2.154,0,0,0,165.971,26c1.5,0,2.325-1.289,2.325-3.109,0-1.583-.8-2.984-2.283-2.984a2.346,2.346,0,0,0-2.185,2.367Z" style="fill:#231815"/><path d="M176.22,24.947a10.624,10.624,0,0,0,.112,1.821h-1.064l-.112-.98h-.042a2.654,2.654,0,0,1-2.256,1.148,2.116,2.116,0,0,1-2.227-2.171c0-1.835,1.6-2.83,4.426-2.815,0-.645,0-2.1-1.736-2.1a3.312,3.312,0,0,0-1.863.546l-.28-.8a4.343,4.343,0,0,1,2.325-.645c2.157,0,2.718,1.526,2.718,3.04ZM175.071,22.8c-1.443,0-3.25.21-3.25,1.82a1.27,1.27,0,0,0,1.316,1.415,1.867,1.867,0,0,0,1.934-1.793Z" style="fill:#231815"/><path d="M181.945,20.115a3.573,3.573,0,0,0-.421-.028c-1.26,0-1.9,1.247-1.9,2.535v4.146h-1.163V21.418c0-.812-.014-1.555-.056-2.283h1.022l.056,1.471h.042a2.285,2.285,0,0,1,2.073-1.639,3.061,3.061,0,0,1,.351.041Z" style="fill:#231815"/><path d="M183.609,17.748l1.148-.393v1.779h1.975v.91h-1.975v4.412c0,.967.294,1.5,1.036,1.5a2.269,2.269,0,0,0,.785-.112l.069.9a2.926,2.926,0,0,1-1.135.183c-1.849,0-1.9-1.681-1.9-2.493V20.045h-1.177v-.91h1.177Z" style="fill:#231815"/><path d="M188.831,17.789a.754.754,0,0,1-.756-.8.762.762,0,0,1,.771-.784.792.792,0,0,1-.015,1.582Zm.589,8.979h-1.163V19.135h1.163Z" style="fill:#231815"/><path d="M192.037,17.748l1.148-.393v1.779h1.975v.91h-1.975v4.412c0,.967.294,1.5,1.036,1.5a2.269,2.269,0,0,0,.785-.112l.069.9a2.926,2.926,0,0,1-1.135.183c-1.849,0-1.9-1.681-1.9-2.493V20.045H190.86v-.91h1.177Z" style="fill:#231815"/><path d="M197.259,17.789a.754.754,0,0,1-.756-.8.762.762,0,0,1,.771-.784.792.792,0,0,1-.015,1.582Zm.589,8.979h-1.163V19.135h1.163Z" style="fill:#231815"/><path d="M206.642,22.889c0,2.844-1.877,4.048-3.571,4.048-1.961,0-3.475-1.471-3.475-3.937,0-2.605,1.625-4.048,3.572-4.048C205.255,18.952,206.642,20.549,206.642,22.889Zm-3.516-3.025c-1.653,0-2.339,1.625-2.339,3.1,0,1.694.938,3.067,2.311,3.067s2.354-1.373,2.354-3.1C205.451,21.572,204.793,19.863,203.126,19.863Z" style="fill:#231815"/><path d="M214.51,26.769h-1.162V22.258c0-1.246-.448-2.339-1.779-2.339a2.079,2.079,0,0,0-2,2.171v4.679H208.4V21.1c0-.785-.027-1.359-.056-1.975h1.036l.07,1.246h.028a2.725,2.725,0,0,1,2.451-1.415c.952,0,2.577.575,2.577,3.166Z" style="fill:#231815"/><path d="M216.858,15.772a10.246,10.246,0,0,1,2.059,6.458,10.289,10.289,0,0,1-2.059,6.457h-.953a10.585,10.585,0,0,0,2-6.471,10.506,10.506,0,0,0-2-6.444Z" style="fill:#231815"/><rect x="62.5" y="43.981" width="200" height="30" style="fill:none;stroke:#4d4d4d;stroke-miterlimit:10;stroke-width:2px"/><line x1="282.5" y1="58.981" x2="342.561" y2="58.981" style="fill:none;stroke:#4d4d4d;stroke-miterlimit:10;stroke-width:2px"/><polygon points="336.943 66.388 340.09 58.981 336.943 51.575 354.5 58.981 336.943 66.388" style="fill:#4d4d4d"/><path d="M870.984,63.04V52.027h1.457V63.136c0,.448.191.624.416.624a1.313,1.313,0,0,0,.3-.031l.207,1.12a2.29,2.29,0,0,1-.848.128C871.434,64.977,870.984,64.272,870.984,63.04Z" style="fill:#231815"/><path d="M874.889,60.431c0-2.9,1.9-4.577,4.033-4.577s4.034,1.68,4.034,4.577c0,2.882-1.905,4.546-4.034,4.546S874.889,63.313,874.889,60.431Zm6.563,0c0-2-1.024-3.361-2.529-3.361s-2.513,1.36-2.513,3.361,1.009,3.329,2.513,3.329S881.451,62.432,881.451,60.431Z" style="fill:#231815"/><path d="M884.264,63.776l.721-.96a3.943,3.943,0,0,0,2.576,1.023c1.152,0,1.713-.607,1.713-1.36,0-.88-1.023-1.28-1.984-1.648-1.217-.448-2.594-1.04-2.594-2.513,0-1.377,1.105-2.465,2.994-2.465a4.5,4.5,0,0,1,2.705.976l-.705.944a3.271,3.271,0,0,0-2-.768c-1.089,0-1.585.576-1.585,1.248,0,.832.944,1.137,1.921,1.5,1.265.48,2.657.993,2.657,2.642,0,1.409-1.12,2.577-3.169,2.577A5.243,5.243,0,0,1,884.264,63.776Z" style="fill:#231815"/><path d="M892.633,62.08V57.262h-1.3v-1.1l1.36-.08.177-2.433h1.216v2.433h2.353v1.185h-2.353v4.85c0,1.072.337,1.681,1.345,1.681a3.093,3.093,0,0,0,.992-.224l.289,1.088a5.48,5.48,0,0,1-1.6.32C893.257,64.977,892.633,63.824,892.633,62.08Z" style="fill:#231815"/><path d="M907.5,61.184h-4.289l-1.137,3.585h-1.5l3.985-11.733H906.2l3.985,11.733h-1.568ZM907.13,60l-.56-1.792c-.433-1.329-.8-2.609-1.185-3.97h-.064c-.368,1.377-.752,2.641-1.168,3.97L903.577,60Z" style="fill:#231815"/><path d="M910.984,58.91c0-3.793,2.272-6.1,5.378-6.1a4.462,4.462,0,0,1,3.377,1.457l-.8.96a3.292,3.292,0,0,0-2.545-1.12c-2.354,0-3.89,1.825-3.89,4.754,0,2.961,1.393,4.817,3.905,4.817a3.235,3.235,0,0,0,2.129-.687V59.918h-2.481V58.686H919.9v4.931a5.038,5.038,0,0,1-3.633,1.36C913.177,64.977,910.984,62.72,910.984,58.91Z" style="fill:#231815"/><path d="M922.681,53.035h6.771v1.249h-5.282v3.682h4.45V59.23h-4.45V63.5h5.459v1.265h-6.947Z" style="fill:#231815"/><path d="M867.916,24.947a10.728,10.728,0,0,0,.111,1.821h-1.064l-.111-.98h-.042a2.654,2.654,0,0,1-2.255,1.148,2.116,2.116,0,0,1-2.228-2.171c0-1.835,1.6-2.83,4.427-2.815,0-.645,0-2.1-1.737-2.1a3.31,3.31,0,0,0-1.863.546l-.28-.8a4.346,4.346,0,0,1,2.325-.645c2.157,0,2.718,1.526,2.718,3.04ZM866.768,22.8c-1.443,0-3.25.21-3.25,1.82a1.27,1.27,0,0,0,1.316,1.415,1.867,1.867,0,0,0,1.934-1.793Z" style="fill:#231815"/><path d="M871.315,26.769h-1.163V15.563h1.163Z" style="fill:#231815"/><path d="M874.816,20.367a2.714,2.714,0,0,1,2.535-1.415c1.807,0,3.081,1.556,3.081,3.908,0,2.773-1.694,4.076-3.277,4.076a2.61,2.61,0,0,1-2.466-1.429h-.041l-.07,1.261h-1.009c.028-.5.056-1.274.056-1.892V15.563h1.162v4.8Zm-.029,3.418a2.155,2.155,0,0,0,2.145,2.2c1.484,0,2.311-1.275,2.311-3.082,0-1.6-.784-3-2.27-3a2.317,2.317,0,0,0-2.186,2.367Z" style="fill:#231815"/><path d="M888.16,24.737c0,.784.042,1.442.07,2.031H887.18l-.057-1.2h-.041a2.77,2.77,0,0,1-2.437,1.372c-1.148,0-2.508-.658-2.508-3.292v-4.51H883.3v4.3c0,1.485.436,2.521,1.709,2.521A2.021,2.021,0,0,0,887,23.883V19.135h1.162Z" style="fill:#231815"/><path d="M900.847,26.769H899.7V22.355c0-1.484-.531-2.437-1.68-2.437a1.944,1.944,0,0,0-1.793,2.045v4.8h-1.149V22.063c0-1.219-.519-2.144-1.6-2.144A2.075,2.075,0,0,0,891.6,22.09v4.679h-1.148V21.1c0-.785-.028-1.345-.057-1.975h1.023l.069,1.232h.042a2.544,2.544,0,0,1,2.325-1.4,2.181,2.181,0,0,1,2.087,1.526h.028a2.675,2.675,0,0,1,2.452-1.526c.938,0,2.423.6,2.423,3.222Z" style="fill:#231815"/><path d="M908.3,28.688a10.214,10.214,0,0,1-2.073-6.43,10.309,10.309,0,0,1,2.073-6.485h.952a10.444,10.444,0,0,0-2,6.5,10.566,10.566,0,0,0,2,6.416Z" style="fill:#231815"/><path d="M911,17.748l1.148-.393v1.779h1.975v.91h-1.975v4.412c0,.967.294,1.5,1.036,1.5a2.269,2.269,0,0,0,.785-.112l.069.9a2.924,2.924,0,0,1-1.134.183c-1.85,0-1.905-1.681-1.905-2.493V20.045h-1.177v-.91H911Z" style="fill:#231815"/><path d="M921.06,26.446a5.54,5.54,0,0,1-2.4.477c-2.228,0-3.558-1.569-3.558-3.853,0-2.395,1.345-4.118,3.4-4.118,2.354,0,2.956,2.157,2.956,3.488,0,.267-.015.462-.028.644h-5.2C916.255,25.2,917.46,26,918.832,26a4.8,4.8,0,0,0,2-.393Zm-.742-4.229c.014-1.037-.421-2.382-1.919-2.382-1.4,0-2.018,1.331-2.13,2.382Z" style="fill:#231815"/><path d="M928.676,19.135l-2.521,3.7,2.591,3.937h-1.33l-1.149-1.778c-.279-.463-.532-.883-.812-1.373h-.028c-.238.477-.519.9-.812,1.373l-1.121,1.778H922.2l2.619-3.894-2.493-3.74h1.3l1.106,1.694c.28.435.519.827.771,1.274h.042c.238-.447.5-.868.771-1.274l1.078-1.694Z" style="fill:#231815"/><path d="M930.395,17.748l1.148-.393v1.779h1.975v.91h-1.975v4.412c0,.967.294,1.5,1.036,1.5a2.269,2.269,0,0,0,.785-.112l.069.9a2.926,2.926,0,0,1-1.135.183c-1.849,0-1.9-1.681-1.9-2.493V20.045h-1.177v-.91h1.177Z" style="fill:#231815"/><path d="M935.141,15.772A10.246,10.246,0,0,1,937.2,22.23a10.289,10.289,0,0,1-2.059,6.457h-.953a10.585,10.585,0,0,0,2-6.471,10.506,10.506,0,0,0-2-6.444Z" style="fill:#231815"/><path d="M867.658,93.872h-.049l-.127.9h-1.169V82.027h1.456v3.489l-.047,1.569a4.368,4.368,0,0,1,2.721-1.232c2.257,0,3.473,1.76,3.473,4.417,0,2.993-1.776,4.706-3.777,4.706A3.85,3.85,0,0,1,867.658,93.872ZM872.4,90.3c0-1.921-.641-3.217-2.289-3.217a3.593,3.593,0,0,0-2.338,1.2v4.562a3.338,3.338,0,0,0,2.129.912C871.34,93.76,872.4,92.464,872.4,90.3Z" style="fill:#231815"/><path d="M876.2,93.04V82.027h1.457V93.136c0,.448.191.624.416.624a1.306,1.306,0,0,0,.3-.031l.208,1.12a2.3,2.3,0,0,1-.848.128C876.649,94.977,876.2,94.272,876.2,93.04Z" style="fill:#231815"/><path d="M880.648,91.584V86.077h1.457v5.33c0,1.616.48,2.3,1.633,2.3.9,0,1.521-.433,2.354-1.472V86.077h1.456v8.691h-1.216l-.113-1.36h-.047a3.73,3.73,0,0,1-2.882,1.568C881.465,94.977,880.648,93.792,880.648,91.584Z" style="fill:#231815"/><path d="M889.816,90.431c0-2.817,1.905-4.577,3.922-4.577,2.209,0,3.457,1.6,3.457,4.081a5.685,5.685,0,0,1-.063.833h-5.858a2.88,2.88,0,0,0,2.881,3.041,3.747,3.747,0,0,0,2.178-.688l.527.96a5.171,5.171,0,0,1-2.881.9C891.674,94.977,889.816,93.3,889.816,90.431Zm6.1-.7c0-1.761-.8-2.705-2.161-2.705a2.673,2.673,0,0,0-2.5,2.705Z" style="fill:#231815"/><path d="M902.921,93.04V82.027h1.456V93.136c0,.448.192.624.417.624a1.306,1.306,0,0,0,.3-.031l.208,1.12a2.3,2.3,0,0,1-.849.128C903.369,94.977,902.921,94.272,902.921,93.04Z" style="fill:#231815"/><path d="M907.208,83.34a1.011,1.011,0,0,1,2.018,0,1.011,1.011,0,0,1-2.018,0Zm.272,2.737h1.456v8.691H907.48Z" style="fill:#231815"/><path d="M911.209,96.434a2.458,2.458,0,0,1,1.3-1.969V94.4a1.571,1.571,0,0,1-.8-1.425,2.123,2.123,0,0,1,.976-1.616v-.064a3.051,3.051,0,0,1-1.136-2.337,3.094,3.094,0,0,1,3.265-3.1,3.579,3.579,0,0,1,1.217.224h3.025V87.2h-1.776a2.485,2.485,0,0,1,.7,1.793,2.981,2.981,0,0,1-3.17,3.025,3.017,3.017,0,0,1-1.3-.3,1.3,1.3,0,0,0-.561,1.041c0,.561.353.944,1.521.944h1.7c2.017,0,3.024.64,3.024,2.064,0,1.617-1.7,3.01-4.386,3.01C912.681,98.771,911.209,97.938,911.209,96.434Zm6.578-.448c0-.8-.624-1.072-1.776-1.072h-1.5a4.9,4.9,0,0,1-1.12-.145,1.831,1.831,0,0,0-.9,1.473c0,.929.944,1.536,2.528,1.536C916.683,97.777,917.787,96.9,917.787,95.985Zm-1.137-7.027a1.857,1.857,0,1,0-3.7,0,1.86,1.86,0,1,0,3.7,0Z" style="fill:#231815"/><path d="M920.889,82.027h1.456v3.489L922.3,87.31a4.084,4.084,0,0,1,2.882-1.456c1.824,0,2.656,1.184,2.656,3.408v5.507h-1.456V89.455c0-1.633-.5-2.322-1.648-2.322a3.31,3.31,0,0,0-2.386,1.329v6.307h-1.456Z" style="fill:#231815"/><path d="M930.856,92.08V87.262h-1.3v-1.1l1.36-.08.176-2.433h1.217v2.433h2.353v1.185h-2.353v4.85c0,1.072.336,1.681,1.345,1.681a3.1,3.1,0,0,0,.992-.224l.288,1.088a5.467,5.467,0,0,1-1.6.32C931.48,94.977,930.856,93.824,930.856,92.08Z" style="fill:#231815"/><path d="M888.481,123.872h-.048l-.129.9h-1.168V112.027h1.457v3.489l-.049,1.569a4.377,4.377,0,0,1,2.721-1.232c2.258,0,3.475,1.76,3.475,4.417,0,2.993-1.777,4.706-3.777,4.706A3.852,3.852,0,0,1,888.481,123.872Zm4.737-3.569c0-1.921-.64-3.217-2.289-3.217a3.587,3.587,0,0,0-2.336,1.2v4.562a3.336,3.336,0,0,0,2.129.912C892.162,123.76,893.219,122.464,893.219,120.3Z" style="fill:#231815"/><path d="M896.368,120.431c0-2.817,1.905-4.577,3.922-4.577,2.209,0,3.457,1.6,3.457,4.081a5.668,5.668,0,0,1-.064.833h-5.858a2.881,2.881,0,0,0,2.882,3.041,3.746,3.746,0,0,0,2.177-.688l.528.96a5.177,5.177,0,0,1-2.882.9C898.225,124.977,896.368,123.3,896.368,120.431Zm6.1-.7c0-1.761-.8-2.705-2.161-2.705a2.674,2.674,0,0,0-2.5,2.705Z" style="fill:#231815"/><path d="M905.265,120.431c0-2.817,1.776-4.577,3.761-4.577a3.535,3.535,0,0,1,2.449,1.023l-.08-1.5v-3.346h1.457v12.741h-1.185l-.145-1.024h-.031a3.879,3.879,0,0,1-2.642,1.232C906.673,124.977,905.265,123.328,905.265,120.431Zm6.13,2.129V118a3.051,3.051,0,0,0-2.112-.912c-1.409,0-2.514,1.344-2.514,3.329,0,2.1.865,3.345,2.4,3.345A2.986,2.986,0,0,0,911.395,122.56Z" style="fill:#231815"/><path d="M875.192,150.431c0-2.817,1.905-4.577,3.921-4.577,2.209,0,3.458,1.6,3.458,4.081a5.824,5.824,0,0,1-.063.833h-5.859a2.881,2.881,0,0,0,2.882,3.041,3.744,3.744,0,0,0,2.177-.688l.528.96a5.174,5.174,0,0,1-2.882.9C877.049,154.977,875.192,153.3,875.192,150.431Zm6.1-.7c0-1.761-.8-2.705-2.161-2.705a2.674,2.674,0,0,0-2.5,2.705Z" style="fill:#231815"/><path d="M884.713,146.077h1.2l.129,1.265h.048a3.822,3.822,0,0,1,2.705-1.488,2.292,2.292,0,0,1,2.4,1.664,4.107,4.107,0,0,1,2.865-1.664c1.793,0,2.641,1.184,2.641,3.408v5.507h-1.457v-5.313c0-1.633-.512-2.322-1.616-2.322a3.209,3.209,0,0,0-2.192,1.329v6.307h-1.457v-5.313c0-1.633-.512-2.322-1.617-2.322a3.209,3.209,0,0,0-2.192,1.329v6.307h-1.456Z" style="fill:#231815"/><path d="M899.528,146.077h1.2l.128.992h.049a4.637,4.637,0,0,1,2.769-1.216c2.241,0,3.457,1.76,3.457,4.434,0,2.977-1.776,4.689-3.777,4.689a3.923,3.923,0,0,1-2.4-1.008l.031,1.521v2.944h-1.456Zm6.082,4.226c0-1.921-.64-3.217-2.288-3.217a3.626,3.626,0,0,0-2.338,1.2v4.562a3.372,3.372,0,0,0,2.129.912C904.555,153.76,905.61,152.464,905.61,150.3Z" style="fill:#231815"/><path d="M909.4,152.08v-4.818h-1.3v-1.1l1.36-.08.176-2.433h1.217v2.433h2.353v1.185h-2.353v4.85c0,1.072.336,1.681,1.345,1.681a3.1,3.1,0,0,0,.992-.224l.288,1.088a5.467,5.467,0,0,1-1.6.32C910.024,154.977,909.4,153.824,909.4,152.08Z" style="fill:#231815"/><path d="M914.295,158.338l.288-1.168a2.1,2.1,0,0,0,.657.144c.992,0,1.616-.8,1.969-1.873l.191-.656-3.489-8.707h1.521l1.777,4.834c.256.752.56,1.648.832,2.433h.08c.24-.784.5-1.664.736-2.433l1.553-4.834h1.424l-3.281,9.412c-.607,1.712-1.5,3.024-3.233,3.024A2.673,2.673,0,0,1,914.295,158.338Z" style="fill:#231815"/><rect x="375" y="44" width="600" height="120" style="fill:none;stroke:#4d4d4d;stroke-miterlimit:10;stroke-width:2px"/><line x1="375" y1="134" x2="975" y2="134" style="fill:none;stroke:#4d4d4d;stroke-miterlimit:10;stroke-width:2px"/><line x1="375" y1="104" x2="975" y2="104" style="fill:none;stroke:#4d4d4d;stroke-miterlimit:10;stroke-width:2px"/><line x1="375" y1="74" x2="975" y2="74" style="fill:none;stroke:#4d4d4d;stroke-miterlimit:10;stroke-width:2px"/><line x1="825" y1="44" x2="825" y2="164" style="fill:none;stroke:#4d4d4d;stroke-miterlimit:10;stroke-width:2px"/><line x1="675" y1="44" x2="675" y2="164" style="fill:none;stroke:#4d4d4d;stroke-miterlimit:10;stroke-width:2px"/><line x1="525" y1="44" x2="525" y2="164" style="fill:none;stroke:#4d4d4d;stroke-miterlimit:10;stroke-width:2px"/><path d="M112.652,191.535H111.1v3.233h-1.393v-3.233H104.6v-.961l4.882-7.539H111.1v7.332h1.553Zm-2.945-1.168v-3.6c0-.576.064-1.521.1-2.129h-.064c-.288.576-.608,1.152-.944,1.729l-2.673,4Z" style="fill:#231815"/><path d="M113.609,193.424l.72-.96a3.861,3.861,0,0,0,2.881,1.3,2.536,2.536,0,0,0,2.5-2.769,2.374,2.374,0,0,0-2.433-2.673,3.2,3.2,0,0,0-1.953.688l-.784-.48.368-5.49h5.714v1.249h-4.434l-.288,3.394a3.368,3.368,0,0,1,1.745-.465c1.953,0,3.537,1.153,3.537,3.73a3.81,3.81,0,0,1-3.841,4.033A4.981,4.981,0,0,1,113.609,193.424Z" style="fill:#231815"/><path d="M122.5,193.376l.736-.96a3.88,3.88,0,0,0,2.913,1.344,2.16,2.16,0,0,0,2.385-2.176c0-1.409-.944-2.354-3.649-2.354v-1.121c2.417,0,3.25-.977,3.25-2.24a1.833,1.833,0,0,0-1.985-1.889,3.658,3.658,0,0,0-2.433,1.168l-.784-.928a4.7,4.7,0,0,1,3.281-1.409c1.969,0,3.409,1.057,3.409,2.945a2.924,2.924,0,0,1-2.1,2.833v.064a3.017,3.017,0,0,1,2.5,2.977c0,2.1-1.681,3.346-3.762,3.346A4.854,4.854,0,0,1,122.5,193.376Z" style="fill:#231815"/><path d="M139.292,191.535h-1.553v3.233h-1.393v-3.233h-5.106v-.961l4.882-7.539h1.617v7.332h1.553Zm-2.945-1.168v-3.6c0-.576.064-1.521.1-2.129h-.064c-.288.576-.608,1.152-.944,1.729l-2.673,4Z" style="fill:#231815"/><path d="M140.249,193.424l.72-.96a3.861,3.861,0,0,0,2.881,1.3,2.536,2.536,0,0,0,2.5-2.769,2.374,2.374,0,0,0-2.433-2.673,3.2,3.2,0,0,0-1.953.688l-.784-.48.368-5.49h5.714v1.249h-4.434l-.288,3.394a3.368,3.368,0,0,1,1.745-.465c1.953,0,3.537,1.153,3.537,3.73a3.81,3.81,0,0,1-3.841,4.033A4.981,4.981,0,0,1,140.249,193.424Z" style="fill:#231815"/><path d="M149.145,193.376l.736-.96a3.88,3.88,0,0,0,2.913,1.344,2.16,2.16,0,0,0,2.385-2.176c0-1.409-.944-2.354-3.649-2.354v-1.121c2.417,0,3.25-.977,3.25-2.24a1.833,1.833,0,0,0-1.985-1.889,3.658,3.658,0,0,0-2.433,1.168l-.784-.928a4.7,4.7,0,0,1,3.281-1.409c1.969,0,3.409,1.057,3.409,2.945a2.924,2.924,0,0,1-2.1,2.833v.064a3.017,3.017,0,0,1,2.5,2.977c0,2.1-1.681,3.346-3.762,3.346A4.854,4.854,0,0,1,149.145,193.376Z" style="fill:#231815"/><path d="M158.344,188.862c0-4.082,1.425-6.051,3.666-6.051,2.225,0,3.649,1.985,3.649,6.051,0,4.081-1.425,6.114-3.649,6.114C159.769,194.977,158.344,192.943,158.344,188.862Zm5.89,0c0-3.425-.9-4.866-2.225-4.866-1.344,0-2.241,1.441-2.241,4.866,0,3.457.9,4.946,2.241,4.946C163.339,193.809,164.234,192.319,164.234,188.862Z" style="fill:#231815"/><path d="M167.224,188.862c0-4.082,1.425-6.051,3.666-6.051,2.225,0,3.649,1.985,3.649,6.051,0,4.081-1.425,6.114-3.649,6.114C168.648,194.977,167.224,192.943,167.224,188.862Zm5.891,0c0-3.425-.9-4.866-2.225-4.866-1.345,0-2.241,1.441-2.241,4.866,0,3.457.9,4.946,2.241,4.946C172.218,193.809,173.114,192.319,173.114,188.862Z" style="fill:#231815"/><path d="M177.049,192.863a2.647,2.647,0,0,0,1.969.9c1.521,0,2.833-1.248,2.945-4.9a3.618,3.618,0,0,1-2.705,1.456c-1.953,0-3.233-1.264-3.233-3.7a3.523,3.523,0,0,1,3.361-3.81c2.257,0,3.938,1.856,3.938,5.587,0,4.754-2.049,6.578-4.258,6.578a3.732,3.732,0,0,1-2.816-1.2Zm4.9-5.2c-.16-2.418-1.057-3.7-2.562-3.7-1.12,0-1.984,1.056-1.984,2.656,0,1.585.7,2.609,2.1,2.609A3.1,3.1,0,0,0,181.947,187.662Z" style="fill:#231815"/><path d="M185.928,192.863a2.647,2.647,0,0,0,1.969.9c1.521,0,2.833-1.248,2.945-4.9a3.618,3.618,0,0,1-2.705,1.456c-1.953,0-3.233-1.264-3.233-3.7a3.523,3.523,0,0,1,3.361-3.81c2.257,0,3.938,1.856,3.938,5.587,0,4.754-2.049,6.578-4.258,6.578a3.732,3.732,0,0,1-2.816-1.2Zm4.9-5.2c-.16-2.418-1.057-3.7-2.562-3.7-1.12,0-1.984,1.056-1.984,2.656,0,1.585.7,2.609,2.1,2.609A3.1,3.1,0,0,0,190.826,187.662Z" style="fill:#231815"/><path d="M193.528,193.424l.721-.96a3.86,3.86,0,0,0,2.881,1.3,2.536,2.536,0,0,0,2.5-2.769,2.374,2.374,0,0,0-2.434-2.673,3.2,3.2,0,0,0-1.952.688l-.784-.48.368-5.49h5.714v1.249h-4.434l-.288,3.394a3.367,3.367,0,0,1,1.744-.465c1.953,0,3.538,1.153,3.538,3.73a3.811,3.811,0,0,1-3.842,4.033A4.98,4.98,0,0,1,193.528,193.424Z" style="fill:#231815"/><path d="M202.743,188.862c0-4.082,1.425-6.051,3.666-6.051,2.225,0,3.649,1.985,3.649,6.051,0,4.081-1.425,6.114-3.649,6.114C204.168,194.977,202.743,192.943,202.743,188.862Zm5.891,0c0-3.425-.9-4.866-2.225-4.866-1.345,0-2.241,1.441-2.241,4.866,0,3.457.9,4.946,2.241,4.946C207.737,193.809,208.634,192.319,208.634,188.862Z" style="fill:#231815"/><path d="M212.248,193.553h2.609V184.8h-2.081v-.929a7.42,7.42,0,0,0,2.434-.833h1.12v10.518h2.353v1.216h-6.435Z" style="fill:#231815"/><rect x="62.5" y="173.981" width="200" height="30" style="fill:none;stroke:#4d4d4d;stroke-miterlimit:10;stroke-width:2px"/><line x1="282.5" y1="188.981" x2="342.561" y2="188.981" style="fill:none;stroke:#4d4d4d;stroke-miterlimit:10;stroke-width:2px"/><polygon points="336.943 196.388 340.09 188.981 336.943 181.575 354.5 188.981 336.943 196.388" style="fill:#4d4d4d"/><path d="M560.633,63.9c3.682-3.217,5.379-5.555,5.379-7.571a2.064,2.064,0,0,0-2.162-2.321,3.285,3.285,0,0,0-2.432,1.361l-.85-.832a4.487,4.487,0,0,1,3.458-1.729,3.219,3.219,0,0,1,3.409,3.474c0,2.337-1.84,4.722-4.594,7.331.608-.048,1.328-.112,1.921-.112h3.249v1.265h-7.379Z" style="fill:#231815"/><path d="M569.593,58.862c0-4.082,1.425-6.051,3.665-6.051s3.65,1.985,3.65,6.051c0,4.081-1.425,6.114-3.65,6.114S569.593,62.943,569.593,58.862Zm5.891,0c0-3.425-.9-4.866-2.226-4.866s-2.24,1.441-2.24,4.866c0,3.457.9,4.946,2.24,4.946S575.483,62.319,575.483,58.862Z" style="fill:#231815"/><path d="M579.1,63.553h2.608V54.8h-2.081v-.929a7.42,7.42,0,0,0,2.434-.833h1.12V63.553h2.353v1.216H579.1Z" style="fill:#231815"/><path d="M593.739,54.925a2.48,2.48,0,0,0-1.889-.9c-1.6,0-2.962,1.232-3.025,4.882a3.647,3.647,0,0,1,2.673-1.424c1.985,0,3.25,1.232,3.25,3.681a3.524,3.524,0,0,1-3.361,3.81c-2.258,0-3.922-1.937-3.922-5.811,0-4.594,2.064-6.354,4.338-6.354a3.6,3.6,0,0,1,2.736,1.2Zm-.368,6.242c0-1.585-.688-2.593-2.113-2.593a3.057,3.057,0,0,0-2.4,1.5c.176,2.434,1.057,3.762,2.529,3.762C592.507,63.84,593.371,62.768,593.371,61.167Z" style="fill:#231815"/><path d="M596.185,59.727h4.1v1.121h-4.1Z" style="fill:#231815"/><path d="M601.784,58.862c0-4.082,1.425-6.051,3.666-6.051,2.225,0,3.649,1.985,3.649,6.051,0,4.081-1.425,6.114-3.649,6.114C603.209,64.977,601.784,62.943,601.784,58.862Zm5.891,0c0-3.425-.9-4.866-2.225-4.866-1.345,0-2.241,1.441-2.241,4.866,0,3.457.9,4.946,2.241,4.946C606.778,63.809,607.675,62.319,607.675,58.862Z" style="fill:#231815"/><path d="M610.344,63.376l.736-.96a3.881,3.881,0,0,0,2.913,1.344,2.161,2.161,0,0,0,2.386-2.176c0-1.409-.944-2.354-3.649-2.354V58.109c2.417,0,3.249-.977,3.249-2.24a1.833,1.833,0,0,0-1.985-1.889,3.656,3.656,0,0,0-2.433,1.168l-.784-.928a4.7,4.7,0,0,1,3.281-1.409c1.969,0,3.409,1.057,3.409,2.945a2.924,2.924,0,0,1-2.1,2.833v.064a3.017,3.017,0,0,1,2.5,2.977c0,2.1-1.681,3.346-3.762,3.346A4.856,4.856,0,0,1,610.344,63.376Z" style="fill:#231815"/><path d="M619.5,59.727h4.1v1.121h-4.1Z" style="fill:#231815"/><path d="M624.775,63.376l.736-.96a3.881,3.881,0,0,0,2.913,1.344,2.161,2.161,0,0,0,2.386-2.176c0-1.409-.944-2.354-3.649-2.354V58.109c2.417,0,3.249-.977,3.249-2.24a1.833,1.833,0,0,0-1.985-1.889,3.656,3.656,0,0,0-2.433,1.168l-.784-.928a4.7,4.7,0,0,1,3.281-1.409c1.969,0,3.409,1.057,3.409,2.945a2.924,2.924,0,0,1-2.1,2.833v.064a3.017,3.017,0,0,1,2.5,2.977c0,2.1-1.681,3.346-3.762,3.346A4.856,4.856,0,0,1,624.775,63.376Z" style="fill:#231815"/><path d="M633.976,58.862c0-4.082,1.425-6.051,3.666-6.051,2.225,0,3.649,1.985,3.649,6.051,0,4.081-1.425,6.114-3.649,6.114C635.4,64.977,633.976,62.943,633.976,58.862Zm5.891,0c0-3.425-.9-4.866-2.225-4.866-1.345,0-2.241,1.441-2.241,4.866,0,3.457.9,4.946,2.241,4.946C638.97,63.809,639.866,62.319,639.866,58.862Z" style="fill:#231815"/><path d="M563.5,20.115a3.57,3.57,0,0,0-.42-.028c-1.261,0-1.905,1.247-1.905,2.535v4.146h-1.163V21.418c0-.812-.014-1.555-.055-2.283h1.021l.057,1.471h.042a2.283,2.283,0,0,1,2.073-1.639,3.044,3.044,0,0,1,.35.041Z" style="fill:#231815"/><path d="M570.268,26.446a5.549,5.549,0,0,1-2.4.477c-2.227,0-3.557-1.569-3.557-3.853,0-2.395,1.344-4.118,3.4-4.118,2.353,0,2.956,2.157,2.956,3.488,0,.267-.015.462-.029.644h-5.2C565.463,25.2,566.667,26,568.039,26a4.808,4.808,0,0,0,2-.393Zm-.743-4.229c.015-1.037-.42-2.382-1.919-2.382-1.4,0-2.018,1.331-2.129,2.382Z" style="fill:#231815"/><path d="M573.568,26.769h-1.162V15.563h1.162Z" style="fill:#231815"/><path d="M581.285,26.446a5.549,5.549,0,0,1-2.4.477c-2.227,0-3.557-1.569-3.557-3.853,0-2.395,1.344-4.118,3.4-4.118,2.353,0,2.956,2.157,2.956,3.488,0,.267-.015.462-.029.644h-5.2C576.48,25.2,577.685,26,579.057,26a4.808,4.808,0,0,0,2-.393Zm-.743-4.229c.015-1.037-.42-2.382-1.919-2.382-1.4,0-2.018,1.331-2.129,2.382Z" style="fill:#231815"/><path d="M588.424,24.947a10.723,10.723,0,0,0,.112,1.821h-1.064l-.112-.98h-.042a2.652,2.652,0,0,1-2.255,1.148,2.116,2.116,0,0,1-2.228-2.171c0-1.835,1.6-2.83,4.427-2.815,0-.645,0-2.1-1.737-2.1a3.306,3.306,0,0,0-1.862.546l-.281-.8a4.349,4.349,0,0,1,2.326-.645c2.156,0,2.717,1.526,2.717,3.04ZM587.275,22.8c-1.442,0-3.25.21-3.25,1.82a1.271,1.271,0,0,0,1.317,1.415,1.867,1.867,0,0,0,1.933-1.793Z" style="fill:#231815"/><path d="M594.234,20.3a2.742,2.742,0,0,0-1.485-.448,1.15,1.15,0,0,0-1.288,1.135c0,.658.434.967,1.414,1.387,1.232.5,1.947,1.148,1.947,2.3,0,1.358-1.037,2.255-2.7,2.255a4.04,4.04,0,0,1-2-.519l.322-.9a3.625,3.625,0,0,0,1.723.519c1.023,0,1.527-.546,1.527-1.233,0-.714-.406-1.105-1.415-1.512-1.288-.52-1.946-1.233-1.946-2.158a2.256,2.256,0,0,1,2.492-2.171,3.386,3.386,0,0,1,1.752.462Z" style="fill:#231815"/><path d="M602,26.446a5.534,5.534,0,0,1-2.395.477c-2.228,0-3.559-1.569-3.559-3.853,0-2.395,1.346-4.118,3.4-4.118,2.354,0,2.955,2.157,2.955,3.488,0,.267-.014.462-.027.644h-5.2C597.2,25.2,598.4,26,599.777,26a4.807,4.807,0,0,0,2-.393Zm-.742-4.229c.014-1.037-.42-2.382-1.919-2.382-1.4,0-2.017,1.331-2.129,2.382Z" style="fill:#231815"/><path d="M609.353,28.688a10.214,10.214,0,0,1-2.073-6.43,10.309,10.309,0,0,1,2.073-6.485h.952a10.444,10.444,0,0,0-2,6.5,10.566,10.566,0,0,0,2,6.416Z" style="fill:#231815"/><path d="M617.908,24.877c0,.617.028,1.373.057,1.892h-1.037l-.056-1.3h-.042a2.7,2.7,0,0,1-2.493,1.471c-1.766,0-3.138-1.526-3.138-3.88,0-2.578,1.513-4.09,3.292-4.09a2.451,2.451,0,0,1,2.227,1.176h.028v-4.58h1.162Zm-1.162-2.689a2.112,2.112,0,0,0-2.06-2.283c-1.442,0-2.3,1.346-2.3,3.1,0,1.611.757,2.984,2.255,2.984a2.2,2.2,0,0,0,2.1-2.326Z" style="fill:#231815"/><path d="M625.2,24.947a10.624,10.624,0,0,0,.112,1.821H624.25l-.112-.98H624.1a2.654,2.654,0,0,1-2.256,1.148,2.116,2.116,0,0,1-2.227-2.171c0-1.835,1.6-2.83,4.426-2.815,0-.645,0-2.1-1.736-2.1a3.312,3.312,0,0,0-1.863.546l-.28-.8a4.343,4.343,0,0,1,2.325-.645c2.157,0,2.718,1.526,2.718,3.04ZM624.054,22.8c-1.443,0-3.25.21-3.25,1.82a1.27,1.27,0,0,0,1.316,1.415,1.867,1.867,0,0,0,1.934-1.793Z" style="fill:#231815"/><path d="M627.747,17.748l1.148-.393v1.779h1.975v.91H628.9v4.412c0,.967.294,1.5,1.036,1.5a2.269,2.269,0,0,0,.785-.112l.069.9a2.924,2.924,0,0,1-1.134.183c-1.85,0-1.905-1.681-1.905-2.493V20.045H626.57v-.91h1.177Z" style="fill:#231815"/><path d="M637.8,26.446a5.54,5.54,0,0,1-2.4.477c-2.228,0-3.558-1.569-3.558-3.853,0-2.395,1.345-4.118,3.4-4.118,2.354,0,2.956,2.157,2.956,3.488,0,.267-.015.462-.028.644h-5.2C633,25.2,634.2,26,635.574,26a4.8,4.8,0,0,0,2-.393Zm-.742-4.229c.014-1.037-.421-2.382-1.919-2.382-1.4,0-2.018,1.331-2.13,2.382Z" style="fill:#231815"/><path d="M640.039,15.772A10.246,10.246,0,0,1,642.1,22.23a10.289,10.289,0,0,1-2.059,6.457h-.953a10.585,10.585,0,0,0,2-6.471,10.506,10.506,0,0,0-2-6.444Z" style="fill:#231815"/><path d="M560.633,93.9c3.682-3.217,5.379-5.555,5.379-7.571a2.064,2.064,0,0,0-2.162-2.321,3.285,3.285,0,0,0-2.432,1.361l-.85-.832a4.487,4.487,0,0,1,3.458-1.729,3.219,3.219,0,0,1,3.409,3.474c0,2.337-1.84,4.722-4.594,7.331.608-.048,1.328-.112,1.921-.112h3.249v1.265h-7.379Z" style="fill:#231815"/><path d="M569.593,88.862c0-4.082,1.425-6.051,3.665-6.051s3.65,1.985,3.65,6.051c0,4.081-1.425,6.114-3.65,6.114S569.593,92.943,569.593,88.862Zm5.891,0c0-3.425-.9-4.866-2.226-4.866s-2.24,1.441-2.24,4.866c0,3.457.9,4.946,2.24,4.946S575.483,92.319,575.483,88.862Z" style="fill:#231815"/><path d="M579.1,93.553h2.608V84.8h-2.081v-.929a7.42,7.42,0,0,0,2.434-.833h1.12V93.553h2.353v1.216H579.1Z" style="fill:#231815"/><path d="M593.739,84.925a2.48,2.48,0,0,0-1.889-.9c-1.6,0-2.962,1.232-3.025,4.882a3.647,3.647,0,0,1,2.673-1.424c1.985,0,3.25,1.232,3.25,3.681a3.524,3.524,0,0,1-3.361,3.81c-2.258,0-3.922-1.937-3.922-5.811,0-4.594,2.064-6.354,4.338-6.354a3.6,3.6,0,0,1,2.736,1.2Zm-.368,6.242c0-1.585-.688-2.593-2.113-2.593a3.057,3.057,0,0,0-2.4,1.5c.176,2.434,1.057,3.762,2.529,3.762C592.507,93.84,593.371,92.768,593.371,91.167Z" style="fill:#231815"/><path d="M596.185,89.727h4.1v1.121h-4.1Z" style="fill:#231815"/><path d="M601.784,88.862c0-4.082,1.425-6.051,3.666-6.051,2.225,0,3.649,1.985,3.649,6.051,0,4.081-1.425,6.114-3.649,6.114C603.209,94.977,601.784,92.943,601.784,88.862Zm5.891,0c0-3.425-.9-4.866-2.225-4.866-1.345,0-2.241,1.441-2.241,4.866,0,3.457.9,4.946,2.241,4.946C606.778,93.809,607.675,92.319,607.675,88.862Z" style="fill:#231815"/><path d="M610.344,93.376l.736-.96a3.881,3.881,0,0,0,2.913,1.344,2.161,2.161,0,0,0,2.386-2.176c0-1.409-.944-2.354-3.649-2.354V88.109c2.417,0,3.249-.977,3.249-2.24a1.833,1.833,0,0,0-1.985-1.889,3.656,3.656,0,0,0-2.433,1.168l-.784-.928a4.7,4.7,0,0,1,3.281-1.409c1.969,0,3.409,1.057,3.409,2.945a2.924,2.924,0,0,1-2.1,2.833v.064a3.017,3.017,0,0,1,2.5,2.977c0,2.1-1.681,3.346-3.762,3.346A4.856,4.856,0,0,1,610.344,93.376Z" style="fill:#231815"/><path d="M619.5,89.727h4.1v1.121h-4.1Z" style="fill:#231815"/><path d="M624.775,93.376l.736-.96a3.881,3.881,0,0,0,2.913,1.344,2.161,2.161,0,0,0,2.386-2.176c0-1.409-.944-2.354-3.649-2.354V88.109c2.417,0,3.249-.977,3.249-2.24a1.833,1.833,0,0,0-1.985-1.889,3.656,3.656,0,0,0-2.433,1.168l-.784-.928a4.7,4.7,0,0,1,3.281-1.409c1.969,0,3.409,1.057,3.409,2.945a2.924,2.924,0,0,1-2.1,2.833v.064a3.017,3.017,0,0,1,2.5,2.977c0,2.1-1.681,3.346-3.762,3.346A4.856,4.856,0,0,1,624.775,93.376Z" style="fill:#231815"/><path d="M633.976,88.862c0-4.082,1.425-6.051,3.666-6.051,2.225,0,3.649,1.985,3.649,6.051,0,4.081-1.425,6.114-3.649,6.114C635.4,94.977,633.976,92.943,633.976,88.862Zm5.891,0c0-3.425-.9-4.866-2.225-4.866-1.345,0-2.241,1.441-2.241,4.866,0,3.457.9,4.946,2.241,4.946C638.97,93.809,639.866,92.319,639.866,88.862Z" style="fill:#231815"/><path d="M560.633,123.9c3.682-3.217,5.379-5.555,5.379-7.571a2.064,2.064,0,0,0-2.162-2.321,3.285,3.285,0,0,0-2.432,1.361l-.85-.832a4.487,4.487,0,0,1,3.458-1.729,3.219,3.219,0,0,1,3.409,3.474c0,2.337-1.84,4.722-4.594,7.331.608-.048,1.328-.112,1.921-.112h3.249v1.265h-7.379Z" style="fill:#231815"/><path d="M569.593,118.862c0-4.082,1.425-6.051,3.665-6.051s3.65,1.985,3.65,6.051c0,4.081-1.425,6.114-3.65,6.114S569.593,122.943,569.593,118.862Zm5.891,0c0-3.425-.9-4.866-2.226-4.866s-2.24,1.441-2.24,4.866c0,3.457.9,4.946,2.24,4.946S575.483,122.319,575.483,118.862Z" style="fill:#231815"/><path d="M579.1,123.553h2.608V114.8h-2.081v-.929a7.42,7.42,0,0,0,2.434-.833h1.12v10.518h2.353v1.216H579.1Z" style="fill:#231815"/><path d="M593.739,114.925a2.48,2.48,0,0,0-1.889-.9c-1.6,0-2.962,1.232-3.025,4.882a3.647,3.647,0,0,1,2.673-1.424c1.985,0,3.25,1.232,3.25,3.681a3.524,3.524,0,0,1-3.361,3.81c-2.258,0-3.922-1.937-3.922-5.811,0-4.594,2.064-6.354,4.338-6.354a3.6,3.6,0,0,1,2.736,1.2Zm-.368,6.242c0-1.585-.688-2.593-2.113-2.593a3.057,3.057,0,0,0-2.4,1.5c.176,2.434,1.057,3.762,2.529,3.762C592.507,123.84,593.371,122.768,593.371,121.167Z" style="fill:#231815"/><path d="M596.185,119.727h4.1v1.121h-4.1Z" style="fill:#231815"/><path d="M601.784,118.862c0-4.082,1.425-6.051,3.666-6.051,2.225,0,3.649,1.985,3.649,6.051,0,4.081-1.425,6.114-3.649,6.114C603.209,124.977,601.784,122.943,601.784,118.862Zm5.891,0c0-3.425-.9-4.866-2.225-4.866-1.345,0-2.241,1.441-2.241,4.866,0,3.457.9,4.946,2.241,4.946C606.778,123.809,607.675,122.319,607.675,118.862Z" style="fill:#231815"/><path d="M610.344,123.376l.736-.96a3.881,3.881,0,0,0,2.913,1.344,2.161,2.161,0,0,0,2.386-2.176c0-1.409-.944-2.354-3.649-2.354v-1.121c2.417,0,3.249-.977,3.249-2.24a1.833,1.833,0,0,0-1.985-1.889,3.656,3.656,0,0,0-2.433,1.168l-.784-.928a4.7,4.7,0,0,1,3.281-1.409c1.969,0,3.409,1.057,3.409,2.945a2.924,2.924,0,0,1-2.1,2.833v.064a3.017,3.017,0,0,1,2.5,2.977c0,2.1-1.681,3.346-3.762,3.346A4.856,4.856,0,0,1,610.344,123.376Z" style="fill:#231815"/><path d="M619.5,119.727h4.1v1.121h-4.1Z" style="fill:#231815"/><path d="M624.775,123.376l.736-.96a3.881,3.881,0,0,0,2.913,1.344,2.161,2.161,0,0,0,2.386-2.176c0-1.409-.944-2.354-3.649-2.354v-1.121c2.417,0,3.249-.977,3.249-2.24a1.833,1.833,0,0,0-1.985-1.889,3.656,3.656,0,0,0-2.433,1.168l-.784-.928a4.7,4.7,0,0,1,3.281-1.409c1.969,0,3.409,1.057,3.409,2.945a2.924,2.924,0,0,1-2.1,2.833v.064a3.017,3.017,0,0,1,2.5,2.977c0,2.1-1.681,3.346-3.762,3.346A4.856,4.856,0,0,1,624.775,123.376Z" style="fill:#231815"/><path d="M633.976,118.862c0-4.082,1.425-6.051,3.666-6.051,2.225,0,3.649,1.985,3.649,6.051,0,4.081-1.425,6.114-3.649,6.114C635.4,124.977,633.976,122.943,633.976,118.862Zm5.891,0c0-3.425-.9-4.866-2.225-4.866-1.345,0-2.241,1.441-2.241,4.866,0,3.457.9,4.946,2.241,4.946C638.97,123.809,639.866,122.319,639.866,118.862Z" style="fill:#231815"/><path d="M560.633,153.9c3.682-3.217,5.379-5.555,5.379-7.571a2.064,2.064,0,0,0-2.162-2.321,3.285,3.285,0,0,0-2.432,1.361l-.85-.832a4.487,4.487,0,0,1,3.458-1.729,3.219,3.219,0,0,1,3.409,3.474c0,2.337-1.84,4.722-4.594,7.331.608-.048,1.328-.112,1.921-.112h3.249v1.265h-7.379Z" style="fill:#231815"/><path d="M569.593,148.862c0-4.082,1.425-6.051,3.665-6.051s3.65,1.985,3.65,6.051c0,4.081-1.425,6.114-3.65,6.114S569.593,152.943,569.593,148.862Zm5.891,0c0-3.425-.9-4.866-2.226-4.866s-2.24,1.441-2.24,4.866c0,3.457.9,4.946,2.24,4.946S575.483,152.319,575.483,148.862Z" style="fill:#231815"/><path d="M579.1,153.553h2.608V144.8h-2.081v-.929a7.42,7.42,0,0,0,2.434-.833h1.12v10.518h2.353v1.216H579.1Z" style="fill:#231815"/><path d="M593.739,144.925a2.48,2.48,0,0,0-1.889-.9c-1.6,0-2.962,1.232-3.025,4.882a3.647,3.647,0,0,1,2.673-1.424c1.985,0,3.25,1.232,3.25,3.681a3.524,3.524,0,0,1-3.361,3.81c-2.258,0-3.922-1.937-3.922-5.811,0-4.594,2.064-6.354,4.338-6.354a3.6,3.6,0,0,1,2.736,1.2Zm-.368,6.242c0-1.585-.688-2.593-2.113-2.593a3.057,3.057,0,0,0-2.4,1.5c.176,2.434,1.057,3.762,2.529,3.762C592.507,153.84,593.371,152.768,593.371,151.167Z" style="fill:#231815"/><path d="M596.185,149.727h4.1v1.121h-4.1Z" style="fill:#231815"/><path d="M601.784,148.862c0-4.082,1.425-6.051,3.666-6.051,2.225,0,3.649,1.985,3.649,6.051,0,4.081-1.425,6.114-3.649,6.114C603.209,154.977,601.784,152.943,601.784,148.862Zm5.891,0c0-3.425-.9-4.866-2.225-4.866-1.345,0-2.241,1.441-2.241,4.866,0,3.457.9,4.946,2.241,4.946C606.778,153.809,607.675,152.319,607.675,148.862Z" style="fill:#231815"/><path d="M610.344,153.376l.736-.96a3.881,3.881,0,0,0,2.913,1.344,2.161,2.161,0,0,0,2.386-2.176c0-1.409-.944-2.354-3.649-2.354v-1.121c2.417,0,3.249-.977,3.249-2.24a1.833,1.833,0,0,0-1.985-1.889,3.656,3.656,0,0,0-2.433,1.168l-.784-.928a4.7,4.7,0,0,1,3.281-1.409c1.969,0,3.409,1.057,3.409,2.945a2.924,2.924,0,0,1-2.1,2.833v.064a3.017,3.017,0,0,1,2.5,2.977c0,2.1-1.681,3.346-3.762,3.346A4.856,4.856,0,0,1,610.344,153.376Z" style="fill:#231815"/><path d="M619.5,149.727h4.1v1.121h-4.1Z" style="fill:#231815"/><path d="M624.775,153.376l.736-.96a3.881,3.881,0,0,0,2.913,1.344,2.161,2.161,0,0,0,2.386-2.176c0-1.409-.944-2.354-3.649-2.354v-1.121c2.417,0,3.249-.977,3.249-2.24a1.833,1.833,0,0,0-1.985-1.889,3.656,3.656,0,0,0-2.433,1.168l-.784-.928a4.7,4.7,0,0,1,3.281-1.409c1.969,0,3.409,1.057,3.409,2.945a2.924,2.924,0,0,1-2.1,2.833v.064a3.017,3.017,0,0,1,2.5,2.977c0,2.1-1.681,3.346-3.762,3.346A4.856,4.856,0,0,1,624.775,153.376Z" style="fill:#231815"/><path d="M633.976,148.862c0-4.082,1.425-6.051,3.666-6.051,2.225,0,3.649,1.985,3.649,6.051,0,4.081-1.425,6.114-3.649,6.114C635.4,154.977,633.976,152.943,633.976,148.862Zm5.891,0c0-3.425-.9-4.866-2.225-4.866-1.345,0-2.241,1.441-2.241,4.866,0,3.457.9,4.946,2.241,4.946C638.97,153.809,639.866,152.319,639.866,148.862Z" style="fill:#231815"/><path d="M560.633,193.9c3.682-3.217,5.379-5.555,5.379-7.571a2.064,2.064,0,0,0-2.162-2.321,3.285,3.285,0,0,0-2.432,1.361l-.85-.832a4.487,4.487,0,0,1,3.458-1.729,3.219,3.219,0,0,1,3.409,3.474c0,2.337-1.84,4.722-4.594,7.331.608-.048,1.328-.112,1.921-.112h3.249v1.265h-7.379Z" style="fill:#231815"/><path d="M569.593,188.862c0-4.082,1.425-6.051,3.665-6.051s3.65,1.985,3.65,6.051c0,4.081-1.425,6.114-3.65,6.114S569.593,192.943,569.593,188.862Zm5.891,0c0-3.425-.9-4.866-2.226-4.866s-2.24,1.441-2.24,4.866c0,3.457.9,4.946,2.24,4.946S575.483,192.319,575.483,188.862Z" style="fill:#231815"/><path d="M579.1,193.553h2.608V184.8h-2.081v-.929a7.42,7.42,0,0,0,2.434-.833h1.12v10.518h2.353v1.216H579.1Z" style="fill:#231815"/><path d="M593.035,184.284h-5.683v-1.249H594.7v.881c-2.753,3.537-3.265,6.259-3.441,10.853h-1.52C589.93,190.318,590.746,187.486,593.035,184.284Z" style="fill:#231815"/><path d="M596.185,189.727h4.1v1.121h-4.1Z" style="fill:#231815"/><path d="M601.784,188.862c0-4.082,1.425-6.051,3.666-6.051,2.225,0,3.649,1.985,3.649,6.051,0,4.081-1.425,6.114-3.649,6.114C603.209,194.977,601.784,192.943,601.784,188.862Zm5.891,0c0-3.425-.9-4.866-2.225-4.866-1.345,0-2.241,1.441-2.241,4.866,0,3.457.9,4.946,2.241,4.946C606.778,193.809,607.675,192.319,607.675,188.862Z" style="fill:#231815"/><path d="M610.584,193.9c3.682-3.217,5.378-5.555,5.378-7.571a2.063,2.063,0,0,0-2.16-2.321,3.287,3.287,0,0,0-2.434,1.361l-.848-.832a4.485,4.485,0,0,1,3.457-1.729,3.219,3.219,0,0,1,3.409,3.474c0,2.337-1.841,4.722-4.594,7.331.608-.048,1.329-.112,1.921-.112h3.249v1.265h-7.379Z" style="fill:#231815"/><path d="M619.5,189.727h4.1v1.121h-4.1Z" style="fill:#231815"/><path d="M625.72,193.553h2.609V184.8h-2.081v-.929a7.42,7.42,0,0,0,2.434-.833h1.12v10.518h2.353v1.216H625.72Z" style="fill:#231815"/><path d="M633.64,193.424l.721-.96a3.86,3.86,0,0,0,2.881,1.3,2.536,2.536,0,0,0,2.5-2.769,2.374,2.374,0,0,0-2.434-2.673,3.2,3.2,0,0,0-1.952.688l-.784-.48.368-5.49h5.714v1.249h-4.434l-.288,3.394a3.367,3.367,0,0,1,1.744-.465c1.953,0,3.538,1.153,3.538,3.73a3.811,3.811,0,0,1-3.842,4.033A4.98,4.98,0,0,1,633.64,193.424Z" style="fill:#231815"/><path d="M560.633,223.9c3.682-3.217,5.379-5.555,5.379-7.571a2.064,2.064,0,0,0-2.162-2.321,3.285,3.285,0,0,0-2.432,1.361l-.85-.832a4.487,4.487,0,0,1,3.458-1.729,3.219,3.219,0,0,1,3.409,3.474c0,2.337-1.84,4.722-4.594,7.331.608-.048,1.328-.112,1.921-.112h3.249v1.265h-7.379Z" style="fill:#231815"/><path d="M569.593,218.862c0-4.082,1.425-6.051,3.665-6.051s3.65,1.985,3.65,6.051c0,4.081-1.425,6.114-3.65,6.114S569.593,222.943,569.593,218.862Zm5.891,0c0-3.425-.9-4.866-2.226-4.866s-2.24,1.441-2.24,4.866c0,3.457.9,4.946,2.24,4.946S575.483,222.319,575.483,218.862Z" style="fill:#231815"/><path d="M579.1,223.553h2.608V214.8h-2.081v-.929a7.42,7.42,0,0,0,2.434-.833h1.12v10.518h2.353v1.216H579.1Z" style="fill:#231815"/><path d="M593.035,214.284h-5.683v-1.249H594.7v.881c-2.753,3.537-3.265,6.259-3.441,10.853h-1.52C589.93,220.318,590.746,217.486,593.035,214.284Z" style="fill:#231815"/><path d="M596.185,219.727h4.1v1.121h-4.1Z" style="fill:#231815"/><path d="M601.784,218.862c0-4.082,1.425-6.051,3.666-6.051,2.225,0,3.649,1.985,3.649,6.051,0,4.081-1.425,6.114-3.649,6.114C603.209,224.977,601.784,222.943,601.784,218.862Zm5.891,0c0-3.425-.9-4.866-2.225-4.866-1.345,0-2.241,1.441-2.241,4.866,0,3.457.9,4.946,2.241,4.946C606.778,223.809,607.675,222.319,607.675,218.862Z" style="fill:#231815"/><path d="M610.584,223.9c3.682-3.217,5.378-5.555,5.378-7.571a2.063,2.063,0,0,0-2.16-2.321,3.287,3.287,0,0,0-2.434,1.361l-.848-.832a4.485,4.485,0,0,1,3.457-1.729,3.219,3.219,0,0,1,3.409,3.474c0,2.337-1.841,4.722-4.594,7.331.608-.048,1.329-.112,1.921-.112h3.249v1.265h-7.379Z" style="fill:#231815"/><path d="M619.5,219.727h4.1v1.121h-4.1Z" style="fill:#231815"/><path d="M625.72,223.553h2.609V214.8h-2.081v-.929a7.42,7.42,0,0,0,2.434-.833h1.12v10.518h2.353v1.216H625.72Z" style="fill:#231815"/><path d="M633.64,223.424l.721-.96a3.86,3.86,0,0,0,2.881,1.3,2.536,2.536,0,0,0,2.5-2.769,2.374,2.374,0,0,0-2.434-2.673,3.2,3.2,0,0,0-1.952.688l-.784-.48.368-5.49h5.714v1.249h-4.434l-.288,3.394a3.367,3.367,0,0,1,1.744-.465c1.953,0,3.538,1.153,3.538,3.73a3.811,3.811,0,0,1-3.842,4.033A4.98,4.98,0,0,1,633.64,223.424Z" style="fill:#231815"/><path d="M560.633,253.9c3.682-3.217,5.379-5.555,5.379-7.571a2.064,2.064,0,0,0-2.162-2.321,3.285,3.285,0,0,0-2.432,1.361l-.85-.832a4.487,4.487,0,0,1,3.458-1.729,3.219,3.219,0,0,1,3.409,3.474c0,2.337-1.84,4.722-4.594,7.331.608-.048,1.328-.112,1.921-.112h3.249v1.265h-7.379Z" style="fill:#231815"/><path d="M569.593,248.862c0-4.082,1.425-6.051,3.665-6.051s3.65,1.985,3.65,6.051c0,4.081-1.425,6.114-3.65,6.114S569.593,252.943,569.593,248.862Zm5.891,0c0-3.425-.9-4.866-2.226-4.866s-2.24,1.441-2.24,4.866c0,3.457.9,4.946,2.24,4.946S575.483,252.319,575.483,248.862Z" style="fill:#231815"/><path d="M579.1,253.553h2.608V244.8h-2.081v-.929a7.42,7.42,0,0,0,2.434-.833h1.12v10.518h2.353v1.216H579.1Z" style="fill:#231815"/><path d="M593.035,244.284h-5.683v-1.249H594.7v.881c-2.753,3.537-3.265,6.259-3.441,10.853h-1.52C589.93,250.318,590.746,247.486,593.035,244.284Z" style="fill:#231815"/><path d="M596.185,249.727h4.1v1.121h-4.1Z" style="fill:#231815"/><path d="M601.784,248.862c0-4.082,1.425-6.051,3.666-6.051,2.225,0,3.649,1.985,3.649,6.051,0,4.081-1.425,6.114-3.649,6.114C603.209,254.977,601.784,252.943,601.784,248.862Zm5.891,0c0-3.425-.9-4.866-2.225-4.866-1.345,0-2.241,1.441-2.241,4.866,0,3.457.9,4.946,2.241,4.946C606.778,253.809,607.675,252.319,607.675,248.862Z" style="fill:#231815"/><path d="M610.584,253.9c3.682-3.217,5.378-5.555,5.378-7.571a2.063,2.063,0,0,0-2.16-2.321,3.287,3.287,0,0,0-2.434,1.361l-.848-.832a4.485,4.485,0,0,1,3.457-1.729,3.219,3.219,0,0,1,3.409,3.474c0,2.337-1.841,4.722-4.594,7.331.608-.048,1.329-.112,1.921-.112h3.249v1.265h-7.379Z" style="fill:#231815"/><path d="M619.5,249.727h4.1v1.121h-4.1Z" style="fill:#231815"/><path d="M625.72,253.553h2.609V244.8h-2.081v-.929a7.42,7.42,0,0,0,2.434-.833h1.12v10.518h2.353v1.216H625.72Z" style="fill:#231815"/><path d="M633.64,253.424l.721-.96a3.86,3.86,0,0,0,2.881,1.3,2.536,2.536,0,0,0,2.5-2.769,2.374,2.374,0,0,0-2.434-2.673,3.2,3.2,0,0,0-1.952.688l-.784-.48.368-5.49h5.714v1.249h-4.434l-.288,3.394a3.367,3.367,0,0,1,1.744-.465c1.953,0,3.538,1.153,3.538,3.73a3.811,3.811,0,0,1-3.842,4.033A4.98,4.98,0,0,1,633.64,253.424Z" style="fill:#231815"/><path d="M683.745,63.776l.72-.96a3.948,3.948,0,0,0,2.578,1.023c1.152,0,1.713-.607,1.713-1.36,0-.88-1.025-1.28-1.985-1.648-1.217-.448-2.593-1.04-2.593-2.513,0-1.377,1.1-2.465,2.992-2.465a4.5,4.5,0,0,1,2.705.976l-.7.944a3.279,3.279,0,0,0-2-.768c-1.088,0-1.584.576-1.584,1.248,0,.832.944,1.137,1.921,1.5,1.265.48,2.657.993,2.657,2.642,0,1.409-1.121,2.577-3.17,2.577A5.242,5.242,0,0,1,683.745,63.776Z" style="fill:#231815"/><path d="M692.1,61.584V56.077h1.456v5.33c0,1.616.48,2.3,1.633,2.3.9,0,1.521-.433,2.353-1.472V56.077H699v8.691h-1.217l-.111-1.36h-.049a3.727,3.727,0,0,1-2.881,1.568C692.914,64.977,692.1,63.792,692.1,61.584Z" style="fill:#231815"/><path d="M701.922,56.077h1.2l.129,1.265h.048A3.822,3.822,0,0,1,706,55.854a2.292,2.292,0,0,1,2.4,1.664,4.107,4.107,0,0,1,2.865-1.664c1.793,0,2.641,1.184,2.641,3.408v5.507h-1.457V59.455c0-1.633-.512-2.322-1.616-2.322a3.209,3.209,0,0,0-2.192,1.329v6.307h-1.457V59.455c0-1.633-.512-2.322-1.617-2.322a3.209,3.209,0,0,0-2.192,1.329v6.307h-1.456Z" style="fill:#231815"/><path d="M716.737,56.077h1.2l.129,1.265h.047a3.822,3.822,0,0,1,2.705-1.488,2.292,2.292,0,0,1,2.4,1.664,4.109,4.109,0,0,1,2.865-1.664c1.793,0,2.642,1.184,2.642,3.408v5.507H727.27V59.455c0-1.633-.512-2.322-1.617-2.322a3.211,3.211,0,0,0-2.192,1.329v6.307H722V59.455c0-1.633-.513-2.322-1.617-2.322a3.213,3.213,0,0,0-2.193,1.329v6.307h-1.456Z" style="fill:#231815"/><path d="M730.9,60.431c0-2.817,1.905-4.577,3.922-4.577,2.209,0,3.457,1.6,3.457,4.081a5.685,5.685,0,0,1-.063.833h-5.858a2.88,2.88,0,0,0,2.881,3.041,3.747,3.747,0,0,0,2.178-.688l.527.96a5.171,5.171,0,0,1-2.881.9C732.754,64.977,730.9,63.3,730.9,60.431Zm6.1-.7c0-1.761-.8-2.705-2.161-2.705a2.673,2.673,0,0,0-2.5,2.705Z" style="fill:#231815"/><path d="M740.417,56.077h1.2l.129,1.585h.047a3,3,0,0,1,2.465-1.809,1.855,1.855,0,0,1,.93.191l-.273,1.281a2.032,2.032,0,0,0-.848-.145c-.721,0-1.617.512-2.193,2v5.587h-1.456Z" style="fill:#231815"/><path d="M749.553,60.431a4.231,4.231,0,0,1,4.193-4.577,3.716,3.716,0,0,1,2.545,1.023l-.752.977a2.523,2.523,0,0,0-1.745-.784c-1.568,0-2.721,1.36-2.721,3.361s1.089,3.329,2.689,3.329a3.066,3.066,0,0,0,2.049-.863l.624.976a4.145,4.145,0,0,1-2.8,1.1C751.329,64.977,749.553,63.313,749.553,60.431Z" style="fill:#231815"/><path d="M757.313,60.431c0-2.9,1.9-4.577,4.033-4.577s4.034,1.68,4.034,4.577c0,2.882-1.905,4.546-4.034,4.546S757.313,63.313,757.313,60.431Zm6.563,0c0-2-1.024-3.361-2.529-3.361s-2.513,1.36-2.513,3.361,1.009,3.329,2.513,3.329S763.875,62.432,763.875,60.431Z" style="fill:#231815"/><path d="M767.664,56.077h1.2l.128,1.249h.049a4.167,4.167,0,0,1,2.913-1.473c1.824,0,2.656,1.184,2.656,3.408v5.507h-1.456V59.455c0-1.633-.5-2.322-1.648-2.322a3.31,3.31,0,0,0-2.386,1.329v6.307h-1.456Z" style="fill:#231815"/><path d="M777.7,62.08V57.262h-1.3v-1.1l1.36-.08.176-2.433h1.217v2.433h2.353v1.185h-2.353v4.85c0,1.072.336,1.681,1.345,1.681a3.1,3.1,0,0,0,.992-.224l.288,1.088a5.467,5.467,0,0,1-1.6.32C778.32,64.977,777.7,63.824,777.7,62.08Z" style="fill:#231815"/><path d="M783.2,53.34a1.011,1.011,0,0,1,2.018,0,1.011,1.011,0,0,1-2.018,0Zm.272,2.737h1.456v8.691h-1.456Z" style="fill:#231815"/><path d="M787.872,56.077h1.2l.128,1.249h.049a4.167,4.167,0,0,1,2.913-1.473c1.824,0,2.656,1.184,2.656,3.408v5.507h-1.456V59.455c0-1.633-.5-2.322-1.648-2.322a3.31,3.31,0,0,0-2.386,1.329v6.307h-1.456Z" style="fill:#231815"/><path d="M797.536,61.584V56.077h1.457v5.33c0,1.616.479,2.3,1.633,2.3.9,0,1.521-.433,2.353-1.472V56.077h1.457v8.691h-1.217l-.112-1.36h-.048a3.728,3.728,0,0,1-2.881,1.568C798.353,64.977,797.536,63.792,797.536,61.584Z" style="fill:#231815"/><path d="M806.7,60.431c0-2.817,1.9-4.577,3.922-4.577,2.209,0,3.457,1.6,3.457,4.081a5.668,5.668,0,0,1-.064.833H808.16a2.882,2.882,0,0,0,2.882,3.041,3.746,3.746,0,0,0,2.177-.688l.528.96a5.177,5.177,0,0,1-2.882.9C808.561,64.977,806.7,63.3,806.7,60.431Zm6.1-.7c0-1.761-.8-2.705-2.161-2.705a2.674,2.674,0,0,0-2.5,2.705Z" style="fill:#231815"/><path d="M716.916,24.947a10.728,10.728,0,0,0,.111,1.821h-1.064l-.111-.98h-.042a2.654,2.654,0,0,1-2.255,1.148,2.116,2.116,0,0,1-2.228-2.171c0-1.835,1.6-2.83,4.427-2.815,0-.645,0-2.1-1.737-2.1a3.31,3.31,0,0,0-1.863.546l-.28-.8a4.346,4.346,0,0,1,2.325-.645c2.157,0,2.718,1.526,2.718,3.04ZM715.768,22.8c-1.443,0-3.25.21-3.25,1.82a1.27,1.27,0,0,0,1.316,1.415,1.867,1.867,0,0,0,1.934-1.793Z" style="fill:#231815"/><path d="M720.315,26.769h-1.163V15.563h1.163Z" style="fill:#231815"/><path d="M723.816,20.367a2.714,2.714,0,0,1,2.535-1.415c1.807,0,3.081,1.556,3.081,3.908,0,2.773-1.694,4.076-3.277,4.076a2.61,2.61,0,0,1-2.466-1.429h-.041l-.07,1.261h-1.009c.028-.5.056-1.274.056-1.892V15.563h1.162v4.8Zm-.029,3.418a2.155,2.155,0,0,0,2.145,2.2c1.484,0,2.311-1.275,2.311-3.082,0-1.6-.784-3-2.27-3a2.317,2.317,0,0,0-2.186,2.367Z" style="fill:#231815"/><path d="M737.16,24.737c0,.784.042,1.442.07,2.031H736.18l-.057-1.2h-.041a2.77,2.77,0,0,1-2.437,1.372c-1.148,0-2.508-.658-2.508-3.292v-4.51H732.3v4.3c0,1.485.436,2.521,1.709,2.521A2.021,2.021,0,0,0,736,23.883V19.135h1.162Z" style="fill:#231815"/><path d="M749.847,26.769H748.7V22.355c0-1.484-.531-2.437-1.68-2.437a1.944,1.944,0,0,0-1.793,2.045v4.8h-1.149V22.063c0-1.219-.519-2.144-1.6-2.144A2.075,2.075,0,0,0,740.6,22.09v4.679h-1.148V21.1c0-.785-.028-1.345-.057-1.975h1.023l.069,1.232h.042a2.544,2.544,0,0,1,2.325-1.4,2.181,2.181,0,0,1,2.087,1.526h.028a2.675,2.675,0,0,1,2.452-1.526c.938,0,2.423.6,2.423,3.222Z" style="fill:#231815"/><path d="M757.3,28.688a10.214,10.214,0,0,1-2.073-6.43,10.309,10.309,0,0,1,2.073-6.485h.952a10.444,10.444,0,0,0-2,6.5,10.566,10.566,0,0,0,2,6.416Z" style="fill:#231815"/><path d="M760,17.748l1.148-.393v1.779h1.975v.91h-1.975v4.412c0,.967.294,1.5,1.036,1.5a2.269,2.269,0,0,0,.785-.112l.069.9a2.924,2.924,0,0,1-1.134.183c-1.85,0-1.905-1.681-1.905-2.493V20.045h-1.177v-.91H760Z" style="fill:#231815"/><path d="M770.06,26.446a5.54,5.54,0,0,1-2.4.477c-2.228,0-3.558-1.569-3.558-3.853,0-2.395,1.345-4.118,3.4-4.118,2.354,0,2.956,2.157,2.956,3.488,0,.267-.015.462-.028.644h-5.2C765.255,25.2,766.46,26,767.832,26a4.8,4.8,0,0,0,2-.393Zm-.742-4.229c.014-1.037-.421-2.382-1.919-2.382-1.4,0-2.018,1.331-2.13,2.382Z" style="fill:#231815"/><path d="M777.676,19.135l-2.521,3.7,2.591,3.937h-1.33l-1.149-1.778c-.279-.463-.532-.883-.812-1.373h-.028c-.238.477-.519.9-.812,1.373l-1.121,1.778H771.2l2.619-3.894-2.493-3.74h1.3l1.106,1.694c.28.435.519.827.771,1.274h.042c.238-.447.5-.868.771-1.274l1.078-1.694Z" style="fill:#231815"/><path d="M779.395,17.748l1.148-.393v1.779h1.975v.91h-1.975v4.412c0,.967.294,1.5,1.036,1.5a2.269,2.269,0,0,0,.785-.112l.069.9a2.926,2.926,0,0,1-1.135.183c-1.849,0-1.9-1.681-1.9-2.493V20.045h-1.177v-.91h1.177Z" style="fill:#231815"/><path d="M784.141,15.772A10.246,10.246,0,0,1,786.2,22.23a10.289,10.289,0,0,1-2.059,6.457h-.953a10.585,10.585,0,0,0,2-6.471,10.506,10.506,0,0,0-2-6.444Z" style="fill:#231815"/><path d="M683.745,93.776l.72-.96a3.948,3.948,0,0,0,2.578,1.023c1.152,0,1.713-.607,1.713-1.36,0-.88-1.025-1.28-1.985-1.648-1.217-.448-2.593-1.04-2.593-2.513,0-1.377,1.1-2.465,2.992-2.465a4.5,4.5,0,0,1,2.705.976l-.7.944a3.279,3.279,0,0,0-2-.768c-1.088,0-1.584.576-1.584,1.248,0,.832.944,1.137,1.921,1.5,1.265.48,2.657.993,2.657,2.642,0,1.409-1.121,2.577-3.17,2.577A5.242,5.242,0,0,1,683.745,93.776Z" style="fill:#231815"/><path d="M692.1,91.584V86.077h1.456v5.33c0,1.616.48,2.3,1.633,2.3.9,0,1.521-.433,2.353-1.472V86.077H699v8.691h-1.217l-.111-1.36h-.049a3.727,3.727,0,0,1-2.881,1.568C692.914,94.977,692.1,93.792,692.1,91.584Z" style="fill:#231815"/><path d="M701.922,86.077h1.2l.129,1.265h.048A3.822,3.822,0,0,1,706,85.854a2.292,2.292,0,0,1,2.4,1.664,4.107,4.107,0,0,1,2.865-1.664c1.793,0,2.641,1.184,2.641,3.408v5.507h-1.457V89.455c0-1.633-.512-2.322-1.616-2.322a3.209,3.209,0,0,0-2.192,1.329v6.307h-1.457V89.455c0-1.633-.512-2.322-1.617-2.322a3.209,3.209,0,0,0-2.192,1.329v6.307h-1.456Z" style="fill:#231815"/><path d="M716.737,86.077h1.2l.129,1.265h.047a3.822,3.822,0,0,1,2.705-1.488,2.292,2.292,0,0,1,2.4,1.664,4.109,4.109,0,0,1,2.865-1.664c1.793,0,2.642,1.184,2.642,3.408v5.507H727.27V89.455c0-1.633-.512-2.322-1.617-2.322a3.211,3.211,0,0,0-2.192,1.329v6.307H722V89.455c0-1.633-.513-2.322-1.617-2.322a3.213,3.213,0,0,0-2.193,1.329v6.307h-1.456Z" style="fill:#231815"/><path d="M730.9,90.431c0-2.817,1.905-4.577,3.922-4.577,2.209,0,3.457,1.6,3.457,4.081a5.685,5.685,0,0,1-.063.833h-5.858a2.88,2.88,0,0,0,2.881,3.041,3.747,3.747,0,0,0,2.178-.688l.527.96a5.171,5.171,0,0,1-2.881.9C732.754,94.977,730.9,93.3,730.9,90.431Zm6.1-.7c0-1.761-.8-2.705-2.161-2.705a2.673,2.673,0,0,0-2.5,2.705Z" style="fill:#231815"/><path d="M740.417,86.077h1.2l.129,1.585h.047a3,3,0,0,1,2.465-1.809,1.855,1.855,0,0,1,.93.191l-.273,1.281a2.032,2.032,0,0,0-.848-.145c-.721,0-1.617.512-2.193,2v5.587h-1.456Z" style="fill:#231815"/><path d="M749.553,90.431a4.231,4.231,0,0,1,4.193-4.577,3.716,3.716,0,0,1,2.545,1.023l-.752.977a2.523,2.523,0,0,0-1.745-.784c-1.568,0-2.721,1.36-2.721,3.361s1.089,3.329,2.689,3.329a3.066,3.066,0,0,0,2.049-.863l.624.976a4.145,4.145,0,0,1-2.8,1.1C751.329,94.977,749.553,93.313,749.553,90.431Z" style="fill:#231815"/><path d="M757.313,90.431c0-2.9,1.9-4.577,4.033-4.577s4.034,1.68,4.034,4.577c0,2.882-1.905,4.546-4.034,4.546S757.313,93.313,757.313,90.431Zm6.563,0c0-2-1.024-3.361-2.529-3.361s-2.513,1.36-2.513,3.361,1.009,3.329,2.513,3.329S763.875,92.432,763.875,90.431Z" style="fill:#231815"/><path d="M767.664,86.077h1.2l.128,1.249h.049a4.167,4.167,0,0,1,2.913-1.473c1.824,0,2.656,1.184,2.656,3.408v5.507h-1.456V89.455c0-1.633-.5-2.322-1.648-2.322a3.31,3.31,0,0,0-2.386,1.329v6.307h-1.456Z" style="fill:#231815"/><path d="M777.7,92.08V87.262h-1.3v-1.1l1.36-.08.176-2.433h1.217v2.433h2.353v1.185h-2.353v4.85c0,1.072.336,1.681,1.345,1.681a3.1,3.1,0,0,0,.992-.224l.288,1.088a5.467,5.467,0,0,1-1.6.32C778.32,94.977,777.7,93.824,777.7,92.08Z" style="fill:#231815"/><path d="M783.2,83.34a1.011,1.011,0,0,1,2.018,0,1.011,1.011,0,0,1-2.018,0Zm.272,2.737h1.456v8.691h-1.456Z" style="fill:#231815"/><path d="M787.872,86.077h1.2l.128,1.249h.049a4.167,4.167,0,0,1,2.913-1.473c1.824,0,2.656,1.184,2.656,3.408v5.507h-1.456V89.455c0-1.633-.5-2.322-1.648-2.322a3.31,3.31,0,0,0-2.386,1.329v6.307h-1.456Z" style="fill:#231815"/><path d="M797.536,91.584V86.077h1.457v5.33c0,1.616.479,2.3,1.633,2.3.9,0,1.521-.433,2.353-1.472V86.077h1.457v8.691h-1.217l-.112-1.36h-.048a3.728,3.728,0,0,1-2.881,1.568C798.353,94.977,797.536,93.792,797.536,91.584Z" style="fill:#231815"/><path d="M806.7,90.431c0-2.817,1.9-4.577,3.922-4.577,2.209,0,3.457,1.6,3.457,4.081a5.668,5.668,0,0,1-.064.833H808.16a2.882,2.882,0,0,0,2.882,3.041,3.746,3.746,0,0,0,2.177-.688l.528.96a5.177,5.177,0,0,1-2.882.9C808.561,94.977,806.7,93.3,806.7,90.431Zm6.1-.7c0-1.761-.8-2.705-2.161-2.705a2.674,2.674,0,0,0-2.5,2.705Z" style="fill:#231815"/><path d="M683.745,123.776l.72-.96a3.948,3.948,0,0,0,2.578,1.023c1.152,0,1.713-.607,1.713-1.36,0-.88-1.025-1.28-1.985-1.648-1.217-.448-2.593-1.04-2.593-2.513,0-1.377,1.1-2.465,2.992-2.465a4.5,4.5,0,0,1,2.705.976l-.7.944a3.279,3.279,0,0,0-2-.768c-1.088,0-1.584.576-1.584,1.248,0,.832.944,1.137,1.921,1.5,1.265.48,2.657.993,2.657,2.642,0,1.409-1.121,2.577-3.17,2.577A5.242,5.242,0,0,1,683.745,123.776Z" style="fill:#231815"/><path d="M692.1,121.584v-5.507h1.456v5.33c0,1.616.48,2.3,1.633,2.3.9,0,1.521-.433,2.353-1.472v-6.163H699v8.691h-1.217l-.111-1.36h-.049a3.727,3.727,0,0,1-2.881,1.568C692.914,124.977,692.1,123.792,692.1,121.584Z" style="fill:#231815"/><path d="M701.922,116.077h1.2l.129,1.265h.048A3.822,3.822,0,0,1,706,115.854a2.292,2.292,0,0,1,2.4,1.664,4.107,4.107,0,0,1,2.865-1.664c1.793,0,2.641,1.184,2.641,3.408v5.507h-1.457v-5.313c0-1.633-.512-2.322-1.616-2.322a3.209,3.209,0,0,0-2.192,1.329v6.307h-1.457v-5.313c0-1.633-.512-2.322-1.617-2.322a3.209,3.209,0,0,0-2.192,1.329v6.307h-1.456Z" style="fill:#231815"/><path d="M716.737,116.077h1.2l.129,1.265h.047a3.822,3.822,0,0,1,2.705-1.488,2.292,2.292,0,0,1,2.4,1.664,4.109,4.109,0,0,1,2.865-1.664c1.793,0,2.642,1.184,2.642,3.408v5.507H727.27v-5.313c0-1.633-.512-2.322-1.617-2.322a3.211,3.211,0,0,0-2.192,1.329v6.307H722v-5.313c0-1.633-.513-2.322-1.617-2.322a3.213,3.213,0,0,0-2.193,1.329v6.307h-1.456Z" style="fill:#231815"/><path d="M730.9,120.431c0-2.817,1.905-4.577,3.922-4.577,2.209,0,3.457,1.6,3.457,4.081a5.685,5.685,0,0,1-.063.833h-5.858a2.88,2.88,0,0,0,2.881,3.041,3.747,3.747,0,0,0,2.178-.688l.527.96a5.171,5.171,0,0,1-2.881.9C732.754,124.977,730.9,123.3,730.9,120.431Zm6.1-.7c0-1.761-.8-2.705-2.161-2.705a2.673,2.673,0,0,0-2.5,2.705Z" style="fill:#231815"/><path d="M740.417,116.077h1.2l.129,1.585h.047a3,3,0,0,1,2.465-1.809,1.855,1.855,0,0,1,.93.191l-.273,1.281a2.032,2.032,0,0,0-.848-.145c-.721,0-1.617.512-2.193,2v5.587h-1.456Z" style="fill:#231815"/><path d="M749.553,120.431a4.231,4.231,0,0,1,4.193-4.577,3.716,3.716,0,0,1,2.545,1.023l-.752.977a2.523,2.523,0,0,0-1.745-.784c-1.568,0-2.721,1.36-2.721,3.361s1.089,3.329,2.689,3.329a3.066,3.066,0,0,0,2.049-.863l.624.976a4.145,4.145,0,0,1-2.8,1.1C751.329,124.977,749.553,123.313,749.553,120.431Z" style="fill:#231815"/><path d="M757.313,120.431c0-2.9,1.9-4.577,4.033-4.577s4.034,1.68,4.034,4.577c0,2.882-1.905,4.546-4.034,4.546S757.313,123.313,757.313,120.431Zm6.563,0c0-2-1.024-3.361-2.529-3.361s-2.513,1.36-2.513,3.361,1.009,3.329,2.513,3.329S763.875,122.432,763.875,120.431Z" style="fill:#231815"/><path d="M767.664,116.077h1.2l.128,1.249h.049a4.167,4.167,0,0,1,2.913-1.473c1.824,0,2.656,1.184,2.656,3.408v5.507h-1.456v-5.313c0-1.633-.5-2.322-1.648-2.322a3.31,3.31,0,0,0-2.386,1.329v6.307h-1.456Z" style="fill:#231815"/><path d="M777.7,122.08v-4.818h-1.3v-1.1l1.36-.08.176-2.433h1.217v2.433h2.353v1.185h-2.353v4.85c0,1.072.336,1.681,1.345,1.681a3.1,3.1,0,0,0,.992-.224l.288,1.088a5.467,5.467,0,0,1-1.6.32C778.32,124.977,777.7,123.824,777.7,122.08Z" style="fill:#231815"/><path d="M783.2,113.34a1.011,1.011,0,0,1,2.018,0,1.011,1.011,0,0,1-2.018,0Zm.272,2.737h1.456v8.691h-1.456Z" style="fill:#231815"/><path d="M787.872,116.077h1.2l.128,1.249h.049a4.167,4.167,0,0,1,2.913-1.473c1.824,0,2.656,1.184,2.656,3.408v5.507h-1.456v-5.313c0-1.633-.5-2.322-1.648-2.322a3.31,3.31,0,0,0-2.386,1.329v6.307h-1.456Z" style="fill:#231815"/><path d="M797.536,121.584v-5.507h1.457v5.33c0,1.616.479,2.3,1.633,2.3.9,0,1.521-.433,2.353-1.472v-6.163h1.457v8.691h-1.217l-.112-1.36h-.048a3.728,3.728,0,0,1-2.881,1.568C798.353,124.977,797.536,123.792,797.536,121.584Z" style="fill:#231815"/><path d="M806.7,120.431c0-2.817,1.9-4.577,3.922-4.577,2.209,0,3.457,1.6,3.457,4.081a5.668,5.668,0,0,1-.064.833H808.16a2.882,2.882,0,0,0,2.882,3.041,3.746,3.746,0,0,0,2.177-.688l.528.96a5.177,5.177,0,0,1-2.882.9C808.561,124.977,806.7,123.3,806.7,120.431Zm6.1-.7c0-1.761-.8-2.705-2.161-2.705a2.674,2.674,0,0,0-2.5,2.705Z" style="fill:#231815"/><path d="M683.745,153.776l.72-.96a3.948,3.948,0,0,0,2.578,1.023c1.152,0,1.713-.607,1.713-1.36,0-.88-1.025-1.28-1.985-1.648-1.217-.448-2.593-1.04-2.593-2.513,0-1.377,1.1-2.465,2.992-2.465a4.5,4.5,0,0,1,2.705.976l-.7.944a3.279,3.279,0,0,0-2-.768c-1.088,0-1.584.576-1.584,1.248,0,.832.944,1.137,1.921,1.5,1.265.48,2.657.993,2.657,2.642,0,1.409-1.121,2.577-3.17,2.577A5.242,5.242,0,0,1,683.745,153.776Z" style="fill:#231815"/><path d="M692.1,151.584v-5.507h1.456v5.33c0,1.616.48,2.3,1.633,2.3.9,0,1.521-.433,2.353-1.472v-6.163H699v8.691h-1.217l-.111-1.36h-.049a3.727,3.727,0,0,1-2.881,1.568C692.914,154.977,692.1,153.792,692.1,151.584Z" style="fill:#231815"/><path d="M701.922,146.077h1.2l.129,1.265h.048A3.822,3.822,0,0,1,706,145.854a2.292,2.292,0,0,1,2.4,1.664,4.107,4.107,0,0,1,2.865-1.664c1.793,0,2.641,1.184,2.641,3.408v5.507h-1.457v-5.313c0-1.633-.512-2.322-1.616-2.322a3.209,3.209,0,0,0-2.192,1.329v6.307h-1.457v-5.313c0-1.633-.512-2.322-1.617-2.322a3.209,3.209,0,0,0-2.192,1.329v6.307h-1.456Z" style="fill:#231815"/><path d="M716.737,146.077h1.2l.129,1.265h.047a3.822,3.822,0,0,1,2.705-1.488,2.292,2.292,0,0,1,2.4,1.664,4.109,4.109,0,0,1,2.865-1.664c1.793,0,2.642,1.184,2.642,3.408v5.507H727.27v-5.313c0-1.633-.512-2.322-1.617-2.322a3.211,3.211,0,0,0-2.192,1.329v6.307H722v-5.313c0-1.633-.513-2.322-1.617-2.322a3.213,3.213,0,0,0-2.193,1.329v6.307h-1.456Z" style="fill:#231815"/><path d="M730.9,150.431c0-2.817,1.905-4.577,3.922-4.577,2.209,0,3.457,1.6,3.457,4.081a5.685,5.685,0,0,1-.063.833h-5.858a2.88,2.88,0,0,0,2.881,3.041,3.747,3.747,0,0,0,2.178-.688l.527.96a5.171,5.171,0,0,1-2.881.9C732.754,154.977,730.9,153.3,730.9,150.431Zm6.1-.7c0-1.761-.8-2.705-2.161-2.705a2.673,2.673,0,0,0-2.5,2.705Z" style="fill:#231815"/><path d="M740.417,146.077h1.2l.129,1.585h.047a3,3,0,0,1,2.465-1.809,1.855,1.855,0,0,1,.93.191l-.273,1.281a2.032,2.032,0,0,0-.848-.145c-.721,0-1.617.512-2.193,2v5.587h-1.456Z" style="fill:#231815"/><path d="M749.553,150.431a4.231,4.231,0,0,1,4.193-4.577,3.716,3.716,0,0,1,2.545,1.023l-.752.977a2.523,2.523,0,0,0-1.745-.784c-1.568,0-2.721,1.36-2.721,3.361s1.089,3.329,2.689,3.329a3.066,3.066,0,0,0,2.049-.863l.624.976a4.145,4.145,0,0,1-2.8,1.1C751.329,154.977,749.553,153.313,749.553,150.431Z" style="fill:#231815"/><path d="M757.313,150.431c0-2.9,1.9-4.577,4.033-4.577s4.034,1.68,4.034,4.577c0,2.882-1.905,4.546-4.034,4.546S757.313,153.313,757.313,150.431Zm6.563,0c0-2-1.024-3.361-2.529-3.361s-2.513,1.36-2.513,3.361,1.009,3.329,2.513,3.329S763.875,152.432,763.875,150.431Z" style="fill:#231815"/><path d="M767.664,146.077h1.2l.128,1.249h.049a4.167,4.167,0,0,1,2.913-1.473c1.824,0,2.656,1.184,2.656,3.408v5.507h-1.456v-5.313c0-1.633-.5-2.322-1.648-2.322a3.31,3.31,0,0,0-2.386,1.329v6.307h-1.456Z" style="fill:#231815"/><path d="M777.7,152.08v-4.818h-1.3v-1.1l1.36-.08.176-2.433h1.217v2.433h2.353v1.185h-2.353v4.85c0,1.072.336,1.681,1.345,1.681a3.1,3.1,0,0,0,.992-.224l.288,1.088a5.467,5.467,0,0,1-1.6.32C778.32,154.977,777.7,153.824,777.7,152.08Z" style="fill:#231815"/><path d="M783.2,143.34a1.011,1.011,0,0,1,2.018,0,1.011,1.011,0,0,1-2.018,0Zm.272,2.737h1.456v8.691h-1.456Z" style="fill:#231815"/><path d="M787.872,146.077h1.2l.128,1.249h.049a4.167,4.167,0,0,1,2.913-1.473c1.824,0,2.656,1.184,2.656,3.408v5.507h-1.456v-5.313c0-1.633-.5-2.322-1.648-2.322a3.31,3.31,0,0,0-2.386,1.329v6.307h-1.456Z" style="fill:#231815"/><path d="M797.536,151.584v-5.507h1.457v5.33c0,1.616.479,2.3,1.633,2.3.9,0,1.521-.433,2.353-1.472v-6.163h1.457v8.691h-1.217l-.112-1.36h-.048a3.728,3.728,0,0,1-2.881,1.568C798.353,154.977,797.536,153.792,797.536,151.584Z" style="fill:#231815"/><path d="M806.7,150.431c0-2.817,1.9-4.577,3.922-4.577,2.209,0,3.457,1.6,3.457,4.081a5.668,5.668,0,0,1-.064.833H808.16a2.882,2.882,0,0,0,2.882,3.041,3.746,3.746,0,0,0,2.177-.688l.528.96a5.177,5.177,0,0,1-2.882.9C808.561,154.977,806.7,153.3,806.7,150.431Zm6.1-.7c0-1.761-.8-2.705-2.161-2.705a2.674,2.674,0,0,0-2.5,2.705Z" style="fill:#231815"/><path d="M681.633,188.91c0-3.793,2.226-6.1,5.2-6.1a4.336,4.336,0,0,1,3.217,1.457l-.8.96a3.2,3.2,0,0,0-2.4-1.12c-2.225,0-3.7,1.825-3.7,4.754,0,2.961,1.408,4.817,3.649,4.817a3.565,3.565,0,0,0,2.721-1.312l.816.929a4.537,4.537,0,0,1-3.6,1.681C683.826,194.977,681.633,192.72,681.633,188.91Z" style="fill:#231815"/><path d="M691.842,192.512c0-1.889,1.648-2.833,5.346-3.25,0-1.119-.368-2.192-1.793-2.192a4.79,4.79,0,0,0-2.609.929l-.576-1.009a6.536,6.536,0,0,1,3.426-1.136c2.113,0,3.01,1.424,3.01,3.568v5.347h-1.2l-.128-1.04h-.048a4.659,4.659,0,0,1-2.881,1.248A2.356,2.356,0,0,1,691.842,192.512Zm5.346.145v-2.434c-2.93.352-3.922,1.072-3.922,2.193,0,.992.673,1.393,1.537,1.393A3.553,3.553,0,0,0,697.188,192.656Z" style="fill:#231815"/><path d="M701.426,192.08v-4.818h-1.3v-1.1l1.36-.08.177-2.433h1.216v2.433h2.353v1.185h-2.353v4.85c0,1.072.337,1.681,1.345,1.681a3.093,3.093,0,0,0,.992-.224l.289,1.088a5.48,5.48,0,0,1-1.6.32C702.05,194.977,701.426,193.824,701.426,192.08Z" style="fill:#231815"/><path d="M706.3,190.431a4.231,4.231,0,0,1,4.194-4.577,3.717,3.717,0,0,1,2.545,1.023l-.753.977a2.522,2.522,0,0,0-1.744-.784c-1.568,0-2.721,1.36-2.721,3.361s1.088,3.329,2.688,3.329a3.064,3.064,0,0,0,2.049-.863l.624.976a4.142,4.142,0,0,1-2.8,1.1C708.082,194.977,706.3,193.313,706.3,190.431Z" style="fill:#231815"/><path d="M715.105,182.027h1.457v3.489l-.049,1.793a4.084,4.084,0,0,1,2.881-1.456c1.825,0,2.658,1.184,2.658,3.408v5.507H720.6v-5.313c0-1.633-.5-2.322-1.648-2.322a3.307,3.307,0,0,0-2.385,1.329v6.307h-1.457Z" style="fill:#231815"/><path d="M728.657,192.08v-4.818h-1.3v-1.1l1.36-.08.176-2.433h1.216v2.433h2.354v1.185h-2.354v4.85c0,1.072.337,1.681,1.346,1.681a3.1,3.1,0,0,0,.992-.224l.288,1.088a5.48,5.48,0,0,1-1.6.32C729.281,194.977,728.657,193.824,728.657,192.08Z" style="fill:#231815"/><path d="M734.434,182.027h1.456v3.489l-.048,1.793a4.082,4.082,0,0,1,2.881-1.456c1.824,0,2.657,1.184,2.657,3.408v5.507h-1.456v-5.313c0-1.633-.5-2.322-1.649-2.322a3.309,3.309,0,0,0-2.385,1.329v6.307h-1.456Z" style="fill:#231815"/><path d="M743.488,190.431c0-2.817,1.905-4.577,3.922-4.577,2.209,0,3.457,1.6,3.457,4.081a5.685,5.685,0,0,1-.063.833h-5.858a2.88,2.88,0,0,0,2.881,3.041A3.741,3.741,0,0,0,750,193.12l.528.96a5.171,5.171,0,0,1-2.881.9C745.346,194.977,743.488,193.3,743.488,190.431Zm6.1-.7c0-1.761-.8-2.705-2.161-2.705a2.673,2.673,0,0,0-2.5,2.705Z" style="fill:#231815"/><path d="M756.721,183.035h1.793l2.257,6.275c.272.816.544,1.633.832,2.449h.08c.272-.816.528-1.633.8-2.449l2.24-6.275h1.793v11.733h-1.393v-6.5c0-1.008.112-2.433.192-3.457h-.064l-.928,2.674-2.226,6.1h-.992l-2.225-6.1-.929-2.674h-.063c.063,1.024.176,2.449.176,3.457v6.5h-1.345Z" style="fill:#231815"/><path d="M768.929,190.431c0-2.9,1.9-4.577,4.033-4.577s4.034,1.68,4.034,4.577c0,2.882-1.905,4.546-4.034,4.546S768.929,193.313,768.929,190.431Zm6.563,0c0-2-1.024-3.361-2.529-3.361s-2.513,1.36-2.513,3.361,1.009,3.329,2.513,3.329S775.491,192.432,775.491,190.431Z" style="fill:#231815"/><path d="M779.28,186.077h1.2l.128,1.265h.049a3.818,3.818,0,0,1,2.705-1.488,2.291,2.291,0,0,1,2.4,1.664,4.107,4.107,0,0,1,2.865-1.664c1.793,0,2.642,1.184,2.642,3.408v5.507h-1.457v-5.313c0-1.633-.513-2.322-1.616-2.322A3.211,3.211,0,0,0,786,188.462v6.307h-1.457v-5.313c0-1.633-.512-2.322-1.616-2.322a3.213,3.213,0,0,0-2.193,1.329v6.307H779.28Z" style="fill:#231815"/><path d="M793.44,190.431c0-2.817,1.9-4.577,3.922-4.577,2.209,0,3.457,1.6,3.457,4.081a5.668,5.668,0,0,1-.064.833H794.9a2.882,2.882,0,0,0,2.882,3.041,3.746,3.746,0,0,0,2.177-.688l.528.96a5.177,5.177,0,0,1-2.882.9C795.3,194.977,793.44,193.3,793.44,190.431Zm6.1-.7c0-1.761-.8-2.705-2.161-2.705a2.674,2.674,0,0,0-2.5,2.705Z" style="fill:#231815"/><path d="M802.96,186.077h1.2l.128,1.249h.049a4.167,4.167,0,0,1,2.913-1.473c1.824,0,2.656,1.184,2.656,3.408v5.507H808.45v-5.313c0-1.633-.5-2.322-1.648-2.322a3.31,3.31,0,0,0-2.386,1.329v6.307H802.96Z" style="fill:#231815"/><path d="M812.992,192.08v-4.818h-1.3v-1.1l1.36-.08.176-2.433h1.217v2.433H816.8v1.185h-2.353v4.85c0,1.072.336,1.681,1.345,1.681a3.1,3.1,0,0,0,.992-.224l.288,1.088a5.467,5.467,0,0,1-1.6.32C813.616,194.977,812.992,193.824,812.992,192.08Z" style="fill:#231815"/><path d="M681.633,218.91c0-3.793,2.226-6.1,5.2-6.1a4.336,4.336,0,0,1,3.217,1.457l-.8.96a3.2,3.2,0,0,0-2.4-1.12c-2.225,0-3.7,1.825-3.7,4.754,0,2.961,1.408,4.817,3.649,4.817a3.565,3.565,0,0,0,2.721-1.312l.816.929a4.537,4.537,0,0,1-3.6,1.681C683.826,224.977,681.633,222.72,681.633,218.91Z" style="fill:#231815"/><path d="M691.842,222.512c0-1.889,1.648-2.833,5.346-3.25,0-1.119-.368-2.192-1.793-2.192a4.79,4.79,0,0,0-2.609.929l-.576-1.009a6.536,6.536,0,0,1,3.426-1.136c2.113,0,3.01,1.424,3.01,3.568v5.347h-1.2l-.128-1.04h-.048a4.659,4.659,0,0,1-2.881,1.248A2.356,2.356,0,0,1,691.842,222.512Zm5.346.145v-2.434c-2.93.352-3.922,1.072-3.922,2.193,0,.992.673,1.393,1.537,1.393A3.553,3.553,0,0,0,697.188,222.656Z" style="fill:#231815"/><path d="M701.426,222.08v-4.818h-1.3v-1.1l1.36-.08.177-2.433h1.216v2.433h2.353v1.185h-2.353v4.85c0,1.072.337,1.681,1.345,1.681a3.093,3.093,0,0,0,.992-.224l.289,1.088a5.48,5.48,0,0,1-1.6.32C702.05,224.977,701.426,223.824,701.426,222.08Z" style="fill:#231815"/><path d="M706.3,220.431a4.231,4.231,0,0,1,4.194-4.577,3.717,3.717,0,0,1,2.545,1.023l-.753.977a2.522,2.522,0,0,0-1.744-.784c-1.568,0-2.721,1.36-2.721,3.361s1.088,3.329,2.688,3.329a3.064,3.064,0,0,0,2.049-.863l.624.976a4.142,4.142,0,0,1-2.8,1.1C708.082,224.977,706.3,223.313,706.3,220.431Z" style="fill:#231815"/><path d="M715.105,212.027h1.457v3.489l-.049,1.793a4.084,4.084,0,0,1,2.881-1.456c1.825,0,2.658,1.184,2.658,3.408v5.507H720.6v-5.313c0-1.633-.5-2.322-1.648-2.322a3.307,3.307,0,0,0-2.385,1.329v6.307h-1.457Z" style="fill:#231815"/><path d="M728.657,222.08v-4.818h-1.3v-1.1l1.36-.08.176-2.433h1.216v2.433h2.354v1.185h-2.354v4.85c0,1.072.337,1.681,1.346,1.681a3.1,3.1,0,0,0,.992-.224l.288,1.088a5.48,5.48,0,0,1-1.6.32C729.281,224.977,728.657,223.824,728.657,222.08Z" style="fill:#231815"/><path d="M734.434,212.027h1.456v3.489l-.048,1.793a4.082,4.082,0,0,1,2.881-1.456c1.824,0,2.657,1.184,2.657,3.408v5.507h-1.456v-5.313c0-1.633-.5-2.322-1.649-2.322a3.309,3.309,0,0,0-2.385,1.329v6.307h-1.456Z" style="fill:#231815"/><path d="M743.488,220.431c0-2.817,1.905-4.577,3.922-4.577,2.209,0,3.457,1.6,3.457,4.081a5.685,5.685,0,0,1-.063.833h-5.858a2.88,2.88,0,0,0,2.881,3.041A3.741,3.741,0,0,0,750,223.12l.528.96a5.171,5.171,0,0,1-2.881.9C745.346,224.977,743.488,223.3,743.488,220.431Zm6.1-.7c0-1.761-.8-2.705-2.161-2.705a2.673,2.673,0,0,0-2.5,2.705Z" style="fill:#231815"/><path d="M756.721,213.035h1.793l2.257,6.275c.272.816.544,1.633.832,2.449h.08c.272-.816.528-1.633.8-2.449l2.24-6.275h1.793v11.733h-1.393v-6.5c0-1.008.112-2.433.192-3.457h-.064l-.928,2.674-2.226,6.1h-.992l-2.225-6.1-.929-2.674h-.063c.063,1.024.176,2.449.176,3.457v6.5h-1.345Z" style="fill:#231815"/><path d="M768.929,220.431c0-2.9,1.9-4.577,4.033-4.577s4.034,1.68,4.034,4.577c0,2.882-1.905,4.546-4.034,4.546S768.929,223.313,768.929,220.431Zm6.563,0c0-2-1.024-3.361-2.529-3.361s-2.513,1.36-2.513,3.361,1.009,3.329,2.513,3.329S775.491,222.432,775.491,220.431Z" style="fill:#231815"/><path d="M779.28,216.077h1.2l.128,1.265h.049a3.818,3.818,0,0,1,2.705-1.488,2.291,2.291,0,0,1,2.4,1.664,4.107,4.107,0,0,1,2.865-1.664c1.793,0,2.642,1.184,2.642,3.408v5.507h-1.457v-5.313c0-1.633-.513-2.322-1.616-2.322A3.211,3.211,0,0,0,786,218.462v6.307h-1.457v-5.313c0-1.633-.512-2.322-1.616-2.322a3.213,3.213,0,0,0-2.193,1.329v6.307H779.28Z" style="fill:#231815"/><path d="M793.44,220.431c0-2.817,1.9-4.577,3.922-4.577,2.209,0,3.457,1.6,3.457,4.081a5.668,5.668,0,0,1-.064.833H794.9a2.882,2.882,0,0,0,2.882,3.041,3.746,3.746,0,0,0,2.177-.688l.528.96a5.177,5.177,0,0,1-2.882.9C795.3,224.977,793.44,223.3,793.44,220.431Zm6.1-.7c0-1.761-.8-2.705-2.161-2.705a2.674,2.674,0,0,0-2.5,2.705Z" style="fill:#231815"/><path d="M802.96,216.077h1.2l.128,1.249h.049a4.167,4.167,0,0,1,2.913-1.473c1.824,0,2.656,1.184,2.656,3.408v5.507H808.45v-5.313c0-1.633-.5-2.322-1.648-2.322a3.31,3.31,0,0,0-2.386,1.329v6.307H802.96Z" style="fill:#231815"/><path d="M812.992,222.08v-4.818h-1.3v-1.1l1.36-.08.176-2.433h1.217v2.433H816.8v1.185h-2.353v4.85c0,1.072.336,1.681,1.345,1.681a3.1,3.1,0,0,0,.992-.224l.288,1.088a5.467,5.467,0,0,1-1.6.32C813.616,224.977,812.992,223.824,812.992,222.08Z" style="fill:#231815"/><path d="M681.633,248.91c0-3.793,2.226-6.1,5.2-6.1a4.336,4.336,0,0,1,3.217,1.457l-.8.96a3.2,3.2,0,0,0-2.4-1.12c-2.225,0-3.7,1.825-3.7,4.754,0,2.961,1.408,4.817,3.649,4.817a3.565,3.565,0,0,0,2.721-1.312l.816.929a4.537,4.537,0,0,1-3.6,1.681C683.826,254.977,681.633,252.72,681.633,248.91Z" style="fill:#231815"/><path d="M691.842,252.512c0-1.889,1.648-2.833,5.346-3.25,0-1.119-.368-2.192-1.793-2.192a4.79,4.79,0,0,0-2.609.929l-.576-1.009a6.536,6.536,0,0,1,3.426-1.136c2.113,0,3.01,1.424,3.01,3.568v5.347h-1.2l-.128-1.04h-.048a4.659,4.659,0,0,1-2.881,1.248A2.356,2.356,0,0,1,691.842,252.512Zm5.346.145v-2.434c-2.93.352-3.922,1.072-3.922,2.193,0,.992.673,1.393,1.537,1.393A3.553,3.553,0,0,0,697.188,252.656Z" style="fill:#231815"/><path d="M701.426,252.08v-4.818h-1.3v-1.1l1.36-.08.177-2.433h1.216v2.433h2.353v1.185h-2.353v4.85c0,1.072.337,1.681,1.345,1.681a3.093,3.093,0,0,0,.992-.224l.289,1.088a5.48,5.48,0,0,1-1.6.32C702.05,254.977,701.426,253.824,701.426,252.08Z" style="fill:#231815"/><path d="M706.3,250.431a4.231,4.231,0,0,1,4.194-4.577,3.717,3.717,0,0,1,2.545,1.023l-.753.977a2.522,2.522,0,0,0-1.744-.784c-1.568,0-2.721,1.36-2.721,3.361s1.088,3.329,2.688,3.329a3.064,3.064,0,0,0,2.049-.863l.624.976a4.142,4.142,0,0,1-2.8,1.1C708.082,254.977,706.3,253.313,706.3,250.431Z" style="fill:#231815"/><path d="M715.105,242.027h1.457v3.489l-.049,1.793a4.084,4.084,0,0,1,2.881-1.456c1.825,0,2.658,1.184,2.658,3.408v5.507H720.6v-5.313c0-1.633-.5-2.322-1.648-2.322a3.307,3.307,0,0,0-2.385,1.329v6.307h-1.457Z" style="fill:#231815"/><path d="M728.657,252.08v-4.818h-1.3v-1.1l1.36-.08.176-2.433h1.216v2.433h2.354v1.185h-2.354v4.85c0,1.072.337,1.681,1.346,1.681a3.1,3.1,0,0,0,.992-.224l.288,1.088a5.48,5.48,0,0,1-1.6.32C729.281,254.977,728.657,253.824,728.657,252.08Z" style="fill:#231815"/><path d="M734.434,242.027h1.456v3.489l-.048,1.793a4.082,4.082,0,0,1,2.881-1.456c1.824,0,2.657,1.184,2.657,3.408v5.507h-1.456v-5.313c0-1.633-.5-2.322-1.649-2.322a3.309,3.309,0,0,0-2.385,1.329v6.307h-1.456Z" style="fill:#231815"/><path d="M743.488,250.431c0-2.817,1.905-4.577,3.922-4.577,2.209,0,3.457,1.6,3.457,4.081a5.685,5.685,0,0,1-.063.833h-5.858a2.88,2.88,0,0,0,2.881,3.041A3.741,3.741,0,0,0,750,253.12l.528.96a5.171,5.171,0,0,1-2.881.9C745.346,254.977,743.488,253.3,743.488,250.431Zm6.1-.7c0-1.761-.8-2.705-2.161-2.705a2.673,2.673,0,0,0-2.5,2.705Z" style="fill:#231815"/><path d="M756.721,243.035h1.793l2.257,6.275c.272.816.544,1.633.832,2.449h.08c.272-.816.528-1.633.8-2.449l2.24-6.275h1.793v11.733h-1.393v-6.5c0-1.008.112-2.433.192-3.457h-.064l-.928,2.674-2.226,6.1h-.992l-2.225-6.1-.929-2.674h-.063c.063,1.024.176,2.449.176,3.457v6.5h-1.345Z" style="fill:#231815"/><path d="M768.929,250.431c0-2.9,1.9-4.577,4.033-4.577s4.034,1.68,4.034,4.577c0,2.882-1.905,4.546-4.034,4.546S768.929,253.313,768.929,250.431Zm6.563,0c0-2-1.024-3.361-2.529-3.361s-2.513,1.36-2.513,3.361,1.009,3.329,2.513,3.329S775.491,252.432,775.491,250.431Z" style="fill:#231815"/><path d="M779.28,246.077h1.2l.128,1.265h.049a3.818,3.818,0,0,1,2.705-1.488,2.291,2.291,0,0,1,2.4,1.664,4.107,4.107,0,0,1,2.865-1.664c1.793,0,2.642,1.184,2.642,3.408v5.507h-1.457v-5.313c0-1.633-.513-2.322-1.616-2.322A3.211,3.211,0,0,0,786,248.462v6.307h-1.457v-5.313c0-1.633-.512-2.322-1.616-2.322a3.213,3.213,0,0,0-2.193,1.329v6.307H779.28Z" style="fill:#231815"/><path d="M793.44,250.431c0-2.817,1.9-4.577,3.922-4.577,2.209,0,3.457,1.6,3.457,4.081a5.668,5.668,0,0,1-.064.833H794.9a2.882,2.882,0,0,0,2.882,3.041,3.746,3.746,0,0,0,2.177-.688l.528.96a5.177,5.177,0,0,1-2.882.9C795.3,254.977,793.44,253.3,793.44,250.431Zm6.1-.7c0-1.761-.8-2.705-2.161-2.705a2.674,2.674,0,0,0-2.5,2.705Z" style="fill:#231815"/><path d="M802.96,246.077h1.2l.128,1.249h.049a4.167,4.167,0,0,1,2.913-1.473c1.824,0,2.656,1.184,2.656,3.408v5.507H808.45v-5.313c0-1.633-.5-2.322-1.648-2.322a3.31,3.31,0,0,0-2.386,1.329v6.307H802.96Z" style="fill:#231815"/><path d="M812.992,252.08v-4.818h-1.3v-1.1l1.36-.08.176-2.433h1.217v2.433H816.8v1.185h-2.353v4.85c0,1.072.336,1.681,1.345,1.681a3.1,3.1,0,0,0,.992-.224l.288,1.088a5.467,5.467,0,0,1-1.6.32C813.616,254.977,812.992,253.824,812.992,252.08Z" style="fill:#231815"/><path d="M832.633,188.91c0-3.793,2.226-6.1,5.2-6.1a4.336,4.336,0,0,1,3.217,1.457l-.8.96a3.2,3.2,0,0,0-2.4-1.12c-2.225,0-3.7,1.825-3.7,4.754,0,2.961,1.408,4.817,3.649,4.817a3.565,3.565,0,0,0,2.721-1.312l.816.929a4.537,4.537,0,0,1-3.6,1.681C834.826,194.977,832.633,192.72,832.633,188.91Z" style="fill:#231815"/><path d="M842.842,192.512c0-1.889,1.648-2.833,5.346-3.25,0-1.119-.368-2.192-1.793-2.192a4.79,4.79,0,0,0-2.609.929l-.576-1.009a6.536,6.536,0,0,1,3.426-1.136c2.113,0,3.01,1.424,3.01,3.568v5.347h-1.2l-.128-1.04h-.048a4.659,4.659,0,0,1-2.881,1.248A2.356,2.356,0,0,1,842.842,192.512Zm5.346.145v-2.434c-2.93.352-3.922,1.072-3.922,2.193,0,.992.673,1.393,1.537,1.393A3.553,3.553,0,0,0,848.188,192.656Z" style="fill:#231815"/><path d="M852.426,192.08v-4.818h-1.3v-1.1l1.36-.08.177-2.433h1.216v2.433h2.353v1.185h-2.353v4.85c0,1.072.337,1.681,1.345,1.681a3.093,3.093,0,0,0,.992-.224l.289,1.088a5.48,5.48,0,0,1-1.6.32C853.05,194.977,852.426,193.824,852.426,192.08Z" style="fill:#231815"/><path d="M857.3,190.431a4.231,4.231,0,0,1,4.194-4.577,3.717,3.717,0,0,1,2.545,1.023l-.753.977a2.522,2.522,0,0,0-1.744-.784c-1.568,0-2.721,1.36-2.721,3.361s1.088,3.329,2.688,3.329a3.064,3.064,0,0,0,2.049-.863l.624.976a4.142,4.142,0,0,1-2.8,1.1C859.082,194.977,857.3,193.313,857.3,190.431Z" style="fill:#231815"/><path d="M866.105,182.027h1.457v3.489l-.049,1.793a4.084,4.084,0,0,1,2.881-1.456c1.825,0,2.658,1.184,2.658,3.408v5.507H871.6v-5.313c0-1.633-.5-2.322-1.648-2.322a3.307,3.307,0,0,0-2.385,1.329v6.307h-1.457Z" style="fill:#231815"/><path d="M879.657,192.08v-4.818h-1.3v-1.1l1.36-.08.176-2.433h1.216v2.433h2.354v1.185h-2.354v4.85c0,1.072.337,1.681,1.346,1.681a3.1,3.1,0,0,0,.992-.224l.288,1.088a5.48,5.48,0,0,1-1.6.32C880.281,194.977,879.657,193.824,879.657,192.08Z" style="fill:#231815"/><path d="M885.434,182.027h1.456v3.489l-.048,1.793a4.082,4.082,0,0,1,2.881-1.456c1.824,0,2.657,1.184,2.657,3.408v5.507h-1.456v-5.313c0-1.633-.5-2.322-1.649-2.322a3.309,3.309,0,0,0-2.385,1.329v6.307h-1.456Z" style="fill:#231815"/><path d="M894.488,190.431c0-2.817,1.905-4.577,3.922-4.577,2.209,0,3.457,1.6,3.457,4.081a5.685,5.685,0,0,1-.063.833h-5.858a2.88,2.88,0,0,0,2.881,3.041A3.741,3.741,0,0,0,901,193.12l.528.96a5.171,5.171,0,0,1-2.881.9C896.346,194.977,894.488,193.3,894.488,190.431Zm6.1-.7c0-1.761-.8-2.705-2.161-2.705a2.673,2.673,0,0,0-2.5,2.705Z" style="fill:#231815"/><path d="M907.721,183.035h1.793l2.257,6.275c.272.816.544,1.633.832,2.449h.08c.272-.816.528-1.633.8-2.449l2.24-6.275h1.793v11.733h-1.393v-6.5c0-1.008.112-2.433.192-3.457h-.064l-.928,2.674-2.226,6.1h-.992l-2.225-6.1-.929-2.674h-.063c.063,1.024.176,2.449.176,3.457v6.5h-1.345Z" style="fill:#231815"/><path d="M919.929,190.431c0-2.9,1.9-4.577,4.033-4.577s4.034,1.68,4.034,4.577c0,2.882-1.905,4.546-4.034,4.546S919.929,193.313,919.929,190.431Zm6.563,0c0-2-1.024-3.361-2.529-3.361s-2.513,1.36-2.513,3.361,1.009,3.329,2.513,3.329S926.491,192.432,926.491,190.431Z" style="fill:#231815"/><path d="M930.28,186.077h1.2l.128,1.265h.049a3.818,3.818,0,0,1,2.705-1.488,2.291,2.291,0,0,1,2.4,1.664,4.107,4.107,0,0,1,2.865-1.664c1.793,0,2.642,1.184,2.642,3.408v5.507h-1.457v-5.313c0-1.633-.513-2.322-1.616-2.322A3.211,3.211,0,0,0,937,188.462v6.307h-1.457v-5.313c0-1.633-.512-2.322-1.616-2.322a3.213,3.213,0,0,0-2.193,1.329v6.307H930.28Z" style="fill:#231815"/><path d="M944.44,190.431c0-2.817,1.9-4.577,3.922-4.577,2.209,0,3.457,1.6,3.457,4.081a5.668,5.668,0,0,1-.064.833H945.9a2.882,2.882,0,0,0,2.882,3.041,3.746,3.746,0,0,0,2.177-.688l.528.96a5.177,5.177,0,0,1-2.882.9C946.3,194.977,944.44,193.3,944.44,190.431Zm6.1-.7c0-1.761-.8-2.705-2.161-2.705a2.674,2.674,0,0,0-2.5,2.705Z" style="fill:#231815"/><path d="M953.96,186.077h1.2l.128,1.249h.049a4.167,4.167,0,0,1,2.913-1.473c1.824,0,2.656,1.184,2.656,3.408v5.507H959.45v-5.313c0-1.633-.5-2.322-1.648-2.322a3.31,3.31,0,0,0-2.386,1.329v6.307H953.96Z" style="fill:#231815"/><path d="M963.992,192.08v-4.818h-1.3v-1.1l1.36-.08.176-2.433h1.217v2.433H967.8v1.185h-2.353v4.85c0,1.072.336,1.681,1.345,1.681a3.1,3.1,0,0,0,.992-.224l.288,1.088a5.467,5.467,0,0,1-1.6.32C964.616,194.977,963.992,193.824,963.992,192.08Z" style="fill:#231815"/><path d="M860.034,212.748c-.032.3-.048.768-.048,1.152v5.346c0,.4.016.929.048,1.217h-1.473c.016-.24.063-.752.063-1.232V213.9c0-.289-.031-.849-.063-1.152Zm7.411-.112c-.032.384-.064.849-.064,1.376v2.594c0,3.842-.512,5.105-1.664,6.482a8.559,8.559,0,0,1-3.811,2.337l-1.04-1.1a7.384,7.384,0,0,0,3.842-2.129c1.152-1.328,1.345-2.625,1.345-5.65v-2.529c0-.527-.049-.992-.08-1.376Z" style="fill:#231815"/><path d="M877.043,221.424a15.086,15.086,0,0,0,5.347-5.891l.769,1.36a15.97,15.97,0,0,1-5.379,5.683,17.268,17.268,0,0,1-6.29,2.5l-.849-1.312A16.542,16.542,0,0,0,877.043,221.424Zm-.943-5.074-1.01,1.008a33.327,33.327,0,0,0-3.984-3.346l.912-.977A35.1,35.1,0,0,1,876.1,216.35Z" style="fill:#231815"/><path d="M894.4,214.652a3.049,3.049,0,0,0,1.041-.145l1.057.641a4.964,4.964,0,0,0-.369.849,15.664,15.664,0,0,1-2.832,5.522,14.26,14.26,0,0,1-6.371,4.354l-1.168-1.057a12.368,12.368,0,0,0,8.947-9.012h-5.395a15.432,15.432,0,0,1-4.065,3.938l-1.1-.816a13.394,13.394,0,0,0,5.025-5.41,5.924,5.924,0,0,0,.5-1.28l1.473.5c-.257.417-.544.96-.7,1.249-.112.224-.24.447-.369.672Zm1.041-2.689a22.6,22.6,0,0,1,1.313,2.193l-.864.385a18.014,18.014,0,0,0-1.3-2.209Zm1.761-.64a19.952,19.952,0,0,1,1.328,2.177l-.849.385a16.467,16.467,0,0,0-1.328-2.193Z" style="fill:#231815"/><path d="M912.311,213.948c-.112.16-.32.4-.433.576a15.426,15.426,0,0,1-3.985,4.418l-1.057-.849a10.785,10.785,0,0,0,3.489-3.586h-9.107c-.592,0-1.185.033-1.825.1v-1.44a16.8,16.8,0,0,0,1.825.128h9.188a7.787,7.787,0,0,0,1.121-.1Zm-6.387,2.112c0,4.338-.385,7.268-4.466,9.3l-1.169-.96a6.216,6.216,0,0,0,1.425-.7c2.481-1.521,2.833-3.81,2.833-6.483a9.654,9.654,0,0,0-.063-1.152Z" style="fill:#231815"/><path d="M914.705,219.5c.769-.783,2.161-2.561,3.17-3.745.848-1.009,1.5-1.12,2.657-.16a40.422,40.422,0,0,1,3.313,3.313c1.073,1.152,2.706,2.9,3.874,4.273l-1.04,1.137c-1.121-1.44-2.577-3.09-3.6-4.258a43.282,43.282,0,0,0-3.121-3.249c-.673-.561-.9-.544-1.441.128-.768.928-2.112,2.689-2.833,3.569-.336.416-.688.913-.928,1.232l-1.169-1.185C913.985,220.207,914.289,219.918,914.705,219.5Zm10.581-3.057-.929.432a16.8,16.8,0,0,0-1.488-2.561l.912-.4A24.55,24.55,0,0,1,925.286,216.445Zm2.112-.849-.928.448a16.772,16.772,0,0,0-1.537-2.529l.9-.416A23.992,23.992,0,0,1,927.4,215.6Z" style="fill:#231815"/><path d="M929.137,224.353a7.6,7.6,0,0,0,2.785-3.937,28.668,28.668,0,0,0,.479-6.435,5.953,5.953,0,0,0-.111-1.169h1.473c-.017.192-.08.673-.08,1.153a35.07,35.07,0,0,1-.5,6.8,8.828,8.828,0,0,1-2.85,4.385Zm7.331.08a3.853,3.853,0,0,0,.111-.9v-9.588a7.9,7.9,0,0,0-.1-1.185h1.473a10.227,10.227,0,0,0-.064,1.185v9.235a12.144,12.144,0,0,0,4.658-3.937l.769,1.089a16.117,16.117,0,0,1-5.458,4.434,3.206,3.206,0,0,0-.545.368Z" style="fill:#231815"/><path d="M833.865,248.91c0-3.793,2.225-6.1,5.2-6.1a4.336,4.336,0,0,1,3.218,1.457l-.8.96a3.205,3.205,0,0,0-2.4-1.12c-2.226,0-3.7,1.825-3.7,4.754,0,2.961,1.408,4.817,3.649,4.817a3.565,3.565,0,0,0,2.721-1.312l.816.929a4.534,4.534,0,0,1-3.6,1.681C836.058,254.977,833.865,252.72,833.865,248.91Z" style="fill:#231815"/><path d="M844.072,252.512c0-1.889,1.649-2.833,5.347-3.25,0-1.119-.368-2.192-1.792-2.192a4.781,4.781,0,0,0-2.609.929l-.576-1.009a6.529,6.529,0,0,1,3.425-1.136c2.113,0,3.009,1.424,3.009,3.568v5.347h-1.2l-.129-1.04H849.5a4.659,4.659,0,0,1-2.881,1.248A2.357,2.357,0,0,1,844.072,252.512Zm5.347.145v-2.434c-2.929.352-3.921,1.072-3.921,2.193,0,.992.672,1.393,1.536,1.393A3.553,3.553,0,0,0,849.419,252.656Z" style="fill:#231815"/><path d="M853.656,252.08v-4.818h-1.3v-1.1l1.36-.08.176-2.433h1.217v2.433h2.354v1.185h-2.354v4.85c0,1.072.336,1.681,1.345,1.681a3.11,3.11,0,0,0,.993-.224l.287,1.088a5.467,5.467,0,0,1-1.6.32C854.281,254.977,853.656,253.824,853.656,252.08Z" style="fill:#231815"/><path d="M858.537,250.431a4.231,4.231,0,0,1,4.193-4.577,3.717,3.717,0,0,1,2.545,1.023l-.752.977a2.527,2.527,0,0,0-1.745-.784c-1.569,0-2.722,1.36-2.722,3.361s1.089,3.329,2.689,3.329a3.062,3.062,0,0,0,2.049-.863l.625.976a4.15,4.15,0,0,1-2.8,1.1C860.313,254.977,858.537,253.313,858.537,250.431Z" style="fill:#231815"/><path d="M867.337,242.027h1.456v3.489l-.047,1.793a4.078,4.078,0,0,1,2.881-1.456c1.824,0,2.656,1.184,2.656,3.408v5.507h-1.456v-5.313c0-1.633-.5-2.322-1.649-2.322a3.31,3.31,0,0,0-2.385,1.329v6.307h-1.456Z" style="fill:#231815"/><path d="M880.889,252.08v-4.818h-1.3v-1.1l1.361-.08.176-2.433h1.217v2.433H884.7v1.185h-2.353v4.85c0,1.072.336,1.681,1.344,1.681a3.1,3.1,0,0,0,.993-.224l.288,1.088a5.467,5.467,0,0,1-1.6.32C881.514,254.977,880.889,253.824,880.889,252.08Z" style="fill:#231815"/><path d="M886.664,242.027h1.457v3.489l-.048,1.793a4.08,4.08,0,0,1,2.881-1.456c1.825,0,2.657,1.184,2.657,3.408v5.507h-1.457v-5.313c0-1.633-.5-2.322-1.648-2.322a3.309,3.309,0,0,0-2.385,1.329v6.307h-1.457Z" style="fill:#231815"/><path d="M895.721,250.431c0-2.817,1.9-4.577,3.921-4.577,2.209,0,3.458,1.6,3.458,4.081a5.668,5.668,0,0,1-.064.833h-5.858a2.881,2.881,0,0,0,2.881,3.041,3.741,3.741,0,0,0,2.177-.688l.528.96a5.171,5.171,0,0,1-2.881.9C897.576,254.977,895.721,253.3,895.721,250.431Zm6.1-.7c0-1.761-.8-2.705-2.16-2.705a2.675,2.675,0,0,0-2.5,2.705Z" style="fill:#231815"/><path d="M908.952,243.035h1.793L913,249.311c.272.816.544,1.633.832,2.449h.08c.272-.816.528-1.633.8-2.449l2.24-6.275h1.793v11.733h-1.393v-6.5c0-1.008.112-2.433.192-3.457h-.064l-.928,2.674-2.226,6.1h-.992l-2.225-6.1-.929-2.674h-.063c.063,1.024.176,2.449.176,3.457v6.5h-1.345Z" style="fill:#231815"/><path d="M921.16,250.431c0-2.9,1.9-4.577,4.033-4.577s4.034,1.68,4.034,4.577c0,2.882-1.905,4.546-4.034,4.546S921.16,253.313,921.16,250.431Zm6.563,0c0-2-1.024-3.361-2.529-3.361s-2.513,1.36-2.513,3.361,1.009,3.329,2.513,3.329S927.723,252.432,927.723,250.431Z" style="fill:#231815"/><path d="M931.512,246.077h1.2l.128,1.265h.049a3.818,3.818,0,0,1,2.705-1.488,2.291,2.291,0,0,1,2.4,1.664,4.107,4.107,0,0,1,2.865-1.664c1.793,0,2.642,1.184,2.642,3.408v5.507h-1.457v-5.313c0-1.633-.513-2.322-1.616-2.322a3.211,3.211,0,0,0-2.193,1.329v6.307h-1.457v-5.313c0-1.633-.512-2.322-1.616-2.322a3.213,3.213,0,0,0-2.193,1.329v6.307h-1.456Z" style="fill:#231815"/><path d="M945.672,250.431c0-2.817,1.9-4.577,3.922-4.577,2.209,0,3.457,1.6,3.457,4.081a5.668,5.668,0,0,1-.064.833h-5.858a2.882,2.882,0,0,0,2.882,3.041,3.746,3.746,0,0,0,2.177-.688l.528.96a5.177,5.177,0,0,1-2.882.9C947.528,254.977,945.672,253.3,945.672,250.431Zm6.1-.7c0-1.761-.8-2.705-2.161-2.705a2.674,2.674,0,0,0-2.5,2.705Z" style="fill:#231815"/><path d="M954.888,253.872a1.059,1.059,0,1,1,2.112,0,1.057,1.057,0,1,1-2.112,0Z" style="fill:#231815"/><path d="M959.336,253.872a1.059,1.059,0,1,1,2.112,0,1.057,1.057,0,1,1-2.112,0Z" style="fill:#231815"/><path d="M963.784,253.872a1.059,1.059,0,1,1,2.112,0,1.057,1.057,0,1,1-2.112,0Z" style="fill:#231815"/><path d="M447.969,63.553h2.609V54.8H448.5v-.929a7.417,7.417,0,0,0,2.433-.833h1.12V63.553H454.4v1.216h-6.435Z" style="fill:#231815"/><path d="M388.507,17.748l1.148-.393v1.779h1.975v.91h-1.975v4.412c0,.967.294,1.5,1.037,1.5a2.263,2.263,0,0,0,.784-.112l.07.9a2.932,2.932,0,0,1-1.135.183c-1.849,0-1.9-1.681-1.9-2.493V20.045H387.33v-.91h1.177Z" style="fill:#231815"/><path d="M396.643,20.115a3.586,3.586,0,0,0-.42-.028c-1.261,0-1.905,1.247-1.905,2.535v4.146h-1.163V21.418c0-.812-.014-1.555-.056-2.283h1.022l.056,1.471h.042a2.284,2.284,0,0,1,2.073-1.639,3.061,3.061,0,0,1,.351.041Z" style="fill:#231815"/><path d="M403,24.947a10.676,10.676,0,0,0,.112,1.821h-1.064l-.112-.98h-.042a2.654,2.654,0,0,1-2.255,1.148,2.116,2.116,0,0,1-2.227-2.171c0-1.835,1.6-2.83,4.426-2.815,0-.645,0-2.1-1.737-2.1a3.311,3.311,0,0,0-1.863.546l-.28-.8a4.345,4.345,0,0,1,2.325-.645c2.157,0,2.718,1.526,2.718,3.04ZM401.85,22.8c-1.442,0-3.25.21-3.25,1.82a1.27,1.27,0,0,0,1.317,1.415,1.866,1.866,0,0,0,1.933-1.793Z" style="fill:#231815"/><path d="M410.391,26.488a4.876,4.876,0,0,1-2.073.435,3.554,3.554,0,0,1-3.628-3.895,3.819,3.819,0,0,1,3.908-4.076,4.219,4.219,0,0,1,1.835.406l-.294.938a3.1,3.1,0,0,0-1.569-.393c-1.765,0-2.689,1.416-2.689,3.055,0,1.849,1.106,3.012,2.647,3.012a3.826,3.826,0,0,0,1.653-.379Z" style="fill:#231815"/><path d="M417.937,26.769h-1.429L413.875,23l-.7.8v2.97h-1.163V15.563h1.163v7.13h.028c.182-.267.448-.6.658-.854l2.283-2.7h1.4l-2.872,3.151Z" style="fill:#231815"/><path d="M424.179,28.688a10.211,10.211,0,0,1-2.073-6.43,10.309,10.309,0,0,1,2.073-6.485h.953a10.441,10.441,0,0,0-2,6.5,10.566,10.566,0,0,0,2,6.416Z" style="fill:#231815"/><path d="M427.146,17.789a.792.792,0,0,1,.014-1.582.792.792,0,0,1-.014,1.582Zm.588,8.979h-1.163V19.135h1.163Z" style="fill:#231815"/><path d="M436.151,26.769h-1.163V22.258c0-1.246-.448-2.339-1.779-2.339a2.08,2.08,0,0,0-2,2.171v4.679h-1.163V21.1c0-.785-.028-1.359-.056-1.975h1.037l.07,1.246h.028a2.726,2.726,0,0,1,2.452-1.415c.952,0,2.577.575,2.577,3.166Z" style="fill:#231815"/><path d="M438.71,17.748l1.148-.393v1.779h1.975v.91h-1.975v4.412c0,.967.294,1.5,1.037,1.5a2.263,2.263,0,0,0,.784-.112l.07.9a2.932,2.932,0,0,1-1.135.183c-1.849,0-1.9-1.681-1.9-2.493V20.045h-1.177v-.91h1.177Z" style="fill:#231815"/><path d="M444.786,24.934a20.777,20.777,0,0,1-1.415,3.712l-.854.1a22.433,22.433,0,0,0,.911-3.655Z" style="fill:#231815"/><path d="M454.854,26.488a4.878,4.878,0,0,1-2.073.435,3.554,3.554,0,0,1-3.627-3.895,3.819,3.819,0,0,1,3.908-4.076,4.219,4.219,0,0,1,1.835.406l-.294.938a3.1,3.1,0,0,0-1.568-.393c-1.766,0-2.69,1.416-2.69,3.055,0,1.849,1.107,3.012,2.647,3.012a3.827,3.827,0,0,0,1.653-.379Z" style="fill:#231815"/><path d="M457.638,26.769h-1.163V15.563h1.163Z" style="fill:#231815"/><path d="M465.928,24.737c0,.784.042,1.442.07,2.031h-1.051l-.056-1.2h-.042a2.77,2.77,0,0,1-2.437,1.372c-1.148,0-2.508-.658-2.508-3.292v-4.51h1.163v4.3c0,1.485.434,2.521,1.709,2.521a2.02,2.02,0,0,0,1.988-2.073V19.135h1.163Z" style="fill:#231815"/><path d="M471.792,20.3a2.74,2.74,0,0,0-1.485-.448,1.15,1.15,0,0,0-1.288,1.135c0,.658.434.967,1.415,1.387,1.232.5,1.946,1.148,1.946,2.3,0,1.358-1.036,2.255-2.7,2.255a4.033,4.033,0,0,1-2-.519l.322-.9a3.625,3.625,0,0,0,1.723.519c1.022,0,1.526-.546,1.526-1.233,0-.714-.406-1.105-1.414-1.512-1.289-.52-1.947-1.233-1.947-2.158a2.256,2.256,0,0,1,2.493-2.171,3.382,3.382,0,0,1,1.751.462Z" style="fill:#231815"/><path d="M474.465,17.748l1.148-.393v1.779h1.975v.91h-1.975v4.412c0,.967.294,1.5,1.036,1.5a2.269,2.269,0,0,0,.785-.112l.069.9a2.926,2.926,0,0,1-1.135.183c-1.849,0-1.9-1.681-1.9-2.493V20.045h-1.177v-.91h1.177Z" style="fill:#231815"/><path d="M484.52,26.446a5.54,5.54,0,0,1-2.4.477c-2.228,0-3.558-1.569-3.558-3.853,0-2.395,1.345-4.118,3.4-4.118,2.354,0,2.956,2.157,2.956,3.488,0,.267-.014.462-.028.644h-5.2C479.715,25.2,480.92,26,482.292,26a4.8,4.8,0,0,0,2-.393Zm-.742-4.229c.014-1.037-.421-2.382-1.919-2.382-1.4,0-2.018,1.331-2.13,2.382Z" style="fill:#231815"/><path d="M490.146,20.115a3.573,3.573,0,0,0-.421-.028c-1.26,0-1.9,1.247-1.9,2.535v4.146h-1.163V21.418c0-.812-.014-1.555-.056-2.283h1.022l.056,1.471h.042a2.285,2.285,0,0,1,2.073-1.639,3.061,3.061,0,0,1,.351.041Z" style="fill:#231815"/><path d="M492.076,17.789a.754.754,0,0,1-.756-.8.762.762,0,0,1,.771-.784.792.792,0,0,1-.015,1.582Zm.589,8.979H491.5V19.135h1.163Z" style="fill:#231815"/><path d="M501.081,26.769h-1.162V22.258c0-1.246-.448-2.339-1.779-2.339a2.079,2.079,0,0,0-2,2.171v4.679h-1.163V21.1c0-.785-.028-1.359-.056-1.975h1.036l.07,1.246h.028a2.725,2.725,0,0,1,2.451-1.415c.952,0,2.577.575,2.577,3.166Z" style="fill:#231815"/><path d="M509.536,19.121c-.042.545-.069,1.162-.069,2.1v4.454c0,1.331-.028,4.385-3.643,4.385a4.562,4.562,0,0,1-2.395-.6l.308-.91a4.2,4.2,0,0,0,2.144.574c1.4,0,2.423-.742,2.423-2.76v-.911h-.027a2.61,2.61,0,0,1-2.368,1.3c-1.82,0-3.123-1.61-3.123-3.754,0-2.646,1.652-4.048,3.306-4.048A2.455,2.455,0,0,1,508.4,20.27h.027l.057-1.148Zm-1.246,2.941a2.059,2.059,0,0,0-2.031-2.172c-1.345,0-2.283,1.191-2.283,3.04,0,1.624.784,2.9,2.27,2.9a2.09,2.09,0,0,0,2.045-2.241Z" style="fill:#231815"/><path d="M511.857,15.772a10.246,10.246,0,0,1,2.059,6.458,10.289,10.289,0,0,1-2.059,6.457H510.9a10.585,10.585,0,0,0,2-6.471,10.506,10.506,0,0,0-2-6.444Z" style="fill:#231815"/><path d="M447.264,93.9c3.682-3.217,5.378-5.555,5.378-7.571a2.063,2.063,0,0,0-2.161-2.321,3.286,3.286,0,0,0-2.433,1.361l-.849-.832a4.486,4.486,0,0,1,3.458-1.729,3.219,3.219,0,0,1,3.41,3.474c0,2.337-1.841,4.722-4.594,7.331.608-.048,1.329-.112,1.92-.112h3.25v1.265h-7.379Z" style="fill:#231815"/><path d="M447.024,123.376l.736-.96a3.88,3.88,0,0,0,2.913,1.344,2.16,2.16,0,0,0,2.385-2.176c0-1.409-.944-2.354-3.649-2.354v-1.121c2.417,0,3.249-.977,3.249-2.24a1.832,1.832,0,0,0-1.984-1.889,3.658,3.658,0,0,0-2.433,1.168l-.784-.928a4.7,4.7,0,0,1,3.281-1.409c1.969,0,3.41,1.057,3.41,2.945a2.924,2.924,0,0,1-2.1,2.833v.064a3.017,3.017,0,0,1,2.5,2.977c0,2.1-1.681,3.346-3.761,3.346A4.854,4.854,0,0,1,447.024,123.376Z" style="fill:#231815"/><path d="M454.932,151.535h-1.553v3.233h-1.393v-3.233H446.88v-.961l4.881-7.539h1.617v7.332h1.553Zm-2.945-1.168v-3.6c0-.576.063-1.521.1-2.129h-.063c-.288.576-.608,1.152-.944,1.729l-2.673,4Z" style="fill:#231815"/><path d="M447.969,193.553h2.609V184.8H448.5v-.929a7.417,7.417,0,0,0,2.433-.833h1.12v10.518H454.4v1.216h-6.435Z" style="fill:#231815"/><path d="M447.264,223.9c3.682-3.217,5.378-5.555,5.378-7.571a2.063,2.063,0,0,0-2.161-2.321,3.286,3.286,0,0,0-2.433,1.361l-.849-.832a4.486,4.486,0,0,1,3.458-1.729,3.219,3.219,0,0,1,3.41,3.474c0,2.337-1.841,4.722-4.594,7.331.608-.048,1.329-.112,1.92-.112h3.25v1.265h-7.379Z" style="fill:#231815"/><path d="M447.024,253.376l.736-.96a3.88,3.88,0,0,0,2.913,1.344,2.16,2.16,0,0,0,2.385-2.176c0-1.409-.944-2.354-3.649-2.354v-1.121c2.417,0,3.249-.977,3.249-2.24a1.832,1.832,0,0,0-1.984-1.889,3.658,3.658,0,0,0-2.433,1.168l-.784-.928a4.7,4.7,0,0,1,3.281-1.409c1.969,0,3.41,1.057,3.41,2.945a2.924,2.924,0,0,1-2.1,2.833v.064a3.017,3.017,0,0,1,2.5,2.977c0,2.1-1.681,3.346-3.761,3.346A4.854,4.854,0,0,1,447.024,253.376Z" style="fill:#231815"/><rect x="375" y="174" width="600" height="90" style="fill:none;stroke:#4d4d4d;stroke-miterlimit:10;stroke-width:2px"/><line x1="375" y1="234" x2="975" y2="234" style="fill:none;stroke:#4d4d4d;stroke-miterlimit:10;stroke-width:2px"/><line x1="375" y1="204" x2="975" y2="204" style="fill:none;stroke:#4d4d4d;stroke-miterlimit:10;stroke-width:2px"/><line x1="825" y1="174" x2="825" y2="264" style="fill:none;stroke:#4d4d4d;stroke-miterlimit:10;stroke-width:2px"/><line x1="675" y1="174" x2="675" y2="264" style="fill:none;stroke:#4d4d4d;stroke-miterlimit:10;stroke-width:2px"/><line x1="525" y1="174" x2="525" y2="264" style="fill:none;stroke:#4d4d4d;stroke-miterlimit:10;stroke-width:2px"/></svg>