<svg xmlns="http://www.w3.org/2000/svg" viewBox="0 0 1080 149"><title>image-03</title><rect x="374.5" y="49.231" width="400" height="30" style="fill:none;stroke:#4d4d4d;stroke-miterlimit:10;stroke-width:2px"/><line x1="574.5" y1="48.731" x2="574.5" y2="78.731" style="fill:none;stroke:#4d4d4d;stroke-miterlimit:10;stroke-width:2px"/><path d="M112.652,66.535H111.1v3.233h-1.393V66.535H104.6v-.961l4.882-7.539H111.1v7.332h1.553Zm-2.945-1.168v-3.6c0-.576.064-1.521.1-2.129h-.064c-.288.576-.608,1.152-.944,1.729l-2.673,4Z" style="fill:#231815"/><path d="M113.609,68.424l.72-.96a3.861,3.861,0,0,0,2.881,1.3,2.536,2.536,0,0,0,2.5-2.769,2.374,2.374,0,0,0-2.433-2.673,3.2,3.2,0,0,0-1.953.688l-.784-.48.368-5.49h5.714v1.249h-4.434l-.288,3.394a3.368,3.368,0,0,1,1.745-.465c1.953,0,3.537,1.153,3.537,3.73a3.81,3.81,0,0,1-3.841,4.033A4.981,4.981,0,0,1,113.609,68.424Z" style="fill:#231815"/><path d="M129.211,59.925a2.48,2.48,0,0,0-1.889-.9c-1.6,0-2.961,1.232-3.025,4.882a3.647,3.647,0,0,1,2.673-1.424c1.984,0,3.249,1.232,3.249,3.681a3.523,3.523,0,0,1-3.361,3.81c-2.257,0-3.921-1.937-3.921-5.811,0-4.594,2.065-6.354,4.337-6.354a3.607,3.607,0,0,1,2.737,1.2Zm-.368,6.242c0-1.585-.688-2.593-2.113-2.593a3.058,3.058,0,0,0-2.4,1.5c.176,2.434,1.056,3.762,2.529,3.762C127.979,68.84,128.843,67.768,128.843,66.167Z" style="fill:#231815"/><path d="M131.7,63.862c0-4.082,1.425-6.051,3.666-6.051,2.225,0,3.649,1.985,3.649,6.051,0,4.081-1.424,6.114-3.649,6.114C133.129,69.977,131.7,67.943,131.7,63.862Zm5.891,0c0-3.425-.9-4.866-2.225-4.866-1.344,0-2.241,1.441-2.241,4.866,0,3.457.9,4.946,2.241,4.946C136.7,68.809,137.6,67.319,137.6,63.862Z" style="fill:#231815"/><path d="M148.172,66.535h-1.553v3.233h-1.393V66.535h-5.106v-.961L145,58.035h1.617v7.332h1.553Zm-2.945-1.168v-3.6c0-.576.064-1.521.1-2.129h-.064c-.288.576-.608,1.152-.944,1.729l-2.673,4Z" style="fill:#231815"/><path d="M155.147,59.284h-5.683V58.035h7.347v.881c-2.753,3.537-3.266,6.259-3.441,10.853H151.85C152.042,65.318,152.858,62.486,155.147,59.284Z" style="fill:#231815"/><path d="M165.932,66.535h-1.553v3.233h-1.393V66.535H157.88v-.961l4.881-7.539h1.617v7.332h1.553Zm-2.945-1.168v-3.6c0-.576.063-1.521.1-2.129h-.063c-.288.576-.608,1.152-.944,1.729l-2.673,4Z" style="fill:#231815"/><path d="M166.9,68.376l.736-.96a3.881,3.881,0,0,0,2.913,1.344,2.161,2.161,0,0,0,2.386-2.176c0-1.409-.944-2.354-3.649-2.354V63.109c2.417,0,3.249-.977,3.249-2.24a1.833,1.833,0,0,0-1.985-1.889,3.656,3.656,0,0,0-2.433,1.168l-.784-.928a4.7,4.7,0,0,1,3.281-1.409c1.969,0,3.409,1.057,3.409,2.945a2.924,2.924,0,0,1-2.1,2.833v.064a3.017,3.017,0,0,1,2.5,2.977c0,2.1-1.681,3.346-3.762,3.346A4.856,4.856,0,0,1,166.9,68.376Z" style="fill:#231815"/><path d="M176.729,68.553h2.609V59.8h-2.081v-.929a7.42,7.42,0,0,0,2.434-.833h1.12V68.553h2.353v1.216h-6.435Z" style="fill:#231815"/><path d="M184.983,63.862c0-4.082,1.425-6.051,3.666-6.051,2.225,0,3.649,1.985,3.649,6.051,0,4.081-1.425,6.114-3.649,6.114C186.408,69.977,184.983,67.943,184.983,63.862Zm5.891,0c0-3.425-.9-4.866-2.225-4.866-1.345,0-2.241,1.441-2.241,4.866,0,3.457.9,4.946,2.241,4.946C189.978,68.809,190.874,67.319,190.874,63.862Z" style="fill:#231815"/><path d="M193.784,68.9c3.682-3.217,5.378-5.555,5.378-7.571A2.063,2.063,0,0,0,197,59.012a3.287,3.287,0,0,0-2.434,1.361l-.848-.832a4.485,4.485,0,0,1,3.457-1.729,3.219,3.219,0,0,1,3.409,3.474c0,2.337-1.841,4.722-4.594,7.331.608-.048,1.329-.112,1.921-.112h3.249v1.265h-7.379Z" style="fill:#231815"/><path d="M202.743,63.862c0-4.082,1.425-6.051,3.666-6.051,2.225,0,3.649,1.985,3.649,6.051,0,4.081-1.425,6.114-3.649,6.114C204.168,69.977,202.743,67.943,202.743,63.862Zm5.891,0c0-3.425-.9-4.866-2.225-4.866-1.345,0-2.241,1.441-2.241,4.866,0,3.457.9,4.946,2.241,4.946C207.737,68.809,208.634,67.319,208.634,63.862Z" style="fill:#231815"/><path d="M219.211,66.535h-1.553v3.233h-1.393V66.535H211.16v-.961l4.882-7.539h1.616v7.332h1.553Zm-2.945-1.168v-3.6c0-.576.064-1.521.1-2.129H216.3c-.288.576-.608,1.152-.944,1.729l-2.673,4Z" style="fill:#231815"/><path d="M106.514,31.166a4.19,4.19,0,0,1-.854,3.082,3.259,3.259,0,0,1-2.171.826l-.126-.925c1.863-.126,1.989-1.288,1.989-3.487V24.135h1.163Zm-.588-8.377a.754.754,0,0,1-.756-.8.765.765,0,0,1,.784-.784.792.792,0,0,1-.028,1.582Z" style="fill:#231815"/><path d="M113.782,29.947a10.726,10.726,0,0,0,.112,1.821h-1.064l-.112-.98h-.042a2.652,2.652,0,0,1-2.255,1.148,2.116,2.116,0,0,1-2.228-2.171c0-1.835,1.6-2.83,4.427-2.815,0-.645,0-2.1-1.737-2.1a3.309,3.309,0,0,0-1.863.546l-.28-.8a4.346,4.346,0,0,1,2.325-.645c2.157,0,2.718,1.526,2.718,3.04ZM112.633,27.8c-1.442,0-3.25.21-3.25,1.82A1.27,1.27,0,0,0,110.7,31.04a1.866,1.866,0,0,0,1.933-1.793Z" style="fill:#231815"/><path d="M122.126,31.769h-1.163V27.258c0-1.246-.448-2.339-1.779-2.339a2.08,2.08,0,0,0-2,2.171v4.679h-1.163V26.1c0-.785-.028-1.359-.056-1.975H117l.07,1.246h.028a2.726,2.726,0,0,1,2.452-1.415c.952,0,2.577.575,2.577,3.166Z" style="fill:#231815"/><path d="M129.585,33.688a10.211,10.211,0,0,1-2.073-6.43,10.309,10.309,0,0,1,2.073-6.485h.953a10.441,10.441,0,0,0-2,6.5,10.566,10.566,0,0,0,2,6.416Z" style="fill:#231815"/><path d="M132.287,22.748l1.148-.393v1.779h1.975v.91h-1.975v4.412c0,.967.294,1.5,1.037,1.5a2.263,2.263,0,0,0,.784-.112l.07.9a2.932,2.932,0,0,1-1.135.183c-1.849,0-1.9-1.681-1.9-2.493V25.045H131.11v-.91h1.177Z" style="fill:#231815"/><path d="M142.341,31.446a5.541,5.541,0,0,1-2.4.477c-2.227,0-3.558-1.569-3.558-3.853,0-2.395,1.345-4.118,3.4-4.118,2.353,0,2.956,2.157,2.956,3.488,0,.267-.014.462-.028.644h-5.2C137.537,30.2,138.741,31,140.114,31a4.807,4.807,0,0,0,2-.393Zm-.743-4.229c.014-1.037-.42-2.382-1.919-2.382-1.4,0-2.017,1.331-2.129,2.382Z" style="fill:#231815"/><path d="M149.957,24.135l-2.521,3.7,2.592,3.937H148.7l-1.148-1.778c-.28-.463-.532-.883-.812-1.373h-.028c-.238.477-.519.9-.812,1.373l-1.121,1.778h-1.289l2.619-3.894-2.493-3.74h1.3l1.106,1.694c.28.435.518.827.771,1.274h.042c.238-.447.5-.868.771-1.274l1.079-1.694Z" style="fill:#231815"/><path d="M151.676,22.748l1.149-.393v1.779H154.8v.91h-1.975v4.412c0,.967.294,1.5,1.037,1.5a2.263,2.263,0,0,0,.784-.112l.07.9a2.932,2.932,0,0,1-1.135.183c-1.849,0-1.905-1.681-1.905-2.493V25.045H150.5v-.91h1.176Z" style="fill:#231815"/><path d="M157.753,29.934a20.777,20.777,0,0,1-1.415,3.712l-.854.1a22.433,22.433,0,0,0,.911-3.655Z" style="fill:#231815"/><path d="M163.758,25.424a2.827,2.827,0,0,1,2.605-1.472c1.807,0,3.109,1.556,3.109,3.895,0,2.8-1.639,4.09-3.319,4.09a2.593,2.593,0,0,1-2.3-1.219h-.027v4.175h-1.163V26.586c0-.994-.028-1.766-.056-2.465h1.051l.069,1.3Zm.07,3.3A2.154,2.154,0,0,0,165.971,31c1.5,0,2.325-1.289,2.325-3.109,0-1.583-.8-2.984-2.283-2.984a2.346,2.346,0,0,0-2.185,2.367Z" style="fill:#231815"/><path d="M176.22,29.947a10.624,10.624,0,0,0,.112,1.821h-1.064l-.112-.98h-.042a2.654,2.654,0,0,1-2.256,1.148,2.116,2.116,0,0,1-2.227-2.171c0-1.835,1.6-2.83,4.426-2.815,0-.645,0-2.1-1.736-2.1a3.312,3.312,0,0,0-1.863.546l-.28-.8a4.343,4.343,0,0,1,2.325-.645c2.157,0,2.718,1.526,2.718,3.04ZM175.071,27.8c-1.443,0-3.25.21-3.25,1.82a1.27,1.27,0,0,0,1.316,1.415,1.867,1.867,0,0,0,1.934-1.793Z" style="fill:#231815"/><path d="M181.945,25.115a3.573,3.573,0,0,0-.421-.028c-1.26,0-1.9,1.247-1.9,2.535v4.146h-1.163V26.418c0-.812-.014-1.555-.056-2.283h1.022l.056,1.471h.042a2.285,2.285,0,0,1,2.073-1.639,3.061,3.061,0,0,1,.351.041Z" style="fill:#231815"/><path d="M183.609,22.748l1.148-.393v1.779h1.975v.91h-1.975v4.412c0,.967.294,1.5,1.036,1.5a2.269,2.269,0,0,0,.785-.112l.069.9a2.926,2.926,0,0,1-1.135.183c-1.849,0-1.9-1.681-1.9-2.493V25.045h-1.177v-.91h1.177Z" style="fill:#231815"/><path d="M188.831,22.789a.754.754,0,0,1-.756-.8.762.762,0,0,1,.771-.784.792.792,0,0,1-.015,1.582Zm.589,8.979h-1.163V24.135h1.163Z" style="fill:#231815"/><path d="M192.037,22.748l1.148-.393v1.779h1.975v.91h-1.975v4.412c0,.967.294,1.5,1.036,1.5a2.269,2.269,0,0,0,.785-.112l.069.9a2.926,2.926,0,0,1-1.135.183c-1.849,0-1.9-1.681-1.9-2.493V25.045H190.86v-.91h1.177Z" style="fill:#231815"/><path d="M197.259,22.789a.754.754,0,0,1-.756-.8.762.762,0,0,1,.771-.784.792.792,0,0,1-.015,1.582Zm.589,8.979h-1.163V24.135h1.163Z" style="fill:#231815"/><path d="M206.642,27.889c0,2.844-1.877,4.048-3.571,4.048-1.961,0-3.475-1.471-3.475-3.937,0-2.605,1.625-4.048,3.572-4.048C205.255,23.952,206.642,25.549,206.642,27.889Zm-3.516-3.025c-1.653,0-2.339,1.625-2.339,3.1,0,1.694.938,3.067,2.311,3.067s2.354-1.373,2.354-3.1C205.451,26.572,204.793,24.863,203.126,24.863Z" style="fill:#231815"/><path d="M214.51,31.769h-1.162V27.258c0-1.246-.448-2.339-1.779-2.339a2.079,2.079,0,0,0-2,2.171v4.679H208.4V26.1c0-.785-.027-1.359-.056-1.975h1.036l.07,1.246h.028a2.725,2.725,0,0,1,2.451-1.415c.952,0,2.577.575,2.577,3.166Z" style="fill:#231815"/><path d="M216.858,20.772a10.246,10.246,0,0,1,2.059,6.458,10.289,10.289,0,0,1-2.059,6.457h-.953a10.585,10.585,0,0,0,2-6.471,10.506,10.506,0,0,0-2-6.444Z" style="fill:#231815"/><rect x="62.5" y="48.981" width="200" height="30" style="fill:none;stroke:#4d4d4d;stroke-miterlimit:10;stroke-width:2px"/><line x1="282.5" y1="63.981" x2="342.561" y2="63.981" style="fill:none;stroke:#4d4d4d;stroke-miterlimit:10;stroke-width:2px"/><polygon points="336.943 71.388 340.09 63.981 336.943 56.575 354.5 63.981 336.943 71.388" style="fill:#4d4d4d"/><rect x="374.5" y="90.231" width="400" height="30" style="fill:none;stroke:#4d4d4d;stroke-miterlimit:10;stroke-width:2px"/><line x1="574.5" y1="89.731" x2="574.5" y2="119.731" style="fill:none;stroke:#4d4d4d;stroke-miterlimit:10;stroke-width:2px"/><path d="M112.652,107.535H111.1v3.233h-1.393v-3.233H104.6v-.961l4.882-7.539H111.1v7.332h1.553Zm-2.945-1.168v-3.6c0-.576.064-1.521.1-2.129h-.064c-.288.576-.608,1.152-.944,1.729l-2.673,4Z" style="fill:#231815"/><path d="M113.609,109.424l.72-.96a3.861,3.861,0,0,0,2.881,1.3,2.536,2.536,0,0,0,2.5-2.769,2.374,2.374,0,0,0-2.433-2.673,3.2,3.2,0,0,0-1.953.688l-.784-.48.368-5.49h5.714v1.249h-4.434l-.288,3.394a3.368,3.368,0,0,1,1.745-.465c1.953,0,3.537,1.153,3.537,3.73a3.81,3.81,0,0,1-3.841,4.033A4.981,4.981,0,0,1,113.609,109.424Z" style="fill:#231815"/><path d="M122.5,109.376l.736-.96a3.88,3.88,0,0,0,2.913,1.344,2.16,2.16,0,0,0,2.385-2.176c0-1.409-.944-2.354-3.649-2.354v-1.121c2.417,0,3.25-.977,3.25-2.24a1.833,1.833,0,0,0-1.985-1.889,3.658,3.658,0,0,0-2.433,1.168l-.784-.928a4.7,4.7,0,0,1,3.281-1.409c1.969,0,3.409,1.057,3.409,2.945a2.924,2.924,0,0,1-2.1,2.833v.064a3.017,3.017,0,0,1,2.5,2.977c0,2.1-1.681,3.346-3.762,3.346A4.854,4.854,0,0,1,122.5,109.376Z" style="fill:#231815"/><path d="M139.292,107.535h-1.553v3.233h-1.393v-3.233h-5.106v-.961l4.882-7.539h1.617v7.332h1.553Zm-2.945-1.168v-3.6c0-.576.064-1.521.1-2.129h-.064c-.288.576-.608,1.152-.944,1.729l-2.673,4Z" style="fill:#231815"/><path d="M140.249,109.424l.72-.96a3.861,3.861,0,0,0,2.881,1.3,2.536,2.536,0,0,0,2.5-2.769,2.374,2.374,0,0,0-2.433-2.673,3.2,3.2,0,0,0-1.953.688l-.784-.48.368-5.49h5.714v1.249h-4.434l-.288,3.394a3.368,3.368,0,0,1,1.745-.465c1.953,0,3.537,1.153,3.537,3.73a3.81,3.81,0,0,1-3.841,4.033A4.981,4.981,0,0,1,140.249,109.424Z" style="fill:#231815"/><path d="M149.145,109.376l.736-.96a3.88,3.88,0,0,0,2.913,1.344,2.16,2.16,0,0,0,2.385-2.176c0-1.409-.944-2.354-3.649-2.354v-1.121c2.417,0,3.25-.977,3.25-2.24a1.833,1.833,0,0,0-1.985-1.889,3.658,3.658,0,0,0-2.433,1.168l-.784-.928a4.7,4.7,0,0,1,3.281-1.409c1.969,0,3.409,1.057,3.409,2.945a2.924,2.924,0,0,1-2.1,2.833v.064a3.017,3.017,0,0,1,2.5,2.977c0,2.1-1.681,3.346-3.762,3.346A4.854,4.854,0,0,1,149.145,109.376Z" style="fill:#231815"/><path d="M158.344,104.862c0-4.082,1.425-6.051,3.666-6.051,2.225,0,3.649,1.985,3.649,6.051,0,4.081-1.425,6.114-3.649,6.114C159.769,110.977,158.344,108.943,158.344,104.862Zm5.89,0c0-3.425-.9-4.866-2.225-4.866-1.344,0-2.241,1.441-2.241,4.866,0,3.457.9,4.946,2.241,4.946C163.339,109.809,164.234,108.319,164.234,104.862Z" style="fill:#231815"/><path d="M167.224,104.862c0-4.082,1.425-6.051,3.666-6.051,2.225,0,3.649,1.985,3.649,6.051,0,4.081-1.425,6.114-3.649,6.114C168.648,110.977,167.224,108.943,167.224,104.862Zm5.891,0c0-3.425-.9-4.866-2.225-4.866-1.345,0-2.241,1.441-2.241,4.866,0,3.457.9,4.946,2.241,4.946C172.218,109.809,173.114,108.319,173.114,104.862Z" style="fill:#231815"/><path d="M177.049,108.863a2.647,2.647,0,0,0,1.969.9c1.521,0,2.833-1.248,2.945-4.9a3.618,3.618,0,0,1-2.705,1.456c-1.953,0-3.233-1.264-3.233-3.7a3.523,3.523,0,0,1,3.361-3.81c2.257,0,3.938,1.856,3.938,5.587,0,4.754-2.049,6.578-4.258,6.578a3.732,3.732,0,0,1-2.816-1.2Zm4.9-5.2c-.16-2.418-1.057-3.7-2.562-3.7-1.12,0-1.984,1.056-1.984,2.656,0,1.585.7,2.609,2.1,2.609A3.1,3.1,0,0,0,181.947,103.662Z" style="fill:#231815"/><path d="M185.928,108.863a2.647,2.647,0,0,0,1.969.9c1.521,0,2.833-1.248,2.945-4.9a3.618,3.618,0,0,1-2.705,1.456c-1.953,0-3.233-1.264-3.233-3.7a3.523,3.523,0,0,1,3.361-3.81c2.257,0,3.938,1.856,3.938,5.587,0,4.754-2.049,6.578-4.258,6.578a3.732,3.732,0,0,1-2.816-1.2Zm4.9-5.2c-.16-2.418-1.057-3.7-2.562-3.7-1.12,0-1.984,1.056-1.984,2.656,0,1.585.7,2.609,2.1,2.609A3.1,3.1,0,0,0,190.826,103.662Z" style="fill:#231815"/><path d="M193.528,109.424l.721-.96a3.86,3.86,0,0,0,2.881,1.3,2.536,2.536,0,0,0,2.5-2.769,2.374,2.374,0,0,0-2.434-2.673,3.2,3.2,0,0,0-1.952.688l-.784-.48.368-5.49h5.714v1.249h-4.434l-.288,3.394a3.367,3.367,0,0,1,1.744-.465c1.953,0,3.538,1.153,3.538,3.73a3.811,3.811,0,0,1-3.842,4.033A4.98,4.98,0,0,1,193.528,109.424Z" style="fill:#231815"/><path d="M202.743,104.862c0-4.082,1.425-6.051,3.666-6.051,2.225,0,3.649,1.985,3.649,6.051,0,4.081-1.425,6.114-3.649,6.114C204.168,110.977,202.743,108.943,202.743,104.862Zm5.891,0c0-3.425-.9-4.866-2.225-4.866-1.345,0-2.241,1.441-2.241,4.866,0,3.457.9,4.946,2.241,4.946C207.737,109.809,208.634,108.319,208.634,104.862Z" style="fill:#231815"/><path d="M212.248,109.553h2.609V100.8h-2.081v-.929a7.42,7.42,0,0,0,2.434-.833h1.12v10.518h2.353v1.216h-6.435Z" style="fill:#231815"/><rect x="62.5" y="89.981" width="200" height="30" style="fill:none;stroke:#4d4d4d;stroke-miterlimit:10;stroke-width:2px"/><path d="M630.633,68.9c3.682-3.217,5.379-5.555,5.379-7.571a2.064,2.064,0,0,0-2.162-2.321,3.285,3.285,0,0,0-2.432,1.361l-.85-.832a4.487,4.487,0,0,1,3.458-1.729,3.219,3.219,0,0,1,3.409,3.474c0,2.337-1.84,4.722-4.594,7.331.608-.048,1.328-.112,1.921-.112h3.249v1.265h-7.379Z" style="fill:#231815"/><path d="M639.593,63.862c0-4.082,1.425-6.051,3.665-6.051s3.65,1.985,3.65,6.051c0,4.081-1.425,6.114-3.65,6.114S639.593,67.943,639.593,63.862Zm5.891,0c0-3.425-.9-4.866-2.226-4.866s-2.24,1.441-2.24,4.866c0,3.457.9,4.946,2.24,4.946S645.483,67.319,645.483,63.862Z" style="fill:#231815"/><path d="M649.1,68.553h2.608V59.8h-2.081v-.929a7.42,7.42,0,0,0,2.434-.833h1.12V68.553h2.353v1.216H649.1Z" style="fill:#231815"/><path d="M663.739,59.925a2.48,2.48,0,0,0-1.889-.9c-1.6,0-2.962,1.232-3.025,4.882a3.647,3.647,0,0,1,2.673-1.424c1.985,0,3.25,1.232,3.25,3.681a3.524,3.524,0,0,1-3.361,3.81c-2.258,0-3.922-1.937-3.922-5.811,0-4.594,2.064-6.354,4.338-6.354a3.6,3.6,0,0,1,2.736,1.2Zm-.368,6.242c0-1.585-.688-2.593-2.113-2.593a3.057,3.057,0,0,0-2.4,1.5c.176,2.434,1.057,3.762,2.529,3.762C662.507,68.84,663.371,67.768,663.371,66.167Z" style="fill:#231815"/><path d="M666.185,64.727h4.1v1.121h-4.1Z" style="fill:#231815"/><path d="M671.784,63.862c0-4.082,1.425-6.051,3.666-6.051,2.225,0,3.649,1.985,3.649,6.051,0,4.081-1.425,6.114-3.649,6.114C673.209,69.977,671.784,67.943,671.784,63.862Zm5.891,0c0-3.425-.9-4.866-2.225-4.866-1.345,0-2.241,1.441-2.241,4.866,0,3.457.9,4.946,2.241,4.946C676.778,68.809,677.675,67.319,677.675,63.862Z" style="fill:#231815"/><path d="M680.344,68.376l.736-.96a3.881,3.881,0,0,0,2.913,1.344,2.161,2.161,0,0,0,2.386-2.176c0-1.409-.944-2.354-3.649-2.354V63.109c2.417,0,3.249-.977,3.249-2.24a1.833,1.833,0,0,0-1.985-1.889,3.656,3.656,0,0,0-2.433,1.168l-.784-.928a4.7,4.7,0,0,1,3.281-1.409c1.969,0,3.409,1.057,3.409,2.945a2.924,2.924,0,0,1-2.1,2.833v.064a3.017,3.017,0,0,1,2.5,2.977c0,2.1-1.681,3.346-3.762,3.346A4.856,4.856,0,0,1,680.344,68.376Z" style="fill:#231815"/><path d="M689.5,64.727h4.1v1.121h-4.1Z" style="fill:#231815"/><path d="M694.775,68.376l.736-.96a3.881,3.881,0,0,0,2.913,1.344,2.161,2.161,0,0,0,2.386-2.176c0-1.409-.944-2.354-3.649-2.354V63.109c2.417,0,3.249-.977,3.249-2.24a1.833,1.833,0,0,0-1.985-1.889,3.656,3.656,0,0,0-2.433,1.168l-.784-.928a4.7,4.7,0,0,1,3.281-1.409c1.969,0,3.409,1.057,3.409,2.945a2.924,2.924,0,0,1-2.1,2.833v.064a3.017,3.017,0,0,1,2.5,2.977c0,2.1-1.681,3.346-3.762,3.346A4.856,4.856,0,0,1,694.775,68.376Z" style="fill:#231815"/><path d="M703.976,63.862c0-4.082,1.425-6.051,3.666-6.051,2.225,0,3.649,1.985,3.649,6.051,0,4.081-1.425,6.114-3.649,6.114C705.4,69.977,703.976,67.943,703.976,63.862Zm5.891,0c0-3.425-.9-4.866-2.225-4.866-1.345,0-2.241,1.441-2.241,4.866,0,3.457.9,4.946,2.241,4.946C708.97,68.809,709.866,67.319,709.866,63.862Z" style="fill:#231815"/><path d="M633.5,25.115a3.57,3.57,0,0,0-.42-.028c-1.261,0-1.905,1.247-1.905,2.535v4.146h-1.163V26.418c0-.812-.014-1.555-.055-2.283h1.021l.057,1.471h.042a2.283,2.283,0,0,1,2.073-1.639,3.044,3.044,0,0,1,.35.041Z" style="fill:#231815"/><path d="M640.268,31.446a5.549,5.549,0,0,1-2.4.477c-2.227,0-3.557-1.569-3.557-3.853,0-2.395,1.344-4.118,3.4-4.118,2.353,0,2.956,2.157,2.956,3.488,0,.267-.015.462-.029.644h-5.2C635.463,30.2,636.667,31,638.039,31a4.808,4.808,0,0,0,2-.393Zm-.743-4.229c.015-1.037-.42-2.382-1.919-2.382-1.4,0-2.018,1.331-2.129,2.382Z" style="fill:#231815"/><path d="M643.568,31.769h-1.162V20.563h1.162Z" style="fill:#231815"/><path d="M651.285,31.446a5.549,5.549,0,0,1-2.4.477c-2.227,0-3.557-1.569-3.557-3.853,0-2.395,1.344-4.118,3.4-4.118,2.353,0,2.956,2.157,2.956,3.488,0,.267-.015.462-.029.644h-5.2C646.48,30.2,647.685,31,649.057,31a4.808,4.808,0,0,0,2-.393Zm-.743-4.229c.015-1.037-.42-2.382-1.919-2.382-1.4,0-2.018,1.331-2.129,2.382Z" style="fill:#231815"/><path d="M658.424,29.947a10.723,10.723,0,0,0,.112,1.821h-1.064l-.112-.98h-.042a2.652,2.652,0,0,1-2.255,1.148,2.116,2.116,0,0,1-2.228-2.171c0-1.835,1.6-2.83,4.427-2.815,0-.645,0-2.1-1.737-2.1a3.306,3.306,0,0,0-1.862.546l-.281-.8a4.349,4.349,0,0,1,2.326-.645c2.156,0,2.717,1.526,2.717,3.04ZM657.275,27.8c-1.442,0-3.25.21-3.25,1.82a1.271,1.271,0,0,0,1.317,1.415,1.867,1.867,0,0,0,1.933-1.793Z" style="fill:#231815"/><path d="M664.234,25.3a2.742,2.742,0,0,0-1.485-.448,1.15,1.15,0,0,0-1.288,1.135c0,.658.434.967,1.414,1.387,1.232.5,1.947,1.148,1.947,2.3,0,1.358-1.037,2.255-2.7,2.255a4.04,4.04,0,0,1-2-.519l.322-.9a3.625,3.625,0,0,0,1.723.519c1.023,0,1.527-.546,1.527-1.233,0-.714-.406-1.105-1.415-1.512-1.288-.52-1.946-1.233-1.946-2.158a2.256,2.256,0,0,1,2.492-2.171,3.386,3.386,0,0,1,1.752.462Z" style="fill:#231815"/><path d="M672,31.446a5.534,5.534,0,0,1-2.395.477c-2.228,0-3.559-1.569-3.559-3.853,0-2.395,1.346-4.118,3.4-4.118,2.354,0,2.955,2.157,2.955,3.488,0,.267-.014.462-.027.644h-5.2C667.2,30.2,668.4,31,669.777,31a4.807,4.807,0,0,0,2-.393Zm-.742-4.229c.014-1.037-.42-2.382-1.919-2.382-1.4,0-2.017,1.331-2.129,2.382Z" style="fill:#231815"/><path d="M679.353,33.688a10.214,10.214,0,0,1-2.073-6.43,10.309,10.309,0,0,1,2.073-6.485h.952a10.444,10.444,0,0,0-2,6.5,10.566,10.566,0,0,0,2,6.416Z" style="fill:#231815"/><path d="M687.908,29.877c0,.617.028,1.373.057,1.892h-1.037l-.056-1.3h-.042a2.7,2.7,0,0,1-2.493,1.471c-1.766,0-3.138-1.526-3.138-3.88,0-2.578,1.513-4.09,3.292-4.09a2.451,2.451,0,0,1,2.227,1.176h.028v-4.58h1.162Zm-1.162-2.689a2.112,2.112,0,0,0-2.06-2.283c-1.442,0-2.3,1.346-2.3,3.1,0,1.611.757,2.984,2.255,2.984a2.2,2.2,0,0,0,2.1-2.326Z" style="fill:#231815"/><path d="M695.2,29.947a10.624,10.624,0,0,0,.112,1.821H694.25l-.112-.98H694.1a2.654,2.654,0,0,1-2.256,1.148,2.116,2.116,0,0,1-2.227-2.171c0-1.835,1.6-2.83,4.426-2.815,0-.645,0-2.1-1.736-2.1a3.312,3.312,0,0,0-1.863.546l-.28-.8a4.343,4.343,0,0,1,2.325-.645c2.157,0,2.718,1.526,2.718,3.04ZM694.054,27.8c-1.443,0-3.25.21-3.25,1.82a1.27,1.27,0,0,0,1.316,1.415,1.867,1.867,0,0,0,1.934-1.793Z" style="fill:#231815"/><path d="M697.747,22.748l1.148-.393v1.779h1.975v.91H698.9v4.412c0,.967.294,1.5,1.036,1.5a2.269,2.269,0,0,0,.785-.112l.069.9a2.924,2.924,0,0,1-1.134.183c-1.85,0-1.905-1.681-1.905-2.493V25.045H696.57v-.91h1.177Z" style="fill:#231815"/><path d="M707.8,31.446a5.54,5.54,0,0,1-2.4.477c-2.228,0-3.558-1.569-3.558-3.853,0-2.395,1.345-4.118,3.4-4.118,2.354,0,2.956,2.157,2.956,3.488,0,.267-.015.462-.028.644h-5.2C703,30.2,704.2,31,705.574,31a4.8,4.8,0,0,0,2-.393Zm-.742-4.229c.014-1.037-.421-2.382-1.919-2.382-1.4,0-2.018,1.331-2.13,2.382Z" style="fill:#231815"/><path d="M710.039,20.772A10.246,10.246,0,0,1,712.1,27.23a10.289,10.289,0,0,1-2.059,6.457h-.953a10.585,10.585,0,0,0,2-6.471,10.506,10.506,0,0,0-2-6.444Z" style="fill:#231815"/><path d="M630.633,109.9c3.682-3.217,5.379-5.555,5.379-7.571a2.064,2.064,0,0,0-2.162-2.321,3.285,3.285,0,0,0-2.432,1.361l-.85-.832a4.487,4.487,0,0,1,3.458-1.729,3.219,3.219,0,0,1,3.409,3.474c0,2.337-1.84,4.722-4.594,7.331.608-.048,1.328-.112,1.921-.112h3.249v1.265h-7.379Z" style="fill:#231815"/><path d="M639.593,104.862c0-4.082,1.425-6.051,3.665-6.051s3.65,1.985,3.65,6.051c0,4.081-1.425,6.114-3.65,6.114S639.593,108.943,639.593,104.862Zm5.891,0c0-3.425-.9-4.866-2.226-4.866s-2.24,1.441-2.24,4.866c0,3.457.9,4.946,2.24,4.946S645.483,108.319,645.483,104.862Z" style="fill:#231815"/><path d="M649.1,109.553h2.608V100.8h-2.081v-.929a7.42,7.42,0,0,0,2.434-.833h1.12v10.518h2.353v1.216H649.1Z" style="fill:#231815"/><path d="M663.035,100.284h-5.683V99.035H664.7v.881c-2.753,3.537-3.265,6.259-3.441,10.853h-1.52C659.93,106.318,660.746,103.486,663.035,100.284Z" style="fill:#231815"/><path d="M666.185,105.727h4.1v1.121h-4.1Z" style="fill:#231815"/><path d="M671.784,104.862c0-4.082,1.425-6.051,3.666-6.051,2.225,0,3.649,1.985,3.649,6.051,0,4.081-1.425,6.114-3.649,6.114C673.209,110.977,671.784,108.943,671.784,104.862Zm5.891,0c0-3.425-.9-4.866-2.225-4.866-1.345,0-2.241,1.441-2.241,4.866,0,3.457.9,4.946,2.241,4.946C676.778,109.809,677.675,108.319,677.675,104.862Z" style="fill:#231815"/><path d="M680.584,109.9c3.682-3.217,5.378-5.555,5.378-7.571a2.063,2.063,0,0,0-2.16-2.321,3.287,3.287,0,0,0-2.434,1.361l-.848-.832a4.485,4.485,0,0,1,3.457-1.729,3.219,3.219,0,0,1,3.409,3.474c0,2.337-1.841,4.722-4.594,7.331.608-.048,1.329-.112,1.921-.112h3.249v1.265h-7.379Z" style="fill:#231815"/><path d="M689.5,105.727h4.1v1.121h-4.1Z" style="fill:#231815"/><path d="M695.72,109.553h2.609V100.8h-2.081v-.929a7.42,7.42,0,0,0,2.434-.833h1.12v10.518h2.353v1.216H695.72Z" style="fill:#231815"/><path d="M703.64,109.424l.721-.96a3.86,3.86,0,0,0,2.881,1.3,2.536,2.536,0,0,0,2.5-2.769,2.374,2.374,0,0,0-2.434-2.673,3.2,3.2,0,0,0-1.952.688l-.784-.48.368-5.49h5.714v1.249h-4.434l-.288,3.394a3.367,3.367,0,0,1,1.744-.465c1.953,0,3.538,1.153,3.538,3.73a3.811,3.811,0,0,1-3.842,4.033A4.98,4.98,0,0,1,703.64,109.424Z" style="fill:#231815"/><path d="M411.745,68.776l.72-.96a3.946,3.946,0,0,0,2.577,1.023c1.152,0,1.713-.607,1.713-1.36,0-.88-1.024-1.28-1.985-1.648-1.217-.448-2.593-1.04-2.593-2.513,0-1.377,1.1-2.465,2.993-2.465a4.5,4.5,0,0,1,2.705.976l-.7.944a3.275,3.275,0,0,0-2-.768c-1.088,0-1.584.576-1.584,1.248,0,.832.944,1.137,1.921,1.5,1.265.48,2.657.993,2.657,2.642,0,1.409-1.121,2.577-3.169,2.577A5.242,5.242,0,0,1,411.745,68.776Z" style="fill:#231815"/><path d="M420.1,66.584V61.077h1.457v5.33c0,1.616.48,2.3,1.633,2.3.9,0,1.521-.433,2.353-1.472V61.077H427v8.691H425.78l-.112-1.36h-.048a3.729,3.729,0,0,1-2.881,1.568C420.914,69.977,420.1,68.792,420.1,66.584Z" style="fill:#231815"/><path d="M429.921,61.077h1.2l.128,1.265h.048A3.82,3.82,0,0,1,434,60.854a2.291,2.291,0,0,1,2.4,1.664,4.108,4.108,0,0,1,2.865-1.664c1.793,0,2.641,1.184,2.641,3.408v5.507h-1.457V64.455c0-1.633-.512-2.322-1.617-2.322a3.211,3.211,0,0,0-2.193,1.329v6.307h-1.457V64.455c0-1.633-.512-2.322-1.617-2.322a3.211,3.211,0,0,0-2.193,1.329v6.307h-1.457Z" style="fill:#231815"/><path d="M444.737,61.077h1.2l.128,1.265h.048a3.82,3.82,0,0,1,2.705-1.488,2.291,2.291,0,0,1,2.4,1.664,4.108,4.108,0,0,1,2.865-1.664c1.793,0,2.641,1.184,2.641,3.408v5.507H455.27V64.455c0-1.633-.512-2.322-1.617-2.322a3.211,3.211,0,0,0-2.193,1.329v6.307H450V64.455c0-1.633-.512-2.322-1.617-2.322a3.211,3.211,0,0,0-2.193,1.329v6.307h-1.457Z" style="fill:#231815"/><path d="M458.9,65.431c0-2.817,1.9-4.577,3.921-4.577,2.209,0,3.458,1.6,3.458,4.081a5.745,5.745,0,0,1-.064.833h-5.858a2.881,2.881,0,0,0,2.881,3.041,3.744,3.744,0,0,0,2.177-.688l.528.96a5.175,5.175,0,0,1-2.881.9C460.753,69.977,458.9,68.3,458.9,65.431Zm6.1-.7c0-1.761-.8-2.705-2.161-2.705a2.674,2.674,0,0,0-2.5,2.705Z" style="fill:#231815"/><path d="M468.417,61.077h1.2l.128,1.585h.048a3,3,0,0,1,2.465-1.809,1.85,1.85,0,0,1,.929.191l-.272,1.281a2.036,2.036,0,0,0-.848-.145c-.72,0-1.617.512-2.193,2v5.587h-1.457Z" style="fill:#231815"/><path d="M477.553,65.431a4.231,4.231,0,0,1,4.193-4.577,3.716,3.716,0,0,1,2.545,1.023l-.752.977a2.523,2.523,0,0,0-1.745-.784c-1.568,0-2.721,1.36-2.721,3.361s1.089,3.329,2.689,3.329a3.066,3.066,0,0,0,2.049-.863l.624.976a4.145,4.145,0,0,1-2.8,1.1C479.329,69.977,477.553,68.313,477.553,65.431Z" style="fill:#231815"/><path d="M485.313,65.431c0-2.9,1.9-4.577,4.033-4.577s4.034,1.68,4.034,4.577c0,2.882-1.905,4.546-4.034,4.546S485.313,68.313,485.313,65.431Zm6.563,0c0-2-1.024-3.361-2.529-3.361s-2.513,1.36-2.513,3.361,1.009,3.329,2.513,3.329S491.875,67.432,491.875,65.431Z" style="fill:#231815"/><path d="M495.664,61.077h1.2l.128,1.249h.049a4.167,4.167,0,0,1,2.913-1.473c1.824,0,2.656,1.184,2.656,3.408v5.507h-1.456V64.455c0-1.633-.5-2.322-1.648-2.322a3.31,3.31,0,0,0-2.386,1.329v6.307h-1.456Z" style="fill:#231815"/><path d="M505.7,67.08V62.262h-1.3v-1.1l1.36-.08.176-2.433h1.217v2.433h2.353v1.185h-2.353v4.85c0,1.072.336,1.681,1.345,1.681a3.1,3.1,0,0,0,.992-.224l.288,1.088a5.467,5.467,0,0,1-1.6.32C506.32,69.977,505.7,68.824,505.7,67.08Z" style="fill:#231815"/><path d="M511.2,58.34a1.011,1.011,0,0,1,2.018,0,1.011,1.011,0,0,1-2.018,0Zm.272,2.737h1.456v8.691h-1.456Z" style="fill:#231815"/><path d="M515.872,61.077h1.2l.128,1.249h.049a4.167,4.167,0,0,1,2.913-1.473c1.824,0,2.656,1.184,2.656,3.408v5.507h-1.456V64.455c0-1.633-.5-2.322-1.648-2.322a3.31,3.31,0,0,0-2.386,1.329v6.307h-1.456Z" style="fill:#231815"/><path d="M525.536,66.584V61.077h1.457v5.33c0,1.616.479,2.3,1.633,2.3.9,0,1.521-.433,2.353-1.472V61.077h1.457v8.691h-1.217l-.112-1.36h-.048a3.728,3.728,0,0,1-2.881,1.568C526.353,69.977,525.536,68.792,525.536,66.584Z" style="fill:#231815"/><path d="M534.7,65.431c0-2.817,1.9-4.577,3.922-4.577,2.209,0,3.457,1.6,3.457,4.081a5.668,5.668,0,0,1-.064.833H536.16a2.882,2.882,0,0,0,2.882,3.041,3.746,3.746,0,0,0,2.177-.688l.528.96a5.177,5.177,0,0,1-2.882.9C536.561,69.977,534.7,68.3,534.7,65.431Zm6.1-.7c0-1.761-.8-2.705-2.161-2.705a2.674,2.674,0,0,0-2.5,2.705Z" style="fill:#231815"/><path d="M444.916,29.947a10.676,10.676,0,0,0,.112,1.821h-1.064l-.112-.98h-.042a2.654,2.654,0,0,1-2.255,1.148,2.116,2.116,0,0,1-2.227-2.171c0-1.835,1.6-2.83,4.426-2.815,0-.645,0-2.1-1.737-2.1a3.311,3.311,0,0,0-1.863.546l-.28-.8a4.345,4.345,0,0,1,2.325-.645c2.157,0,2.718,1.526,2.718,3.04ZM443.767,27.8c-1.442,0-3.25.21-3.25,1.82a1.27,1.27,0,0,0,1.317,1.415,1.866,1.866,0,0,0,1.933-1.793Z" style="fill:#231815"/><path d="M448.315,31.769h-1.163V20.563h1.163Z" style="fill:#231815"/><path d="M451.816,25.367a2.715,2.715,0,0,1,2.535-1.415c1.807,0,3.082,1.556,3.082,3.908,0,2.773-1.695,4.076-3.277,4.076a2.608,2.608,0,0,1-2.465-1.429h-.042l-.07,1.261h-1.008c.028-.5.056-1.274.056-1.892V20.563h1.163v4.8Zm-.028,3.418a2.154,2.154,0,0,0,2.144,2.2c1.485,0,2.311-1.275,2.311-3.082,0-1.6-.784-3-2.269-3a2.316,2.316,0,0,0-2.186,2.367Z" style="fill:#231815"/><path d="M465.16,29.737c0,.784.042,1.442.07,2.031h-1.05l-.056-1.2h-.042a2.769,2.769,0,0,1-2.437,1.372c-1.148,0-2.507-.658-2.507-3.292v-4.51H460.3v4.3c0,1.485.435,2.521,1.709,2.521A2.021,2.021,0,0,0,464,28.883V24.135h1.163Z" style="fill:#231815"/><path d="M477.847,31.769H476.7V27.355c0-1.484-.532-2.437-1.681-2.437a1.945,1.945,0,0,0-1.793,2.045v4.8h-1.149V27.063c0-1.219-.518-2.144-1.6-2.144A2.075,2.075,0,0,0,468.6,27.09v4.679h-1.149V26.1c0-.785-.028-1.345-.056-1.975h1.022l.07,1.232h.042a2.544,2.544,0,0,1,2.325-1.4,2.182,2.182,0,0,1,2.087,1.526h.028a2.675,2.675,0,0,1,2.452-1.526c.938,0,2.423.6,2.423,3.222Z" style="fill:#231815"/><path d="M485.3,33.688a10.214,10.214,0,0,1-2.073-6.43,10.309,10.309,0,0,1,2.073-6.485h.952a10.444,10.444,0,0,0-2,6.5,10.566,10.566,0,0,0,2,6.416Z" style="fill:#231815"/><path d="M488,22.748l1.148-.393v1.779h1.975v.91h-1.975v4.412c0,.967.294,1.5,1.036,1.5a2.269,2.269,0,0,0,.785-.112l.069.9a2.924,2.924,0,0,1-1.134.183c-1.85,0-1.905-1.681-1.905-2.493V25.045h-1.177v-.91H488Z" style="fill:#231815"/><path d="M498.06,31.446a5.54,5.54,0,0,1-2.4.477c-2.228,0-3.558-1.569-3.558-3.853,0-2.395,1.345-4.118,3.4-4.118,2.354,0,2.956,2.157,2.956,3.488,0,.267-.015.462-.028.644h-5.2C493.255,30.2,494.46,31,495.832,31a4.8,4.8,0,0,0,2-.393Zm-.742-4.229c.014-1.037-.421-2.382-1.919-2.382-1.4,0-2.018,1.331-2.13,2.382Z" style="fill:#231815"/><path d="M505.676,24.135l-2.521,3.7,2.591,3.937h-1.33l-1.149-1.778c-.279-.463-.532-.883-.812-1.373h-.028c-.238.477-.519.9-.812,1.373l-1.121,1.778H499.2l2.619-3.894-2.493-3.74h1.3l1.106,1.694c.28.435.519.827.771,1.274h.042c.238-.447.5-.868.771-1.274l1.078-1.694Z" style="fill:#231815"/><path d="M507.395,22.748l1.148-.393v1.779h1.975v.91h-1.975v4.412c0,.967.294,1.5,1.036,1.5a2.269,2.269,0,0,0,.785-.112l.069.9a2.926,2.926,0,0,1-1.135.183c-1.849,0-1.9-1.681-1.9-2.493V25.045h-1.177v-.91h1.177Z" style="fill:#231815"/><path d="M512.141,20.772A10.246,10.246,0,0,1,514.2,27.23a10.289,10.289,0,0,1-2.059,6.457h-.953a10.585,10.585,0,0,0,2-6.471,10.506,10.506,0,0,0-2-6.444Z" style="fill:#231815"/><path d="M409.633,104.91c0-3.793,2.225-6.1,5.2-6.1a4.336,4.336,0,0,1,3.217,1.457l-.8.96a3.2,3.2,0,0,0-2.4-1.12c-2.225,0-3.7,1.825-3.7,4.754,0,2.961,1.408,4.817,3.649,4.817a3.565,3.565,0,0,0,2.721-1.312l.816.929a4.535,4.535,0,0,1-3.6,1.681C411.826,110.977,409.633,108.72,409.633,104.91Z" style="fill:#231815"/><path d="M419.841,108.512c0-1.889,1.649-2.833,5.346-3.25,0-1.119-.368-2.192-1.792-2.192a4.786,4.786,0,0,0-2.609.929l-.576-1.009a6.533,6.533,0,0,1,3.425-1.136c2.113,0,3.009,1.424,3.009,3.568v5.347h-1.2l-.128-1.04h-.048a4.659,4.659,0,0,1-2.881,1.248A2.356,2.356,0,0,1,419.841,108.512Zm5.346.145v-2.434c-2.929.352-3.921,1.072-3.921,2.193,0,.992.672,1.393,1.537,1.393A3.553,3.553,0,0,0,425.188,108.656Z" style="fill:#231815"/><path d="M429.425,108.08v-4.818h-1.3v-1.1l1.36-.08.176-2.433h1.216v2.433h2.353v1.185h-2.353v4.85c0,1.072.336,1.681,1.345,1.681a3.1,3.1,0,0,0,.993-.224l.288,1.088a5.474,5.474,0,0,1-1.6.32C430.05,110.977,429.425,109.824,429.425,108.08Z" style="fill:#231815"/><path d="M434.305,106.431a4.231,4.231,0,0,1,4.194-4.577,3.717,3.717,0,0,1,2.545,1.023l-.752.977a2.525,2.525,0,0,0-1.745-.784c-1.569,0-2.721,1.36-2.721,3.361s1.088,3.329,2.689,3.329a3.063,3.063,0,0,0,2.049-.863l.625.976a4.146,4.146,0,0,1-2.8,1.1C436.082,110.977,434.305,109.313,434.305,106.431Z" style="fill:#231815"/><path d="M443.105,98.027h1.457v3.489l-.048,1.793a4.081,4.081,0,0,1,2.881-1.456c1.825,0,2.657,1.184,2.657,3.408v5.507H448.6v-5.313c0-1.633-.5-2.322-1.649-2.322a3.309,3.309,0,0,0-2.385,1.329v6.307h-1.457Z" style="fill:#231815"/><path d="M456.657,108.08v-4.818h-1.3v-1.1l1.361-.08.176-2.433h1.216v2.433h2.353v1.185h-2.353v4.85c0,1.072.336,1.681,1.345,1.681a3.1,3.1,0,0,0,.993-.224l.288,1.088a5.474,5.474,0,0,1-1.6.32C457.282,110.977,456.657,109.824,456.657,108.08Z" style="fill:#231815"/><path d="M462.433,98.027h1.457v3.489l-.048,1.793a4.081,4.081,0,0,1,2.881-1.456c1.825,0,2.657,1.184,2.657,3.408v5.507h-1.457v-5.313c0-1.633-.5-2.322-1.649-2.322a3.309,3.309,0,0,0-2.385,1.329v6.307h-1.457Z" style="fill:#231815"/><path d="M471.489,106.431c0-2.817,1.9-4.577,3.921-4.577,2.209,0,3.457,1.6,3.457,4.081a5.685,5.685,0,0,1-.063.833h-5.858a2.881,2.881,0,0,0,2.881,3.041A3.741,3.741,0,0,0,478,109.12l.528.96a5.171,5.171,0,0,1-2.881.9C473.345,110.977,471.489,109.3,471.489,106.431Zm6.1-.7c0-1.761-.8-2.705-2.161-2.705a2.674,2.674,0,0,0-2.5,2.705Z" style="fill:#231815"/><path d="M484.721,99.035h1.793l2.257,6.275c.272.816.544,1.633.832,2.449h.08c.272-.816.528-1.633.8-2.449l2.24-6.275h1.793v11.733h-1.393v-6.5c0-1.008.112-2.433.192-3.457h-.064l-.928,2.674-2.226,6.1h-.992l-2.225-6.1-.929-2.674h-.063c.063,1.024.176,2.449.176,3.457v6.5h-1.345Z" style="fill:#231815"/><path d="M496.929,106.431c0-2.9,1.9-4.577,4.033-4.577s4.034,1.68,4.034,4.577c0,2.882-1.905,4.546-4.034,4.546S496.929,109.313,496.929,106.431Zm6.563,0c0-2-1.024-3.361-2.529-3.361s-2.513,1.36-2.513,3.361,1.009,3.329,2.513,3.329S503.491,108.432,503.491,106.431Z" style="fill:#231815"/><path d="M507.28,102.077h1.2l.128,1.265h.049a3.818,3.818,0,0,1,2.705-1.488,2.291,2.291,0,0,1,2.4,1.664,4.107,4.107,0,0,1,2.865-1.664c1.793,0,2.642,1.184,2.642,3.408v5.507h-1.457v-5.313c0-1.633-.513-2.322-1.616-2.322A3.211,3.211,0,0,0,514,104.462v6.307h-1.457v-5.313c0-1.633-.512-2.322-1.616-2.322a3.213,3.213,0,0,0-2.193,1.329v6.307H507.28Z" style="fill:#231815"/><path d="M521.44,106.431c0-2.817,1.9-4.577,3.922-4.577,2.209,0,3.457,1.6,3.457,4.081a5.668,5.668,0,0,1-.064.833H522.9a2.882,2.882,0,0,0,2.882,3.041,3.746,3.746,0,0,0,2.177-.688l.528.96a5.177,5.177,0,0,1-2.882.9C523.3,110.977,521.44,109.3,521.44,106.431Zm6.1-.7c0-1.761-.8-2.705-2.161-2.705a2.674,2.674,0,0,0-2.5,2.705Z" style="fill:#231815"/><path d="M530.96,102.077h1.2l.128,1.249h.049a4.167,4.167,0,0,1,2.913-1.473c1.824,0,2.656,1.184,2.656,3.408v5.507H536.45v-5.313c0-1.633-.5-2.322-1.648-2.322a3.31,3.31,0,0,0-2.386,1.329v6.307H530.96Z" style="fill:#231815"/><path d="M540.992,108.08v-4.818h-1.3v-1.1l1.36-.08.176-2.433h1.217v2.433H544.8v1.185h-2.353v4.85c0,1.072.336,1.681,1.345,1.681a3.1,3.1,0,0,0,.992-.224l.288,1.088a5.467,5.467,0,0,1-1.6.32C541.616,110.977,540.992,109.824,540.992,108.08Z" style="fill:#231815"/><line x1="282.5" y1="104.981" x2="342.561" y2="104.981" style="fill:none;stroke:#4d4d4d;stroke-miterlimit:10;stroke-width:2px"/><polygon points="336.943 112.388 340.09 104.981 336.943 97.575 354.5 104.981 336.943 112.388" style="fill:#4d4d4d"/><path d="M521.476,70.313a.678.678,0,0,1,.012-1.355.678.678,0,0,1-.012,1.355Zm.5,7.688h-1V71.463h1Z" style="fill:#231815"/><path d="M532.858,78h-.983V74.223c0-1.271-.456-2.088-1.439-2.088a1.666,1.666,0,0,0-1.535,1.752V78h-.983V73.971c0-1.044-.444-1.836-1.367-1.836a1.777,1.777,0,0,0-1.607,1.859V78h-.983V73.143c0-.672-.023-1.151-.048-1.691h.875l.061,1.056h.036a2.175,2.175,0,0,1,1.99-1.2,1.868,1.868,0,0,1,1.787,1.308h.024a2.29,2.29,0,0,1,2.1-1.308c.8,0,2.075.516,2.075,2.759Z" style="fill:#231815"/><path d="M539.076,76.441a9.135,9.135,0,0,0,.1,1.559h-.912l-.1-.84h-.036a2.272,2.272,0,0,1-1.931.983,1.812,1.812,0,0,1-1.907-1.858c0-1.571,1.367-2.423,3.79-2.411,0-.552,0-1.8-1.487-1.8a2.821,2.821,0,0,0-1.595.468l-.24-.684a3.724,3.724,0,0,1,1.991-.552c1.847,0,2.326,1.308,2.326,2.6Zm-.983-1.836c-1.235,0-2.782.18-2.782,1.56a1.089,1.089,0,0,0,1.128,1.212,1.6,1.6,0,0,0,1.654-1.535Z" style="fill:#231815"/><path d="M546.313,71.451c-.036.469-.061,1-.061,1.8v3.814c0,1.14-.023,3.754-3.118,3.754a3.912,3.912,0,0,1-2.051-.516l.264-.779a3.6,3.6,0,0,0,1.835.491c1.2,0,2.075-.636,2.075-2.362v-.779h-.024a2.235,2.235,0,0,1-2.026,1.115c-1.56,0-2.675-1.379-2.675-3.215,0-2.267,1.415-3.466,2.83-3.466a2.1,2.1,0,0,1,1.979,1.128h.023l.049-.984Zm-1.067,2.52a1.763,1.763,0,0,0-1.739-1.859c-1.151,0-1.955,1.02-1.955,2.6,0,1.392.672,2.482,1.943,2.482a1.79,1.79,0,0,0,1.751-1.919Z" style="fill:#231815"/><path d="M552.853,77.725a4.748,4.748,0,0,1-2.051.407,2.974,2.974,0,0,1-3.047-3.3c0-2.051,1.151-3.526,2.914-3.526,2.016,0,2.531,1.847,2.531,2.986,0,.228-.013.4-.024.552h-4.449c.012,1.811,1.043,2.494,2.219,2.494A4.127,4.127,0,0,0,552.66,77Zm-.636-3.623c.012-.887-.36-2.038-1.644-2.038-1.2,0-1.727,1.14-1.823,2.038Z" style="fill:#231815"/></svg>